IBM Plex Sans Arabic-Bold.ufo
<glyph name="C" format="1">
  <advance width="651"/>
  <unicode hex="0043"/>
  <outline>
    <contour>
      <point x="359" y="-12" type="curve" smooth="yes" name="hr00"/>
      <point x="487" y="-12"/>
      <point x="570" y="49"/>
      <point x="622" y="155" type="curve"/>
      <point x="498" y="227" type="line"/>
      <point x="477" y="170"/>
      <point x="434" y="123"/>
      <point x="359" y="123" type="curve" smooth="yes"/>
      <point x="270" y="123"/>
      <point x="211" y="183"/>
      <point x="211" y="293" type="curve" smooth="yes"/>
      <point x="211" y="405" type="line" smooth="yes"/>
      <point x="211" y="515"/>
      <point x="270" y="575"/>
      <point x="359" y="575" type="curve" smooth="yes"/>
      <point x="434" y="575"/>
      <point x="471" y="536"/>
      <point x="489" y="478" type="curve"/>
      <point x="620" y="546" type="line"/>
      <point x="569" y="658"/>
      <point x="487" y="710"/>
      <point x="359" y="710" type="curve" smooth="yes"/>
      <point x="171" y="710"/>
      <point x="50" y="580"/>
      <point x="50" y="344" type="curve" smooth="yes"/>
      <point x="50" y="108"/>
      <point x="171" y="-12"/>
    </contour>
    <contour>
      <point x="335" y="0" type="move" name="bottom"/>
    </contour>
    <contour>
      <point x="355" y="698" type="move" name="top"/>
    </contour>
  </outline>
</glyph>
<glyph name="G" format="1">
  <advance width="719"/>
  <unicode hex="0047"/>
  <outline>
    <contour>
      <point x="520" y="0" type="line"/>
      <point x="648" y="0" type="line"/>
      <point x="648" y="389" type="line"/>
      <point x="373" y="389" type="line"/>
      <point x="373" y="262" type="line"/>
      <point x="503" y="262" type="line"/>
      <point x="503" y="227" type="line" smooth="yes"/>
      <point x="503" y="159"/>
      <point x="442" y="123"/>
      <point x="366" y="123" type="curve" smooth="yes" name="hr01"/>
      <point x="272" y="123"/>
      <point x="211" y="177"/>
      <point x="211" y="293" type="curve" smooth="yes"/>
      <point x="211" y="405" type="line" smooth="yes"/>
      <point x="211" y="521"/>
      <point x="272" y="575"/>
      <point x="366" y="575" type="curve" smooth="yes"/>
      <point x="447" y="575"/>
      <point x="490" y="531"/>
      <point x="511" y="477" type="curve"/>
      <point x="635" y="548" type="line"/>
      <point x="583" y="655"/>
      <point x="490" y="710"/>
      <point x="366" y="710" type="curve" smooth="yes"/>
      <point x="177" y="710"/>
      <point x="50" y="581"/>
      <point x="50" y="346" type="curve" smooth="yes"/>
      <point x="50" y="112"/>
      <point x="176" y="-12"/>
      <point x="336" y="-12" type="curve" smooth="yes"/>
      <point x="441" y="-12"/>
      <point x="505" y="41"/>
      <point x="515" y="111" type="curve" name="hr02"/>
      <point x="520" y="111" type="line"/>
    </contour>
    <contour>
      <point x="349" y="0" type="move" name="bottom"/>
    </contour>
    <contour>
      <point x="358" y="698" type="move" name="top"/>
    </contour>
  </outline>
</glyph>
<glyph name="J" format="1">
  <advance width="559"/>
  <unicode hex="004A"/>
  <outline>
    <contour>
      <point x="122" y="698" type="line" name="hr00"/>
      <point x="122" y="576" type="line"/>
      <point x="334" y="576" type="line"/>
      <point x="334" y="209" type="line" smooth="yes"/>
      <point x="334" y="149"/>
      <point x="298" y="122"/>
      <point x="254" y="122" type="curve" smooth="yes"/>
      <point x="207" y="122"/>
      <point x="178" y="154"/>
      <point x="167" y="213" type="curve"/>
      <point x="25" y="185" type="line"/>
      <point x="45" y="68"/>
      <point x="118" y="-11"/>
      <point x="256" y="-11" type="curve" smooth="yes"/>
      <point x="400" y="-11"/>
      <point x="486" y="74"/>
      <point x="486" y="202" type="curve" smooth="yes"/>
      <point x="486" y="698" type="line"/>
    </contour>
    <contour>
      <point x="256" y="0" type="move" name="bottom"/>
    </contour>
    <contour>
      <point x="303" y="698" type="move" name="top"/>
    </contour>
  </outline>
</glyph>
<glyph name="W" format="1">
  <advance width="973"/>
  <unicode hex="0057"/>
  <outline>
    <contour>
      <point x="361" y="0" type="line" name="hr00"/>
      <point x="449" y="378" type="line"/>
      <point x="484" y="531" type="line"/>
      <point x="487" y="531" type="line"/>
      <point x="521" y="378" type="line"/>
      <point x="609" y="0" type="line"/>
      <point x="782" y="0" type="line"/>
      <point x="944" y="698" type="line"/>
      <point x="800" y="698" type="line"/>
      <point x="733" y="363" type="line"/>
      <point x="696" y="169" type="line"/>
      <point x="693" y="169" type="line"/>
      <point x="650" y="363" type="line"/>
      <point x="572" y="698" type="line"/>
      <point x="406" y="698" type="line"/>
      <point x="329" y="363" type="line"/>
      <point x="285" y="169" type="line"/>
      <point x="282" y="169" type="line"/>
      <point x="245" y="363" type="line"/>
      <point x="179" y="698" type="line"/>
      <point x="29" y="698" type="line"/>
      <point x="187" y="0" type="line"/>
    </contour>
    <contour>
      <point x="487" y="0" type="move" name="bottom"/>
    </contour>
    <contour>
      <point x="487" y="698" type="move" name="top"/>
    </contour>
  </outline>
</glyph>
<glyph name="Y" format="1">
  <advance width="649"/>
  <unicode hex="0059"/>
  <outline>
    <contour>
      <point x="401" y="0" type="line" name="hr00"/>
      <point x="401" y="274" type="line"/>
      <point x="640" y="698" type="line"/>
      <point x="475" y="698" type="line"/>
      <point x="331" y="420" type="line"/>
      <point x="329" y="420" type="line"/>
      <point x="179" y="698" type="line"/>
      <point x="9" y="698" type="line"/>
      <point x="248" y="273" type="line"/>
      <point x="248" y="0" type="line"/>
    </contour>
    <contour>
      <point x="323" y="0" type="move" name="bottom"/>
    </contour>
    <contour>
      <point x="325" y="698" type="move" name="top"/>
    </contour>
  </outline>
</glyph>
<glyph name="f" format="1">
  <advance width="361"/>
  <unicode hex="0066"/>
  <outline>
    <contour>
      <point x="95" y="0" type="line" name="hr00"/>
      <point x="243" y="0" type="line"/>
      <point x="243" y="410" type="line"/>
      <point x="348" y="410" type="line"/>
      <point x="348" y="525" type="line"/>
      <point x="243" y="525" type="line"/>
      <point x="243" y="625" type="line"/>
      <point x="348" y="625" type="line"/>
      <point x="348" y="740" type="line"/>
      <point x="252" y="740" type="line" smooth="yes"/>
      <point x="150" y="740"/>
      <point x="95" y="688"/>
      <point x="95" y="587" type="curve" smooth="yes"/>
      <point x="95" y="525" type="line"/>
      <point x="21" y="525" type="line"/>
      <point x="21" y="410" type="line"/>
      <point x="95" y="410" type="line"/>
    </contour>
    <contour>
      <point x="170" y="0" type="move" name="bottom"/>
    </contour>
  </outline>
</glyph>
<glyph name="h" format="1">
  <advance width="596"/>
  <unicode hex="0068"/>
  <outline>
    <contour>
      <point x="69" y="0" type="line" name="hr00"/>
      <point x="217" y="0" type="line"/>
      <point x="217" y="340" type="line"/>
      <point x="217" y="392"/>
      <point x="264" y="417"/>
      <point x="312" y="417" type="curve" smooth="yes"/>
      <point x="366" y="417"/>
      <point x="385" y="384"/>
      <point x="385" y="317" type="curve" smooth="yes"/>
      <point x="385" y="0" type="line"/>
      <point x="533" y="0" type="line"/>
      <point x="533" y="329" type="line" smooth="yes"/>
      <point x="533" y="461"/>
      <point x="476" y="537"/>
      <point x="369" y="537" type="curve" smooth="yes"/>
      <point x="286" y="537"/>
      <point x="242" y="491"/>
      <point x="223" y="436" type="curve"/>
      <point x="217" y="436" type="line"/>
      <point x="217" y="740" type="line"/>
      <point x="69" y="740" type="line"/>
    </contour>
    <contour>
      <point x="302" y="0" type="move" name="bottom"/>
    </contour>
    <contour>
      <point x="143" y="698" type="move" name="top"/>
    </contour>
  </outline>
</glyph>
<glyph name="o" format="1">
  <advance width="564"/>
  <unicode hex="006F"/>
  <outline>
    <contour>
      <point x="282" y="-12" type="curve" smooth="yes" name="hr00"/>
      <point x="436" y="-12"/>
      <point x="528" y="94"/>
      <point x="528" y="263" type="curve" smooth="yes"/>
      <point x="528" y="432"/>
      <point x="436" y="537"/>
      <point x="282" y="537" type="curve" smooth="yes"/>
      <point x="128" y="537"/>
      <point x="36" y="432"/>
      <point x="36" y="263" type="curve" smooth="yes"/>
      <point x="36" y="94"/>
      <point x="128" y="-12"/>
    </contour>
    <contour>
      <point x="282" y="105" type="curve" smooth="yes"/>
      <point x="224" y="105"/>
      <point x="190" y="143"/>
      <point x="190" y="209" type="curve" smooth="yes"/>
      <point x="190" y="316" type="line" smooth="yes"/>
      <point x="190" y="382"/>
      <point x="224" y="420"/>
      <point x="282" y="420" type="curve" smooth="yes"/>
      <point x="340" y="420"/>
      <point x="374" y="382"/>
      <point x="374" y="316" type="curve" smooth="yes"/>
      <point x="374" y="209" type="line" smooth="yes"/>
      <point x="374" y="143"/>
      <point x="340" y="105"/>
    </contour>
    <contour>
      <point x="281" y="0" type="move" name="bottom"/>
    </contour>
    <contour>
      <point x="281" y="540" type="move" name="top"/>
    </contour>
  </outline>
</glyph>
<glyph name="p" format="1">
  <advance width="608"/>
  <unicode hex="0070"/>
  <outline>
    <contour>
      <point x="69" y="-200" type="line"/>
      <point x="217" y="-200" type="line"/>
      <point x="217" y="88" type="line"/>
      <point x="222" y="88" type="line"/>
      <point x="237" y="31"/>
      <point x="295" y="-12"/>
      <point x="363" y="-12" type="curve" smooth="yes"/>
      <point x="496" y="-12"/>
      <point x="565" y="85"/>
      <point x="565" y="263" type="curve" smooth="yes"/>
      <point x="565" y="441"/>
      <point x="496" y="537"/>
      <point x="363" y="537" type="curve" smooth="yes"/>
      <point x="295" y="537"/>
      <point x="237" y="495"/>
      <point x="222" y="437" type="curve"/>
      <point x="217" y="437" type="line"/>
      <point x="217" y="525" type="line" name="hr01"/>
      <point x="69" y="525" type="line"/>
    </contour>
    <contour>
      <point x="314" y="108" type="curve" smooth="yes"/>
      <point x="258" y="108"/>
      <point x="217" y="137"/>
      <point x="217" y="185" type="curve"/>
      <point x="217" y="340" type="line"/>
      <point x="217" y="388"/>
      <point x="258" y="417"/>
      <point x="314" y="417" type="curve" smooth="yes" name="hr02"/>
      <point x="370" y="417"/>
      <point x="411" y="374"/>
      <point x="411" y="308" type="curve" smooth="yes"/>
      <point x="411" y="217" type="line" smooth="yes"/>
      <point x="411" y="151"/>
      <point x="370" y="108"/>
    </contour>
    <contour>
      <point x="317" y="540" type="move" name="top"/>
    </contour>
  </outline>
</glyph>
<glyph name="r" format="1">
  <advance width="404"/>
  <unicode hex="0072"/>
  <outline>
    <contour>
      <point x="217" y="0" type="line" name="hr00"/>
      <point x="217" y="307" type="line"/>
      <point x="217" y="368"/>
      <point x="259" y="387"/>
      <point x="345" y="387" type="curve" smooth="yes"/>
      <point x="382" y="387" type="line"/>
      <point x="382" y="525" type="line"/>
      <point x="356" y="525" type="line" smooth="yes"/>
      <point x="274" y="525"/>
      <point x="234" y="469"/>
      <point x="222" y="411" type="curve"/>
      <point x="217" y="411" type="line"/>
      <point x="217" y="525" type="line"/>
      <point x="69" y="525" type="line"/>
      <point x="69" y="0" type="line"/>
    </contour>
    <contour>
      <point x="143" y="0" type="move" name="bottom"/>
    </contour>
    <contour>
      <point x="224" y="540" type="move" name="top"/>
    </contour>
  </outline>
</glyph>
<glyph name="s" format="1">
  <advance width="504"/>
  <unicode hex="0073"/>
  <outline>
    <contour>
      <point x="247" y="-12" type="curve" smooth="yes" name="hr00"/>
      <point x="382" y="-12"/>
      <point x="472" y="62"/>
      <point x="472" y="163" type="curve" smooth="yes"/>
      <point x="472" y="254"/>
      <point x="413" y="306"/>
      <point x="299" y="321" type="curve" smooth="yes"/>
      <point x="240" y="329" type="line" smooth="yes"/>
      <point x="197" y="335"/>
      <point x="185" y="350"/>
      <point x="185" y="378" type="curve" smooth="yes"/>
      <point x="185" y="404"/>
      <point x="205" y="422"/>
      <point x="255" y="422" type="curve" smooth="yes"/>
      <point x="299" y="422"/>
      <point x="343" y="401"/>
      <point x="376" y="368" type="curve"/>
      <point x="461" y="455" type="line"/>
      <point x="408" y="507"/>
      <point x="357" y="537"/>
      <point x="247" y="537" type="curve" smooth="yes"/>
      <point x="122" y="537"/>
      <point x="43" y="467"/>
      <point x="43" y="366" type="curve" smooth="yes"/>
      <point x="43" y="271"/>
      <point x="101" y="219"/>
      <point x="220" y="204" type="curve" smooth="yes"/>
      <point x="277" y="197" type="line" smooth="yes"/>
      <point x="314" y="192"/>
      <point x="330" y="179"/>
      <point x="330" y="153" type="curve" smooth="yes"/>
      <point x="330" y="122"/>
      <point x="310" y="103"/>
      <point x="252" y="103" type="curve" smooth="yes"/>
      <point x="195" y="103"/>
      <point x="150" y="129"/>
      <point x="113" y="170" type="curve"/>
      <point x="26" y="82" type="line"/>
      <point x="80" y="22"/>
      <point x="146" y="-12"/>
    </contour>
    <contour>
      <point x="249" y="0" type="move" name="bottom"/>
    </contour>
    <contour>
      <point x="250" y="540" type="move" name="top"/>
    </contour>
  </outline>
</glyph>
<glyph name="t" format="1">
  <advance width="383"/>
  <unicode hex="0074"/>
  <outline>
    <contour>
      <point x="341" y="0" type="line" name="hr00"/>
      <point x="341" y="115" type="line"/>
      <point x="245" y="115" type="line"/>
      <point x="245" y="410" type="line"/>
      <point x="349" y="410" type="line"/>
      <point x="349" y="525" type="line"/>
      <point x="245" y="525" type="line"/>
      <point x="245" y="667" type="line"/>
      <point x="112" y="667" type="line"/>
      <point x="112" y="581" type="line" smooth="yes"/>
      <point x="112" y="545"/>
      <point x="100" y="525"/>
      <point x="60" y="525" type="curve" smooth="yes"/>
      <point x="23" y="525" type="line"/>
      <point x="23" y="410" type="line"/>
      <point x="97" y="410" type="line"/>
      <point x="97" y="153" type="line" smooth="yes"/>
      <point x="97" y="53"/>
      <point x="151" y="0"/>
      <point x="253" y="0" type="curve" smooth="yes"/>
    </contour>
    <contour>
      <point x="229" y="0" type="move" name="bottom"/>
    </contour>
    <contour>
      <point x="308" y="791" type="move" name="topright"/>
    </contour>
  </outline>
</glyph>
<glyph name="u" format="1">
  <advance width="596"/>
  <unicode hex="0075"/>
  <outline>
    <contour>
      <point x="379" y="0" type="line"/>
      <point x="527" y="0" type="line"/>
      <point x="527" y="525" type="line"/>
      <point x="379" y="525" type="line"/>
      <point x="379" y="184" type="line"/>
      <point x="379" y="134"/>
      <point x="332" y="108"/>
      <point x="286" y="108" type="curve" smooth="yes" name="hr01"/>
      <point x="232" y="108"/>
      <point x="211" y="144"/>
      <point x="211" y="208" type="curve" smooth="yes"/>
      <point x="211" y="525" type="line"/>
      <point x="63" y="525" type="line"/>
      <point x="63" y="195" type="line" smooth="yes"/>
      <point x="63" y="63"/>
      <point x="120" y="-12"/>
      <point x="227" y="-12" type="curve" smooth="yes"/>
      <point x="313" y="-12"/>
      <point x="356" y="35"/>
      <point x="374" y="88" type="curve" name="hr02"/>
      <point x="379" y="88" type="line"/>
    </contour>
    <contour>
      <point x="295" y="0" type="move" name="bottom"/>
    </contour>
    <contour>
      <point x="528" y="0" type="move" name="bottomright"/>
    </contour>
    <contour>
      <point x="295" y="540" type="move" name="top"/>
    </contour>
  </outline>
</glyph>
<glyph name="w" format="1">
  <advance width="841"/>
  <unicode hex="0077"/>
  <outline>
    <contour>
      <point x="166" y="0" type="line" name="hr00"/>
      <point x="318" y="0" type="line"/>
      <point x="382" y="222" type="line"/>
      <point x="418" y="358" type="line"/>
      <point x="421" y="358" type="line"/>
      <point x="458" y="222" type="line"/>
      <point x="522" y="0" type="line"/>
      <point x="677" y="0" type="line"/>
      <point x="822" y="525" type="line"/>
      <point x="685" y="525" type="line"/>
      <point x="634" y="313" type="line"/>
      <point x="598" y="153" type="line"/>
      <point x="594" y="153" type="line"/>
      <point x="551" y="313" type="line"/>
      <point x="490" y="525" type="line"/>
      <point x="355" y="525" type="line"/>
      <point x="295" y="313" type="line"/>
      <point x="253" y="153" type="line"/>
      <point x="249" y="153" type="line"/>
      <point x="213" y="313" type="line"/>
      <point x="162" y="525" type="line"/>
      <point x="19" y="525" type="line"/>
    </contour>
    <contour>
      <point x="421" y="0" type="move" name="bottom"/>
    </contour>
    <contour>
      <point x="421" y="540" type="move" name="top"/>
    </contour>
  </outline>
</glyph>
<glyph name="logicalnot" format="1">
  <advance width="600"/>
  <unicode hex="00AC"/>
  <outline>
    <contour>
      <point x="533" y="78" type="line" name="hr00"/>
      <point x="533" y="365" type="line"/>
      <point x="52" y="365" type="line"/>
      <point x="52" y="247" type="line"/>
      <point x="412" y="247" type="line"/>
      <point x="412" y="78" type="line"/>
    </contour>
  </outline>
</glyph>
<glyph name="cedilla" format="1">
  <advance width="600"/>
  <unicode hex="00B8"/>
  <outline>
    <contour>
      <point x="314" y="-212" type="curve" smooth="yes" name="hr00"/>
      <point x="382" y="-212"/>
      <point x="446" y="-189"/>
      <point x="446" y="-121" type="curve" smooth="yes"/>
      <point x="446" y="-72"/>
      <point x="413" y="-52"/>
      <point x="373" y="-52" type="curve" smooth="yes"/>
      <point x="357" y="-52"/>
      <point x="341" y="-55"/>
      <point x="325" y="-59" type="curve"/>
      <point x="321" y="-55" type="line"/>
      <point x="339" y="30" type="line"/>
      <point x="272" y="30" type="line"/>
      <point x="250" y="-74" type="line"/>
      <point x="271" y="-76" type="line" smooth="yes"/>
      <point x="333" y="-82"/>
      <point x="346" y="-101"/>
      <point x="346" y="-116" type="curve" smooth="yes"/>
      <point x="346" y="-133"/>
      <point x="327" y="-141"/>
      <point x="302" y="-141" type="curve" smooth="yes"/>
      <point x="271" y="-141"/>
      <point x="249" y="-128"/>
      <point x="236" y="-112" type="curve"/>
      <point x="190" y="-168" type="line"/>
      <point x="207" y="-188"/>
      <point x="245" y="-212"/>
    </contour>
    <contour>
      <point x="300" y="0" type="move" name="_bottom"/>
    </contour>
  </outline>
</glyph>
<glyph name="Agrave" format="1">
  <advance width="685"/>
  <unicode hex="00C0"/>
  <outline>
    <component base="A"/>
    <component base="grave.case" xOffset="39"/>
    <contour>
      <point x="339.0" y="0.0" type="move" name="bottom"/>
    </contour>
    <contour>
      <point x="666.0" y="0.0" type="move" name="bottomright"/>
    </contour>
  </outline>
</glyph>
<glyph name="Ccedilla" format="1">
  <advance width="651"/>
  <unicode hex="00C7"/>
  <outline>
    <contour>
      <point x="359" y="575" type="curve" smooth="yes" name="hr00"/>
      <point x="434" y="575"/>
      <point x="471" y="536"/>
      <point x="489" y="478" type="curve"/>
      <point x="620" y="546" type="line"/>
      <point x="569" y="658"/>
      <point x="487" y="710"/>
      <point x="359" y="710" type="curve" smooth="yes"/>
      <point x="171" y="710"/>
      <point x="50" y="580"/>
      <point x="50" y="344" type="curve" smooth="yes"/>
      <point x="50" y="135"/>
      <point x="145" y="16"/>
      <point x="298" y="-7" type="curve"/>
      <point x="284" y="-74" type="line"/>
      <point x="305" y="-76" type="line" smooth="yes"/>
      <point x="367" y="-82"/>
      <point x="380" y="-101"/>
      <point x="380" y="-116" type="curve" smooth="yes"/>
      <point x="380" y="-133"/>
      <point x="361" y="-141"/>
      <point x="336" y="-141" type="curve" smooth="yes"/>
      <point x="305" y="-141"/>
      <point x="283" y="-128"/>
      <point x="270" y="-112" type="curve"/>
      <point x="224" y="-168" type="line"/>
      <point x="241" y="-188"/>
      <point x="279" y="-212"/>
      <point x="348" y="-212" type="curve" smooth="yes"/>
      <point x="416" y="-212"/>
      <point x="480" y="-189"/>
      <point x="480" y="-121" type="curve" smooth="yes"/>
      <point x="480" y="-72"/>
      <point x="447" y="-52"/>
      <point x="407" y="-52" type="curve" smooth="yes"/>
      <point x="391" y="-52"/>
      <point x="375" y="-55"/>
      <point x="359" y="-59" type="curve"/>
      <point x="355" y="-55" type="line"/>
      <point x="364" y="-12" type="line"/>
      <point x="487" y="-12"/>
      <point x="570" y="49"/>
      <point x="622" y="155" type="curve"/>
      <point x="498" y="227" type="line"/>
      <point x="477" y="170"/>
      <point x="434" y="123"/>
      <point x="359" y="123" type="curve" smooth="yes"/>
      <point x="270" y="123"/>
      <point x="211" y="183"/>
      <point x="211" y="293" type="curve" smooth="yes"/>
      <point x="211" y="405" type="line" smooth="yes"/>
      <point x="211" y="515"/>
      <point x="270" y="575"/>
    </contour>
  </outline>
</glyph>
<glyph name="ydieresis" format="1">
  <advance width="534"/>
  <unicode hex="00FF"/>
  <outline>
    <component base="y"/>
    <component base="dieresis" xOffset="-29"/>
    <contour>
      <point x="432.0" y="0.0" type="move" name="bottom"/>
    </contour>
  </outline>
</glyph>
<glyph name="ij" format="1">
  <advance width="566"/>
  <unicode hex="0133"/>
  <outline>
    <component base="i"/>
    <component base="j" xOffset="280"/>
    <contour>
      <point x="143.0" y="0.0" type="move" name="bottom"/>
    </contour>
    <contour>
      <point x="218.0" y="0.0" type="move" name="bottomright"/>
    </contour>
  </outline>
</glyph>
<glyph name="scaron" format="1">
  <advance width="504"/>
  <unicode hex="0161"/>
  <outline>
    <component base="s"/>
    <component base="caron" xOffset="-50"/>
    <contour>
      <point x="249.0" y="0.0" type="move" name="bottom"/>
    </contour>
  </outline>
</glyph>
<glyph name="commaturnedtop" format="1">
  <advance width="600"/>
  <unicode hex="02BB"/>
  <outline>
    <contour>
      <point x="301" y="576" type="curve" smooth="yes" name="hr00"/>
      <point x="345" y="576"/>
      <point x="371" y="598"/>
      <point x="371" y="638" type="curve" smooth="yes"/>
      <point x="371" y="649" type="line" smooth="yes"/>
      <point x="371" y="678"/>
      <point x="359" y="707"/>
      <point x="321" y="710" type="curve"/>
      <point x="331" y="750"/>
      <point x="349" y="780"/>
      <point x="383" y="809" type="curve"/>
      <point x="298" y="809" type="line"/>
      <point x="260" y="776"/>
      <point x="231" y="713"/>
      <point x="231" y="652" type="curve" smooth="yes"/>
      <point x="231" y="638" type="line" smooth="yes"/>
      <point x="231" y="598"/>
      <point x="257" y="576"/>
    </contour>
    <contour>
      <point x="300" y="540" type="move" name="_top"/>
    </contour>
  </outline>
</glyph>
<glyph name="breve" format="1">
  <advance width="600"/>
  <unicode hex="02D8"/>
  <outline>
    <contour>
      <point x="300" y="579" type="curve" smooth="yes" name="hr00"/>
      <point x="413" y="579"/>
      <point x="465" y="677"/>
      <point x="490" y="749" type="curve"/>
      <point x="410" y="791" type="line"/>
      <point x="390" y="758" type="line" smooth="yes"/>
      <point x="361" y="710"/>
      <point x="335" y="682"/>
      <point x="300" y="682" type="curve" smooth="yes"/>
      <point x="265" y="682"/>
      <point x="240" y="710"/>
      <point x="211" y="758" type="curve" smooth="yes"/>
      <point x="191" y="791" type="line"/>
      <point x="110" y="749" type="line"/>
      <point x="135" y="677"/>
      <point x="182" y="579"/>
    </contour>
    <contour>
      <point x="300" y="540" type="move" name="_top"/>
    </contour>
  </outline>
</glyph>
<glyph name="ring" format="1">
  <advance width="600"/>
  <unicode hex="02DA"/>
  <outline>
    <contour>
      <point x="300" y="558" type="curve" smooth="yes" name="hr00"/>
      <point x="383" y="558"/>
      <point x="448" y="618"/>
      <point x="448" y="701" type="curve" smooth="yes"/>
      <point x="448" y="784"/>
      <point x="383" y="844"/>
      <point x="300" y="844" type="curve" smooth="yes"/>
      <point x="217" y="844"/>
      <point x="152" y="784"/>
      <point x="152" y="701" type="curve" smooth="yes"/>
      <point x="152" y="618"/>
      <point x="217" y="558"/>
    </contour>
    <contour>
      <point x="300" y="633" type="curve" smooth="yes"/>
      <point x="267" y="633"/>
      <point x="249" y="652"/>
      <point x="249" y="684" type="curve" smooth="yes"/>
      <point x="249" y="718" type="line" smooth="yes"/>
      <point x="249" y="750"/>
      <point x="267" y="769"/>
      <point x="300" y="769" type="curve" smooth="yes"/>
      <point x="333" y="769"/>
      <point x="351" y="750"/>
      <point x="351" y="718" type="curve" smooth="yes"/>
      <point x="351" y="684" type="line" smooth="yes"/>
      <point x="351" y="652"/>
      <point x="333" y="633"/>
    </contour>
    <contour>
      <point x="300" y="540" type="move" name="_top"/>
    </contour>
  </outline>
</glyph>
<glyph name="year-ar" format="1">
  <advance width="1692"/>
  <unicode hex="0601"/>
  <outline>
    <contour>
      <point x="1547" y="0" type="line" name="hr00"/>
      <point x="1662" y="0" type="line"/>
      <point x="1662" y="77" type="line" smooth="yes"/>
      <point x="1662" y="178"/>
      <point x="1610" y="226"/>
      <point x="1508" y="213" type="curve" smooth="yes"/>
      <point x="1069" y="157" type="line" smooth="yes"/>
      <point x="1028" y="152"/>
      <point x="995" y="149"/>
      <point x="968" y="149" type="curve" smooth="yes"/>
      <point x="913" y="149"/>
      <point x="883" y="158"/>
      <point x="858" y="170" type="curve"/>
      <point x="889" y="235" type="line"/>
      <point x="790" y="283" type="line"/>
      <point x="751" y="202" type="line" smooth="yes"/>
      <point x="732" y="163"/>
      <point x="705" y="150"/>
      <point x="651" y="150" type="curve" smooth="yes"/>
      <point x="631" y="150" type="line" smooth="yes"/>
      <point x="583" y="150"/>
      <point x="567" y="168"/>
      <point x="541" y="242" type="curve" smooth="yes"/>
      <point x="523" y="294" type="line" smooth="yes"/>
      <point x="497" y="369"/>
      <point x="462" y="403"/>
      <point x="388" y="403" type="curve" smooth="yes"/>
      <point x="329" y="403"/>
      <point x="277" y="385"/>
      <point x="186" y="333" type="curve" smooth="yes"/>
      <point x="10" y="232" type="line"/>
      <point x="81" y="107" type="line"/>
      <point x="257" y="208" type="line" smooth="yes"/>
      <point x="316" y="241"/>
      <point x="346" y="253"/>
      <point x="372" y="253" type="curve" smooth="yes"/>
      <point x="403" y="253"/>
      <point x="413" y="234"/>
      <point x="428" y="192" type="curve" smooth="yes"/>
      <point x="447" y="140" type="line" smooth="yes"/>
      <point x="485" y="36"/>
      <point x="532" y="0"/>
      <point x="641" y="0" type="curve" smooth="yes"/>
      <point x="709" y="0"/>
      <point x="751" y="13"/>
      <point x="789" y="56" type="curve"/>
      <point x="802" y="48" type="line" smooth="yes"/>
      <point x="851" y="15"/>
      <point x="900" y="0"/>
      <point x="972" y="0" type="curve" smooth="yes"/>
      <point x="1000" y="0"/>
      <point x="1032" y="3"/>
      <point x="1069" y="7" type="curve" smooth="yes"/>
      <point x="1547" y="64" type="line"/>
    </contour>
  </outline>
</glyph>
<glyph name="footnotemarker-ar" format="1">
  <advance width="1177"/>
  <unicode hex="0602"/>
  <outline>
    <contour>
      <point x="212" y="0" type="curve" name="hr00"/>
      <point x="1137" y="0" type="line"/>
      <point x="1137" y="150" type="line"/>
      <point x="447" y="150" type="line"/>
      <point x="440" y="321"/>
      <point x="366" y="423"/>
      <point x="245" y="423" type="curve" smooth="yes"/>
      <point x="128" y="423"/>
      <point x="40" y="319"/>
      <point x="40" y="180" type="curve" smooth="yes"/>
      <point x="40" y="67"/>
      <point x="104" y="0"/>
    </contour>
    <contour>
      <point x="140" y="200" type="curve" smooth="yes"/>
      <point x="140" y="242"/>
      <point x="180" y="273"/>
      <point x="232" y="273" type="curve" smooth="yes"/>
      <point x="298" y="273"/>
      <point x="347" y="225"/>
      <point x="347" y="153" type="curve" smooth="yes"/>
      <point x="347" y="150" type="line"/>
      <point x="222" y="150" type="line" smooth="yes"/>
      <point x="172" y="150"/>
      <point x="140" y="164"/>
    </contour>
  </outline>
</glyph>
<glyph name="pagenumber-ar" format="1">
  <advance width="1375"/>
  <unicode hex="0603"/>
  <outline>
    <contour>
      <point x="60" y="0" type="line" name="hr00"/>
      <point x="458" y="0" type="line" smooth="yes"/>
      <point x="544" y="0"/>
      <point x="587" y="42"/>
      <point x="605" y="135" type="curve"/>
      <point x="611" y="135" type="line"/>
      <point x="629" y="42"/>
      <point x="682" y="0"/>
      <point x="788" y="0" type="curve" smooth="yes"/>
      <point x="1074" y="0" type="line" smooth="yes"/>
      <point x="1257" y="0"/>
      <point x="1340" y="69"/>
      <point x="1340" y="219" type="curve" smooth="yes"/>
      <point x="1340" y="372"/>
      <point x="1261" y="463"/>
      <point x="1104" y="463" type="curve" smooth="yes"/>
      <point x="968" y="463"/>
      <point x="869" y="400"/>
      <point x="776" y="237" type="curve" smooth="yes"/>
      <point x="732" y="161" type="line"/>
      <point x="716" y="172"/>
      <point x="708" y="191"/>
      <point x="708" y="220" type="curve" smooth="yes"/>
      <point x="708" y="283" type="line"/>
      <point x="598" y="283" type="line"/>
      <point x="598" y="220" type="line" smooth="yes"/>
      <point x="598" y="172"/>
      <point x="573" y="150"/>
      <point x="518" y="150" type="curve" smooth="yes"/>
      <point x="60" y="150" type="line"/>
    </contour>
    <contour>
      <point x="863" y="221" type="line" smooth="yes"/>
      <point x="914" y="298"/>
      <point x="969" y="313"/>
      <point x="1089" y="313" type="curve" smooth="yes"/>
      <point x="1119" y="313" type="line" smooth="yes"/>
      <point x="1205" y="313"/>
      <point x="1240" y="285"/>
      <point x="1240" y="228" type="curve" smooth="yes"/>
      <point x="1240" y="165"/>
      <point x="1201" y="150"/>
      <point x="1074" y="150" type="curve" smooth="yes"/>
      <point x="823" y="150" type="line"/>
      <point x="820" y="156" type="line"/>
    </contour>
  </outline>
</glyph>
<glyph name="fourthroot-ar" format="1">
  <advance width="600"/>
  <unicode hex="0607"/>
  <outline>
    <component base="comp.cuberoot-ar"/>
    <component base="fourabove-ar" xOffset="215" yOffset="242"/>
    <contour>
      <point x="350.0" y="881.0" type="move" name="top"/>
    </contour>
  </outline>
</glyph>
<glyph name="ray-ar" format="1">
  <advance width="866"/>
  <unicode hex="0608"/>
  <outline>
    <contour>
      <point x="-62" y="228" type="line" name="hr00"/>
      <point x="91" y="228" type="line"/>
      <point x="68" y="165"/>
      <point x="55" y="96"/>
      <point x="55" y="45" type="curve" smooth="yes"/>
      <point x="55" y="-129"/>
      <point x="172" y="-230"/>
      <point x="396" y="-230" type="curve" smooth="yes"/>
      <point x="623" y="-230"/>
      <point x="718" y="-158"/>
      <point x="734" y="41" type="curve"/>
      <point x="794" y="68"/>
      <point x="851" y="111"/>
      <point x="911" y="174" type="curve"/>
      <point x="831" y="272" type="line"/>
      <point x="799" y="235"/>
      <point x="767" y="209"/>
      <point x="732" y="190" type="curve"/>
      <point x="714" y="337"/>
      <point x="641" y="423"/>
      <point x="530" y="423" type="curve" smooth="yes"/>
      <point x="413" y="423"/>
      <point x="325" y="319"/>
      <point x="325" y="180" type="curve" smooth="yes"/>
      <point x="325" y="67"/>
      <point x="396" y="0"/>
      <point x="517" y="0" type="curve" smooth="yes"/>
      <point x="557" y="0"/>
      <point x="595" y="2"/>
      <point x="630" y="9" type="curve"/>
      <point x="614" y="-47"/>
      <point x="557" y="-68"/>
      <point x="436" y="-68" type="curve" smooth="yes"/>
      <point x="356" y="-68" type="line" smooth="yes"/>
      <point x="230" y="-68"/>
      <point x="155" y="-18"/>
      <point x="155" y="65" type="curve" smooth="yes"/>
      <point x="155" y="107"/>
      <point x="172" y="171"/>
      <point x="198" y="228" type="curve"/>
      <point x="198" y="316" type="line"/>
      <point x="-62" y="316" type="line"/>
    </contour>
    <contour>
      <point x="528" y="150" type="curve"/>
      <point x="507" y="150" type="line" smooth="yes"/>
      <point x="457" y="150"/>
      <point x="425" y="164"/>
      <point x="425" y="200" type="curve" smooth="yes"/>
      <point x="425" y="242"/>
      <point x="465" y="273"/>
      <point x="517" y="273" type="curve" smooth="yes"/>
      <point x="580" y="273"/>
      <point x="629" y="227"/>
      <point x="635" y="157" type="curve"/>
      <point x="603" y="152"/>
      <point x="568" y="150"/>
    </contour>
  </outline>
</glyph>
<glyph name="pertenthousand-ar" format="1">
  <advance width="1066"/>
  <unicode hex="060A"/>
  <outline>
    <contour>
      <point x="20" y="0" type="line" name="hr00"/>
      <point x="152" y="0" type="line"/>
      <point x="578" y="614" type="line"/>
      <point x="446" y="614" type="line"/>
    </contour>
    <contour>
      <point x="30" y="517" type="curve" smooth="yes"/>
      <point x="30" y="451"/>
      <point x="67" y="420"/>
      <point x="118" y="420" type="curve" smooth="yes"/>
      <point x="140" y="420" type="line" smooth="yes"/>
      <point x="191" y="420"/>
      <point x="228" y="451"/>
      <point x="228" y="517" type="curve" smooth="yes"/>
      <point x="228" y="583"/>
      <point x="191" y="614"/>
      <point x="140" y="614" type="curve" smooth="yes"/>
      <point x="118" y="614" type="line" smooth="yes"/>
      <point x="67" y="614"/>
      <point x="30" y="583"/>
    </contour>
    <contour>
      <point x="352" y="85" type="curve" smooth="yes"/>
      <point x="352" y="19"/>
      <point x="389" y="-12"/>
      <point x="440" y="-12" type="curve" smooth="yes"/>
      <point x="462" y="-12" type="line" smooth="yes"/>
      <point x="513" y="-12"/>
      <point x="550" y="19"/>
      <point x="550" y="85" type="curve" smooth="yes"/>
      <point x="550" y="151"/>
      <point x="513" y="182"/>
      <point x="462" y="182" type="curve" smooth="yes"/>
      <point x="440" y="182" type="line" smooth="yes"/>
      <point x="389" y="182"/>
      <point x="352" y="151"/>
    </contour>
    <contour>
      <point x="848" y="85" type="curve" smooth="yes"/>
      <point x="848" y="19"/>
      <point x="885" y="-12"/>
      <point x="936" y="-12" type="curve" smooth="yes"/>
      <point x="958" y="-12" type="line" smooth="yes"/>
      <point x="1009" y="-12"/>
      <point x="1046" y="19"/>
      <point x="1046" y="85" type="curve" smooth="yes"/>
      <point x="1046" y="151"/>
      <point x="1009" y="182"/>
      <point x="958" y="182" type="curve" smooth="yes"/>
      <point x="936" y="182" type="line" smooth="yes"/>
      <point x="885" y="182"/>
      <point x="848" y="151"/>
    </contour>
    <contour>
      <point x="600" y="85" type="curve" smooth="yes"/>
      <point x="600" y="19"/>
      <point x="637" y="-12"/>
      <point x="688" y="-12" type="curve" smooth="yes"/>
      <point x="710" y="-12" type="line" smooth="yes"/>
      <point x="761" y="-12"/>
      <point x="798" y="19"/>
      <point x="798" y="85" type="curve" smooth="yes"/>
      <point x="798" y="151"/>
      <point x="761" y="182"/>
      <point x="710" y="182" type="curve" smooth="yes"/>
      <point x="688" y="182" type="line" smooth="yes"/>
      <point x="637" y="182"/>
      <point x="600" y="151"/>
    </contour>
  </outline>
</glyph>
<glyph name="rehHahabove-ar" format="1">
  <advance width="0"/>
  <unicode hex="0612"/>
  <outline>
    <contour>
      <point x="14" y="283" type="curve"/>
      <point x="88" y="283" type="line"/>
      <point x="88" y="300" type="line" smooth="yes"/>
      <point x="88" y="350"/>
      <point x="109" y="363"/>
      <point x="167" y="379" type="curve" smooth="yes"/>
      <point x="252" y="403" type="line"/>
      <point x="252" y="511" type="line"/>
      <point x="107" y="526" type="line" smooth="yes"/>
      <point x="49" y="532"/>
      <point x="19" y="506"/>
      <point x="19" y="451" type="curve" smooth="yes" name="hr01"/>
      <point x="19" y="422" type="line"/>
      <point x="81" y="422" type="line"/>
      <point x="81" y="447" type="line"/>
      <point x="207" y="441" type="line"/>
      <point x="207" y="438" type="line"/>
      <point x="135" y="419" type="line" smooth="yes"/>
      <point x="51" y="397"/>
      <point x="14" y="345"/>
    </contour>
    <contour>
      <point x="220" y="283" type="line"/>
      <point x="240" y="283" type="line" smooth="yes"/>
      <point x="312" y="283"/>
      <point x="356" y="335"/>
      <point x="356" y="412" type="curve" smooth="yes"/>
      <point x="356" y="435"/>
      <point x="354" y="449"/>
      <point x="347" y="482" type="curve" smooth="yes"/>
      <point x="342" y="506" type="line"/>
      <point x="281" y="492" type="line"/>
      <point x="287" y="468" type="line" smooth="yes"/>
      <point x="294" y="438"/>
      <point x="296" y="427"/>
      <point x="296" y="411" type="curve" smooth="yes"/>
      <point x="296" y="363"/>
      <point x="260" y="363"/>
      <point x="240" y="363" type="curve" smooth="yes"/>
      <point x="220" y="363" type="line"/>
    </contour>
    <contour>
      <point x="184.0" y="283.0" type="move" name="_top"/>
    </contour>
    <contour>
      <point x="185.0" y="527.0" type="move" name="top"/>
    </contour>
  </outline>
</glyph>
<glyph name="takhallusabove-ar" format="1">
  <advance width="0"/>
  <unicode hex="0614"/>
  <outline>
    <contour>
      <point x="349" y="359" type="curve" smooth="yes"/>
      <point x="399" y="359"/>
      <point x="421" y="390"/>
      <point x="421" y="454" type="curve" smooth="yes"/>
      <point x="421" y="467"/>
      <point x="419" y="485"/>
      <point x="415" y="503" type="curve" smooth="yes"/>
      <point x="412" y="517" type="line"/>
      <point x="355" y="507" type="line"/>
      <point x="359" y="486" type="line" smooth="yes"/>
      <point x="361" y="476"/>
      <point x="363" y="464"/>
      <point x="363" y="454" type="curve" smooth="yes"/>
      <point x="363" y="444"/>
      <point x="359" y="440"/>
      <point x="350" y="440" type="curve" smooth="yes"/>
      <point x="340" y="440"/>
      <point x="336" y="447"/>
      <point x="336" y="461" type="curve" smooth="yes"/>
      <point x="336" y="479" type="line"/>
      <point x="277" y="479" type="line"/>
      <point x="277" y="461" type="line" smooth="yes"/>
      <point x="277" y="447"/>
      <point x="272" y="443"/>
      <point x="253" y="443" type="curve" smooth="yes" name="hr01"/>
      <point x="20" y="443" type="line"/>
      <point x="20" y="363" type="line"/>
      <point x="214" y="363" type="line" smooth="yes"/>
      <point x="255" y="363"/>
      <point x="276" y="380"/>
      <point x="280" y="419" type="curve"/>
      <point x="283" y="419" type="line"/>
      <point x="290" y="375"/>
      <point x="312" y="359"/>
    </contour>
    <contour>
      <point x="221.0" y="283.0" type="move" name="_top"/>
    </contour>
    <contour>
      <point x="221.0" y="517.0" type="move" name="top"/>
    </contour>
  </outline>
</glyph>
<glyph name="alefLamYehabove-ar" format="1">
  <advance width="0"/>
  <unicode hex="0616"/>
  <outline>
    <contour>
      <point x="75" y="259" type="curve" name="hr00"/>
      <point x="345" y="259" type="line"/>
      <point x="345" y="339" type="line"/>
      <point x="69" y="339" type="line"/>
      <point x="69" y="341" type="line" smooth="yes"/>
      <point x="69" y="349"/>
      <point x="74" y="353"/>
      <point x="96" y="361" type="curve" smooth="yes"/>
      <point x="155" y="381" type="line" smooth="yes"/>
      <point x="220" y="403"/>
      <point x="242" y="430"/>
      <point x="242" y="488" type="curve" smooth="yes"/>
      <point x="242" y="655" type="line"/>
      <point x="178" y="655" type="line"/>
      <point x="178" y="488" type="line" smooth="yes"/>
      <point x="178" y="475"/>
      <point x="174" y="470"/>
      <point x="157" y="464" type="curve" smooth="yes"/>
      <point x="98" y="444" type="line" smooth="yes"/>
      <point x="41" y="425"/>
      <point x="11" y="393"/>
      <point x="11" y="345" type="curve" smooth="yes"/>
      <point x="11" y="320" type="line" smooth="yes"/>
      <point x="11" y="281"/>
      <point x="36" y="259"/>
    </contour>
    <contour>
      <point x="279" y="363" type="line"/>
      <point x="345" y="363" type="line"/>
      <point x="345" y="655" type="line"/>
      <point x="279" y="655" type="line"/>
    </contour>
    <contour>
      <point x="177.0" y="218.0" type="move" name="_top"/>
    </contour>
    <contour>
      <point x="177.0" y="629.0" type="move" name="top"/>
    </contour>
  </outline>
</glyph>
<glyph name="zainabove-ar" format="1">
  <advance width="0"/>
  <unicode hex="0617"/>
  <outline>
    <contour>
      <point x="-22" y="283" type="line"/>
      <point x="-2" y="283" type="line" smooth="yes"/>
      <point x="70" y="283"/>
      <point x="114" y="335"/>
      <point x="114" y="412" type="curve" smooth="yes"/>
      <point x="114" y="435"/>
      <point x="112" y="449"/>
      <point x="105" y="482" type="curve" smooth="yes"/>
      <point x="100" y="506" type="line"/>
      <point x="39" y="492" type="line"/>
      <point x="45" y="468" type="line" smooth="yes"/>
      <point x="52" y="438"/>
      <point x="54" y="427"/>
      <point x="54" y="411" type="curve" smooth="yes"/>
      <point x="54" y="363"/>
      <point x="18" y="363"/>
      <point x="-2" y="363" type="curve" smooth="yes"/>
      <point x="-22" y="363" type="line"/>
    </contour>
    <contour>
      <point x="50" y="535" type="curve" smooth="yes"/>
      <point x="62" y="535" type="line" smooth="yes"/>
      <point x="78" y="535"/>
      <point x="91" y="546"/>
      <point x="91" y="569" type="curve" smooth="yes" name="hr01"/>
      <point x="91" y="592"/>
      <point x="78" y="602"/>
      <point x="62" y="602" type="curve" smooth="yes"/>
      <point x="50" y="602" type="line" smooth="yes"/>
      <point x="35" y="602"/>
      <point x="21" y="593"/>
      <point x="21" y="569" type="curve" smooth="yes"/>
      <point x="21" y="545"/>
      <point x="35" y="535"/>
    </contour>
    <contour>
      <point x="46.0" y="283.0" type="move" name="_top"/>
    </contour>
    <contour>
      <point x="46.0" y="602.0" type="move" name="top"/>
    </contour>
  </outline>
</glyph>
<glyph name="fathasmall-ar" format="1">
  <advance width="0"/>
  <unicode hex="0618"/>
  <outline>
    <contour>
      <point x="184" y="504" type="line" name="hr00"/>
      <point x="0" y="419" type="line"/>
      <point x="29" y="355" type="line"/>
      <point x="213" y="439" type="line"/>
    </contour>
    <contour>
      <point x="107.0" y="283.0" type="move" name="_top"/>
    </contour>
    <contour>
      <point x="107.0" y="435.0" type="move" name="top"/>
    </contour>
  </outline>
</glyph>
<glyph name="yehKashmiri-ar" format="1">
  <advance width="783"/>
  <unicode hex="0620"/>
  <outline>
    <contour>
      <point x="376" y="-412" type="curve" smooth="yes"/>
      <point x="442" y="-412"/>
      <point x="492" y="-360"/>
      <point x="492" y="-291" type="curve" smooth="yes"/>
      <point x="492" y="-269"/>
      <point x="487" y="-249"/>
      <point x="479" y="-232" type="curve"/>
      <point x="650" y="-205"/>
      <point x="749" y="-106"/>
      <point x="749" y="50" type="curve" smooth="yes"/>
      <point x="749" y="132"/>
      <point x="720" y="174"/>
      <point x="644" y="187" type="curve" smooth="yes"/>
      <point x="519" y="208" type="line" smooth="yes"/>
      <point x="443" y="221"/>
      <point x="407" y="238"/>
      <point x="407" y="275" type="curve" smooth="yes"/>
      <point x="407" y="332"/>
      <point x="470" y="386"/>
      <point x="536" y="386" type="curve" smooth="yes"/>
      <point x="590" y="386"/>
      <point x="626" y="353"/>
      <point x="646" y="318" type="curve"/>
      <point x="753" y="413" type="line"/>
      <point x="714" y="489"/>
      <point x="649" y="536"/>
      <point x="566" y="536" type="curve" smooth="yes"/>
      <point x="415" y="536"/>
      <point x="307" y="374"/>
      <point x="307" y="239" type="curve" smooth="yes"/>
      <point x="307" y="137"/>
      <point x="373" y="81"/>
      <point x="495" y="61" type="curve" smooth="yes"/>
      <point x="648" y="35" type="line"/>
      <point x="638" y="-36"/>
      <point x="553" y="-78"/>
      <point x="416" y="-78" type="curve" smooth="yes"/>
      <point x="336" y="-78" type="line" smooth="yes"/>
      <point x="210" y="-78"/>
      <point x="135" y="-29"/>
      <point x="135" y="54" type="curve" smooth="yes"/>
      <point x="135" y="96"/>
      <point x="152" y="160"/>
      <point x="178" y="217" type="curve"/>
      <point x="82" y="245" type="line"/>
      <point x="53" y="175"/>
      <point x="35" y="93"/>
      <point x="35" y="34" type="curve" smooth="yes"/>
      <point x="35" y="-108"/>
      <point x="123" y="-203"/>
      <point x="274" y="-231" type="curve"/>
      <point x="265" y="-249"/>
      <point x="260" y="-269"/>
      <point x="260" y="-291" type="curve" smooth="yes" name="hr01"/>
      <point x="260" y="-360"/>
      <point x="310" y="-412"/>
    </contour>
    <contour>
      <point x="376" y="-342" type="curve" smooth="yes"/>
      <point x="344" y="-342"/>
      <point x="320" y="-321"/>
      <point x="320" y="-291" type="curve" smooth="yes"/>
      <point x="320" y="-261"/>
      <point x="344" y="-240"/>
      <point x="376" y="-240" type="curve" smooth="yes"/>
      <point x="408" y="-240"/>
      <point x="432" y="-261"/>
      <point x="432" y="-291" type="curve" smooth="yes"/>
      <point x="432" y="-321"/>
      <point x="408" y="-342"/>
    </contour>
  </outline>
</glyph>
<glyph name="alefMadda-ar" format="1">
  <advance width="260"/>
  <unicode hex="0622"/>
  <outline>
    <component base="madda-ar" xOffset="-40" yOffset="335"/>
    <component base="alef-ar.short"/>
    <contour>
      <point x="130.0" y="0.0" type="move" name="bottom"/>
    </contour>
    <contour>
      <point x="130.0" y="832.0" type="move" name="top"/>
    </contour>
  </outline>
</glyph>
<glyph name="alefHamzabelow-ar" format="1">
  <advance width="240"/>
  <unicode hex="0625"/>
  <outline>
    <component base="alef-ar"/>
    <component base="hamzabelow-ar" xOffset="3" yOffset="-630"/>
    <contour>
      <point x="120.0" y="0.0" type="move" name="bottom"/>
    </contour>
    <contour>
      <point x="344.0" y="489.0" type="move" name="high"/>
    </contour>
    <contour>
      <point x="120.0" y="740.0" type="move" name="top"/>
    </contour>
  </outline>
</glyph>
<glyph name="khah-ar" format="1">
  <advance width="636"/>
  <unicode hex="062E"/>
  <outline>
    <component base="hah-ar"/>
    <component base="dotabove-ar" xOffset="248" yOffset="217"/>
    <contour>
      <point x="339.0" y="-304.0" type="move" name="bottom"/>
    </contour>
    <contour>
      <point x="334.0" y="9.0" type="move" name="center"/>
    </contour>
    <contour>
      <point x="327.0" y="500.0" type="move" name="top"/>
    </contour>
  </outline>
</glyph>
<glyph name="dal-ar" format="1">
  <advance width="510"/>
  <unicode hex="062F"/>
  <outline>
    <contour>
      <point x="174" y="0" type="curve" smooth="yes" name="hr00"/>
      <point x="288" y="0" type="line" smooth="yes"/>
      <point x="406" y="0"/>
      <point x="475" y="75"/>
      <point x="475" y="202" type="curve" smooth="yes"/>
      <point x="475" y="301"/>
      <point x="439" y="369"/>
      <point x="340" y="467" type="curve" smooth="yes"/>
      <point x="259" y="547" type="line"/>
      <point x="157" y="437" type="line"/>
      <point x="256" y="345" type="line" smooth="yes"/>
      <point x="335" y="271"/>
      <point x="365" y="234"/>
      <point x="365" y="202" type="curve" smooth="yes"/>
      <point x="365" y="166"/>
      <point x="344" y="150"/>
      <point x="298" y="150" type="curve" smooth="yes"/>
      <point x="145" y="150" type="line"/>
      <point x="145" y="214" type="line"/>
      <point x="30" y="214" type="line"/>
      <point x="30" y="147" type="line" smooth="yes"/>
      <point x="30" y="45"/>
      <point x="81" y="0"/>
    </contour>
    <contour>
      <point x="253.0" y="0.0" type="move" name="bottom"/>
    </contour>
    <contour>
      <point x="263.0" y="0.0" type="move" name="ring"/>
    </contour>
    <contour>
      <point x="249.0" y="525.0" type="move" name="top"/>
    </contour>
  </outline>
</glyph>
<glyph name="reh-ar" format="1">
  <advance width="299"/>
  <unicode hex="0631"/>
  <outline>
    <contour>
      <point x="-60" y="-240" type="line" name="hr00"/>
      <point x="-19" y="-240" type="line" smooth="yes"/>
      <point x="166" y="-240"/>
      <point x="264" y="-117"/>
      <point x="264" y="75" type="curve" smooth="yes"/>
      <point x="264" y="109"/>
      <point x="258" y="167"/>
      <point x="247" y="230" type="curve" smooth="yes"/>
      <point x="232" y="323" type="line"/>
      <point x="123" y="306" type="line"/>
      <point x="144" y="173" type="line" smooth="yes"/>
      <point x="150" y="134"/>
      <point x="155" y="100"/>
      <point x="155" y="70" type="curve" smooth="yes"/>
      <point x="155" y="-44"/>
      <point x="100" y="-90"/>
      <point x="-20" y="-90" type="curve" smooth="yes"/>
      <point x="-60" y="-90" type="line"/>
    </contour>
    <contour>
      <point x="210.0" y="-8.0" type="move" name="bar"/>
    </contour>
    <contour>
      <point x="40.0" y="-240.0" type="move" name="bottom"/>
    </contour>
    <contour>
      <point x="102.0" y="-224.0" type="move" name="ring"/>
    </contour>
    <contour>
      <point x="164.0" y="323.0" type="move" name="top"/>
    </contour>
  </outline>
</glyph>
<glyph name="sad-ar" format="1">
  <advance width="1305"/>
  <unicode hex="0635"/>
  <outline>
    <contour>
      <point x="346" y="-240" type="curve" smooth="yes" name="hr00"/>
      <point x="530" y="-240"/>
      <point x="628" y="-163"/>
      <point x="651" y="0" type="curve"/>
      <point x="1004" y="0" type="line" smooth="yes"/>
      <point x="1187" y="0"/>
      <point x="1270" y="69"/>
      <point x="1270" y="219" type="curve" smooth="yes"/>
      <point x="1270" y="372"/>
      <point x="1191" y="463"/>
      <point x="1034" y="463" type="curve" smooth="yes"/>
      <point x="898" y="463"/>
      <point x="799" y="400"/>
      <point x="706" y="237" type="curve" smooth="yes"/>
      <point x="656" y="150" type="line"/>
      <point x="653" y="150" type="line"/>
      <point x="650" y="178"/>
      <point x="645" y="206"/>
      <point x="640" y="232" type="curve" smooth="yes"/>
      <point x="630" y="284" type="line"/>
      <point x="522" y="263" type="line"/>
      <point x="533" y="211" type="line" smooth="yes"/>
      <point x="546" y="150"/>
      <point x="551" y="103"/>
      <point x="551" y="83" type="curve" smooth="yes"/>
      <point x="551" y="-27"/>
      <point x="499" y="-78"/>
      <point x="386" y="-78" type="curve" smooth="yes"/>
      <point x="306" y="-78" type="line" smooth="yes"/>
      <point x="199" y="-78"/>
      <point x="135" y="-29"/>
      <point x="135" y="54" type="curve" smooth="yes"/>
      <point x="135" y="96"/>
      <point x="152" y="160"/>
      <point x="178" y="217" type="curve"/>
      <point x="82" y="245" type="line"/>
      <point x="53" y="175"/>
      <point x="35" y="93"/>
      <point x="35" y="34" type="curve" smooth="yes"/>
      <point x="35" y="-139"/>
      <point x="142" y="-240"/>
    </contour>
    <contour>
      <point x="1004" y="150" type="curve"/>
      <point x="753" y="150" type="line"/>
      <point x="750" y="156" type="line"/>
      <point x="793" y="221" type="line" smooth="yes"/>
      <point x="844" y="298"/>
      <point x="899" y="313"/>
      <point x="1019" y="313" type="curve" smooth="yes"/>
      <point x="1049" y="313" type="line" smooth="yes"/>
      <point x="1135" y="313"/>
      <point x="1170" y="285"/>
      <point x="1170" y="228" type="curve" smooth="yes"/>
      <point x="1170" y="165"/>
      <point x="1131" y="150"/>
    </contour>
    <contour>
      <point x="346.0" y="-240.0" type="move" name="bottom"/>
    </contour>
    <contour>
      <point x="1004.0" y="463.0" type="move" name="top"/>
    </contour>
  </outline>
</glyph>
<glyph name="yehVinverted-farsi" format="1">
  <advance width="783"/>
  <unicode hex="063D"/>
  <outline>
    <component base="alefMaksura-ar"/>
    <component base="vinvertedabove-ar" xOffset="-19" yOffset="-66"/>
    <contour>
      <point x="376.0" y="-240.0" type="move" name="bottom"/>
    </contour>
    <contour>
      <point x="566.0" y="536.0" type="move" name="high"/>
    </contour>
    <contour>
      <point x="376.0" y="-240.0" type="move" name="ring"/>
    </contour>
    <contour>
      <point x="178.0" y="217.0" type="move" name="tail"/>
    </contour>
    <contour>
      <point x="130.0" y="217.0" type="move" name="top"/>
    </contour>
  </outline>
</glyph>
<glyph name="kashida-ar" format="1">
  <advance width="107"/>
  <unicode hex="0640"/>
  <outline>
    <contour>
      <point x="-30" y="0" type="line" name="hr00"/>
      <point x="77" y="0" type="line"/>
      <point x="107" y="30" type="line"/>
      <point x="107" y="150" type="line"/>
      <point x="0" y="150" type="line"/>
      <point x="-30" y="120" type="line"/>
    </contour>
    <contour>
      <point x="54.0" y="0.0" type="move" name="bottom"/>
    </contour>
    <contour>
      <point x="54.0" y="283.0" type="move" name="top"/>
    </contour>
  </outline>
</glyph>
<glyph name="feh-ar" format="1">
  <advance width="944"/>
  <unicode hex="0641"/>
  <outline>
    <component base="fehDotless-ar"/>
    <component base="dotabove-ar" xOffset="623" yOffset="328"/>
    <contour>
      <point x="434.0" y="-12.0" type="move" name="bottom"/>
    </contour>
    <contour>
      <point x="702.0" y="611.0" type="move" name="top"/>
    </contour>
  </outline>
</glyph>
<glyph name="heh-ar" format="1">
  <advance width="462"/>
  <unicode hex="0647"/>
  <outline>
    <contour>
      <point x="231" y="-12" type="curve" smooth="yes" name="hr00"/>
      <point x="364" y="-12"/>
      <point x="442" y="72"/>
      <point x="442" y="213" type="curve" smooth="yes"/>
      <point x="442" y="301"/>
      <point x="408" y="368"/>
      <point x="328" y="436" type="curve" smooth="yes"/>
      <point x="307" y="454" type="line"/>
      <point x="161" y="454" type="line"/>
      <point x="141" y="435" type="line" smooth="yes"/>
      <point x="60" y="358"/>
      <point x="20" y="270"/>
      <point x="20" y="191" type="curve" smooth="yes"/>
      <point x="20" y="63"/>
      <point x="98" y="-12"/>
    </contour>
    <contour>
      <point x="221" y="138" type="line" smooth="yes"/>
      <point x="158" y="138"/>
      <point x="120" y="166"/>
      <point x="120" y="206" type="curve" smooth="yes"/>
      <point x="120" y="239"/>
      <point x="136" y="261"/>
      <point x="182" y="306" type="curve" smooth="yes"/>
      <point x="211" y="334" type="line"/>
      <point x="219" y="334" type="line"/>
      <point x="254" y="307" type="line" smooth="yes"/>
      <point x="326" y="251"/>
      <point x="342" y="225"/>
      <point x="342" y="201" type="curve" smooth="yes"/>
      <point x="342" y="162"/>
      <point x="304" y="138"/>
      <point x="241" y="138" type="curve" smooth="yes"/>
    </contour>
    <contour>
      <point x="219.0" y="0.0" type="move" name="bottom"/>
    </contour>
    <contour>
      <point x="234.0" y="454.0" type="move" name="top"/>
    </contour>
  </outline>
</glyph>
<glyph name="kasratan-ar" format="1">
  <advance width="0"/>
  <unicode hex="064D"/>
  <outline>
    <component base="comp.fatha-ar" yOffset="-153"/>
    <component base="comp.fatha-ar"/>
    <contour>
      <point x="129.0" y="604.0" type="move" name="_bottom"/>
    </contour>
    <contour>
      <point x="129.0" y="245.0" type="move" name="bottom"/>
    </contour>
  </outline>
</glyph>
<glyph name="kasra-ar" format="1">
  <advance width="0"/>
  <unicode hex="0650"/>
  <outline>
    <contour>
      <point x="248" y="534" type="line" name="hr00"/>
      <point x="0" y="419" type="line"/>
      <point x="29" y="355" type="line"/>
      <point x="277" y="469" type="line"/>
    </contour>
    <contour>
      <point x="129.0" y="605.0" type="move" name="_bottom"/>
    </contour>
    <contour>
      <point x="129.0" y="452.0" type="move" name="bottom"/>
    </contour>
  </outline>
</glyph>
<glyph name="sukun-ar" format="1">
  <advance width="0"/>
  <unicode hex="0652"/>
  <outline>
    <contour>
      <point x="131" y="357" type="curve" smooth="yes" name="hr00"/>
      <point x="197" y="357"/>
      <point x="246" y="409"/>
      <point x="246" y="478" type="curve" smooth="yes"/>
      <point x="246" y="547"/>
      <point x="197" y="599"/>
      <point x="130" y="599" type="curve" smooth="yes"/>
      <point x="65" y="599"/>
      <point x="15" y="547"/>
      <point x="15" y="478" type="curve" smooth="yes"/>
      <point x="15" y="409"/>
      <point x="65" y="357"/>
    </contour>
    <contour>
      <point x="124" y="445" type="line" smooth="yes"/>
      <point x="99" y="445"/>
      <point x="85" y="457"/>
      <point x="85" y="478" type="curve" smooth="yes"/>
      <point x="85" y="499"/>
      <point x="99" y="511"/>
      <point x="124" y="511" type="curve" smooth="yes"/>
      <point x="138" y="511" type="line" smooth="yes"/>
      <point x="163" y="511"/>
      <point x="177" y="499"/>
      <point x="177" y="478" type="curve" smooth="yes"/>
      <point x="177" y="457"/>
      <point x="163" y="445"/>
      <point x="138" y="445" type="curve" smooth="yes"/>
    </contour>
    <contour>
      <point x="131.0" y="283.0" type="move" name="_top"/>
    </contour>
    <contour>
      <point x="130.0" y="599.0" type="move" name="top"/>
    </contour>
  </outline>
</glyph>
<glyph name="madda-ar" format="1">
  <advance width="0"/>
  <unicode hex="0653"/>
  <outline>
    <contour>
      <point x="10" y="359" type="line" name="hr00"/>
      <point x="80" y="359" type="line"/>
      <point x="80" y="388" type="line"/>
      <point x="150" y="375" type="line" smooth="yes"/>
      <point x="182" y="369"/>
      <point x="199" y="367"/>
      <point x="218" y="367" type="curve" smooth="yes"/>
      <point x="280" y="367"/>
      <point x="315" y="399"/>
      <point x="329" y="468" type="curve"/>
      <point x="271" y="497" type="line"/>
      <point x="260" y="464"/>
      <point x="249" y="454"/>
      <point x="218" y="454" type="curve" smooth="yes"/>
      <point x="209" y="454"/>
      <point x="195" y="455"/>
      <point x="166" y="461" type="curve" smooth="yes"/>
      <point x="105" y="473" type="line" smooth="yes"/>
      <point x="42" y="485"/>
      <point x="10" y="455"/>
      <point x="10" y="395" type="curve" smooth="yes"/>
    </contour>
    <contour>
      <point x="170.0" y="283.0" type="move" name="_top"/>
    </contour>
    <contour>
      <point x="170.0" y="497.0" type="move" name="top"/>
    </contour>
  </outline>
</glyph>
<glyph name="hamzabelow-ar" format="1">
  <advance width="0"/>
  <unicode hex="0655"/>
  <outline>
    <contour>
      <point x="10" y="363" type="line" name="hr00"/>
      <point x="247" y="363" type="line"/>
      <point x="247" y="451" type="line"/>
      <point x="173" y="451" type="line" smooth="yes"/>
      <point x="126" y="451"/>
      <point x="104" y="461"/>
      <point x="104" y="484" type="curve" smooth="yes"/>
      <point x="104" y="499"/>
      <point x="119" y="511"/>
      <point x="142" y="511" type="curve" smooth="yes"/>
      <point x="162" y="511"/>
      <point x="181" y="503"/>
      <point x="197" y="487" type="curve"/>
      <point x="245" y="554" type="line"/>
      <point x="219" y="582"/>
      <point x="181" y="599"/>
      <point x="142" y="599" type="curve"/>
      <point x="79" y="599"/>
      <point x="33" y="557"/>
      <point x="33" y="502" type="curve" smooth="yes"/>
      <point x="33" y="483"/>
      <point x="40" y="463"/>
      <point x="53" y="449" type="curve"/>
      <point x="52" y="444" type="line"/>
      <point x="10" y="444" type="line"/>
    </contour>
    <contour>
      <point x="117.0" y="630.0" type="move" name="_bottom"/>
    </contour>
    <contour>
      <point x="131.0" y="403.0" type="move" name="bottom"/>
    </contour>
  </outline>
</glyph>
<glyph name="alefbelow-ar" format="1">
  <advance width="0"/>
  <unicode hex="0656"/>
  <outline>
    <component base="comp.alefmini-ar"/>
    <contour>
      <point x="60" y="603" type="move" name="_bottom"/>
    </contour>
    <contour>
      <point x="60" y="363" type="move" name="bottom"/>
    </contour>
  </outline>
</glyph>
<glyph name="dammainverted-ar" format="1">
  <advance width="0"/>
  <unicode hex="0657"/>
  <outline>
    <contour>
      <point x="259" y="665" type="line" name="hr00"/>
      <point x="115" y="599" type="line" smooth="yes"/>
      <point x="47" y="568"/>
      <point x="11" y="521"/>
      <point x="11" y="462" type="curve" smooth="yes"/>
      <point x="11" y="405"/>
      <point x="54" y="363"/>
      <point x="111" y="363" type="curve" smooth="yes"/>
      <point x="169" y="363"/>
      <point x="212" y="408"/>
      <point x="212" y="465" type="curve" smooth="yes"/>
      <point x="212" y="497"/>
      <point x="196" y="525"/>
      <point x="170" y="542" type="curve"/>
      <point x="170" y="547" type="line"/>
      <point x="288" y="601" type="line"/>
    </contour>
    <contour>
      <point x="148" y="462" type="curve" smooth="yes"/>
      <point x="148" y="445"/>
      <point x="133" y="433"/>
      <point x="114" y="433" type="curve" smooth="yes"/>
      <point x="92" y="433"/>
      <point x="76" y="449"/>
      <point x="76" y="470" type="curve" smooth="yes"/>
      <point x="76" y="489"/>
      <point x="83" y="499"/>
      <point x="97" y="509" type="curve"/>
      <point x="115" y="500" type="line" smooth="yes"/>
      <point x="138" y="489"/>
      <point x="148" y="477"/>
    </contour>
    <contour>
      <point x="150.0" y="283.0" type="move" name="_top"/>
    </contour>
    <contour>
      <point x="150.0" y="645.0" type="move" name="top"/>
    </contour>
  </outline>
</glyph>
<glyph name="fathaHorizont-ar" format="1">
  <advance width="0"/>
  <unicode hex="0659"/>
  <outline>
    <contour>
      <point x="10" y="363" type="line" name="hr00"/>
      <point x="247" y="363" type="line"/>
      <point x="247" y="443" type="line"/>
      <point x="10" y="443" type="line"/>
    </contour>
    <contour>
      <point x="129" y="283" type="move" name="_top"/>
    </contour>
    <contour>
      <point x="129" y="443" type="move" name="top"/>
    </contour>
  </outline>
</glyph>
<glyph name="vabove-ar" format="1">
  <advance width="0"/>
  <unicode hex="065A"/>
  <outline>
    <contour>
      <point x="95" y="363" type="line" name="hr00"/>
      <point x="201" y="363" type="line"/>
      <point x="288" y="587" type="line"/>
      <point x="204" y="587" type="line"/>
      <point x="155" y="448" type="line"/>
      <point x="153" y="448" type="line"/>
      <point x="105" y="587" type="line"/>
      <point x="10" y="587" type="line"/>
    </contour>
    <contour>
      <point x="149.0" y="283.0" type="move" name="_top"/>
    </contour>
    <contour>
      <point x="149.0" y="587.0" type="move" name="top"/>
    </contour>
  </outline>
</glyph>
<glyph name="four-ar" format="1">
  <advance width="524"/>
  <unicode hex="0664"/>
  <outline>
    <contour>
      <point x="268" y="-12" type="curve" smooth="yes"/>
      <point x="357" y="-12"/>
      <point x="429" y="9"/>
      <point x="501" y="56" type="curve"/>
      <point x="443" y="181" type="line"/>
      <point x="397" y="150"/>
      <point x="341" y="138"/>
      <point x="268" y="138" type="curve" smooth="yes"/>
      <point x="185" y="138"/>
      <point x="149" y="153"/>
      <point x="149" y="181" type="curve" smooth="yes"/>
      <point x="149" y="213"/>
      <point x="171" y="219"/>
      <point x="216" y="219" type="curve" smooth="yes"/>
      <point x="410" y="219" type="line"/>
      <point x="410" y="366" type="line"/>
      <point x="260" y="366" type="line" smooth="yes"/>
      <point x="221" y="366"/>
      <point x="197" y="378"/>
      <point x="197" y="405" type="curve" smooth="yes" name="hr01"/>
      <point x="197" y="427"/>
      <point x="216" y="439"/>
      <point x="248" y="444" type="curve" smooth="yes"/>
      <point x="427" y="474" type="line"/>
      <point x="401" y="622" type="line"/>
      <point x="253" y="592" type="line" smooth="yes"/>
      <point x="130" y="567"/>
      <point x="72" y="517"/>
      <point x="72" y="419" type="curve" smooth="yes"/>
      <point x="72" y="359"/>
      <point x="106" y="300"/>
      <point x="192" y="284" type="curve"/>
      <point x="192" y="278" type="line"/>
      <point x="93" y="276"/>
      <point x="35" y="231"/>
      <point x="35" y="150" type="curve" smooth="yes" name="hr02"/>
      <point x="35" y="48"/>
      <point x="108" y="-12"/>
    </contour>
  </outline>
</glyph>
<glyph name="six-ar" format="1">
  <advance width="508"/>
  <unicode hex="0666"/>
  <outline>
    <contour>
      <point x="448" y="0" type="line" name="hr00"/>
      <point x="419" y="475" type="line" smooth="yes"/>
      <point x="413" y="573"/>
      <point x="361" y="610"/>
      <point x="278" y="610" type="curve" smooth="yes"/>
      <point x="17" y="610" type="line"/>
      <point x="17" y="460" type="line"/>
      <point x="297" y="460" type="line"/>
      <point x="326" y="0" type="line"/>
    </contour>
  </outline>
</glyph>
<glyph name="seven-ar" format="1">
  <advance width="546"/>
  <unicode hex="0667"/>
  <outline>
    <contour>
      <point x="546" y="610" type="line" name="hr00"/>
      <point x="403" y="610" type="line"/>
      <point x="283" y="144" type="line"/>
      <point x="280" y="144" type="line"/>
      <point x="158" y="610" type="line"/>
      <point x="0" y="610" type="line"/>
      <point x="187" y="0" type="line"/>
      <point x="357" y="0" type="line"/>
    </contour>
  </outline>
</glyph>
<glyph name="eight-ar" format="1">
  <advance width="546"/>
  <unicode hex="0668"/>
  <outline>
    <contour>
      <point x="0" y="0" type="line" name="hr00"/>
      <point x="143" y="0" type="line"/>
      <point x="263" y="466" type="line"/>
      <point x="266" y="466" type="line"/>
      <point x="388" y="0" type="line"/>
      <point x="546" y="0" type="line"/>
      <point x="359" y="610" type="line"/>
      <point x="189" y="610" type="line"/>
    </contour>
  </outline>
</glyph>
<glyph name="percent-ar" format="1">
  <advance width="598"/>
  <unicode hex="066A"/>
  <outline>
    <contour>
      <point x="20" y="0" type="line" name="hr00"/>
      <point x="152" y="0" type="line"/>
      <point x="578" y="614" type="line"/>
      <point x="446" y="614" type="line"/>
    </contour>
    <contour>
      <point x="372" y="85" type="curve" smooth="yes"/>
      <point x="372" y="19"/>
      <point x="409" y="-12"/>
      <point x="460" y="-12" type="curve" smooth="yes"/>
      <point x="482" y="-12" type="line" smooth="yes"/>
      <point x="533" y="-12"/>
      <point x="570" y="19"/>
      <point x="570" y="85" type="curve" smooth="yes"/>
      <point x="570" y="151"/>
      <point x="533" y="182"/>
      <point x="482" y="182" type="curve" smooth="yes"/>
      <point x="460" y="182" type="line" smooth="yes"/>
      <point x="409" y="182"/>
      <point x="372" y="151"/>
    </contour>
    <contour>
      <point x="30" y="517" type="curve" smooth="yes"/>
      <point x="30" y="451"/>
      <point x="67" y="420"/>
      <point x="118" y="420" type="curve" smooth="yes"/>
      <point x="140" y="420" type="line" smooth="yes"/>
      <point x="191" y="420"/>
      <point x="228" y="451"/>
      <point x="228" y="517" type="curve" smooth="yes"/>
      <point x="228" y="583"/>
      <point x="191" y="614"/>
      <point x="140" y="614" type="curve" smooth="yes"/>
      <point x="118" y="614" type="line" smooth="yes"/>
      <point x="67" y="614"/>
      <point x="30" y="583"/>
    </contour>
  </outline>
</glyph>
<glyph name="behDotless-ar" format="1">
  <advance width="883"/>
  <unicode hex="066E"/>
  <outline>
    <contour>
      <point x="431" y="-12" type="curve" smooth="yes" name="hr00"/>
      <point x="769" y="-12"/>
      <point x="853" y="33"/>
      <point x="853" y="211" type="curve" smooth="yes"/>
      <point x="853" y="244"/>
      <point x="848" y="293"/>
      <point x="842" y="329" type="curve" smooth="yes"/>
      <point x="827" y="422" type="line"/>
      <point x="718" y="404" type="line"/>
      <point x="735" y="311" type="line" smooth="yes"/>
      <point x="744" y="261"/>
      <point x="747" y="231"/>
      <point x="747" y="211" type="curve" smooth="yes"/>
      <point x="747" y="166"/>
      <point x="686" y="150"/>
      <point x="511" y="150" type="curve" smooth="yes"/>
      <point x="371" y="150" type="line" smooth="yes"/>
      <point x="199" y="150"/>
      <point x="140" y="176"/>
      <point x="140" y="253" type="curve" smooth="yes"/>
      <point x="140" y="286"/>
      <point x="154" y="330"/>
      <point x="176" y="375" type="curve"/>
      <point x="80" y="403" type="line"/>
      <point x="55" y="341"/>
      <point x="40" y="273"/>
      <point x="40" y="220" type="curve" smooth="yes"/>
      <point x="40" y="48"/>
      <point x="141" y="-12"/>
    </contour>
    <contour>
      <point x="440.0" y="1.0" type="move" name="bottom"/>
    </contour>
    <contour>
      <point x="463.0" y="-12.0" type="move" name="ring"/>
    </contour>
    <contour>
      <point x="440.0" y="283.0" type="move" name="top"/>
    </contour>
  </outline>
</glyph>
<glyph name="qafDotless-ar" format="1">
  <advance width="752"/>
  <unicode hex="066F"/>
  <outline>
    <contour>
      <point x="376" y="-230" type="curve" smooth="yes" name="hr00"/>
      <point x="629" y="-230"/>
      <point x="717" y="-142"/>
      <point x="717" y="113" type="curve" smooth="yes"/>
      <point x="717" y="307"/>
      <point x="640" y="423"/>
      <point x="510" y="423" type="curve" smooth="yes"/>
      <point x="393" y="423"/>
      <point x="305" y="319"/>
      <point x="305" y="180" type="curve" smooth="yes"/>
      <point x="305" y="67"/>
      <point x="369" y="0"/>
      <point x="477" y="0" type="curve" smooth="yes"/>
      <point x="545" y="0"/>
      <point x="590" y="31"/>
      <point x="610" y="99" type="curve"/>
      <point x="616" y="99" type="line"/>
      <point x="616" y="53" type="line" smooth="yes"/>
      <point x="616" y="-37"/>
      <point x="565" y="-68"/>
      <point x="416" y="-68" type="curve" smooth="yes"/>
      <point x="336" y="-68" type="line" smooth="yes"/>
      <point x="210" y="-68"/>
      <point x="135" y="-18"/>
      <point x="135" y="65" type="curve" smooth="yes"/>
      <point x="135" y="107"/>
      <point x="152" y="171"/>
      <point x="178" y="228" type="curve"/>
      <point x="82" y="256" type="line"/>
      <point x="53" y="186"/>
      <point x="35" y="104"/>
      <point x="35" y="45" type="curve" smooth="yes"/>
      <point x="35" y="-129"/>
      <point x="152" y="-230"/>
    </contour>
    <contour>
      <point x="508" y="150" type="curve"/>
      <point x="487" y="150" type="line" smooth="yes"/>
      <point x="437" y="150"/>
      <point x="405" y="164"/>
      <point x="405" y="200" type="curve" smooth="yes"/>
      <point x="405" y="242"/>
      <point x="445" y="273"/>
      <point x="497" y="273" type="curve" smooth="yes"/>
      <point x="558" y="273"/>
      <point x="606" y="230"/>
      <point x="614" y="165" type="curve"/>
      <point x="593" y="154"/>
      <point x="559" y="150"/>
    </contour>
    <contour>
      <point x="376.0" y="-230.0" type="move" name="bottom"/>
    </contour>
    <contour>
      <point x="510.0" y="423.0" type="move" name="top"/>
    </contour>
  </outline>
</glyph>
<glyph name="alefabove-ar" format="1">
  <advance width="0"/>
  <unicode hex="0670"/>
  <outline>
    <contour>
      <point x="25" y="363" type="line" name="hr00"/>
      <point x="95" y="363" type="line"/>
      <point x="95" y="544" type="line"/>
      <point x="25" y="544" type="line"/>
    </contour>
    <contour>
      <point x="60.0" y="283.0" type="move" name="_top"/>
    </contour>
    <contour>
      <point x="60.0" y="544.0" type="move" name="top"/>
    </contour>
  </outline>
</glyph>
<glyph name="alefWavyhamzaabove-ar" format="1">
  <advance width="260"/>
  <unicode hex="0672"/>
  <outline>
    <component base="wavyhamza_above-ar" xOffset="-53" yOffset="335"/>
    <component base="alef-ar.short"/>
    <contour>
      <point x="130.0" y="0.0" type="move" name="bottom"/>
    </contour>
    <contour>
      <point x="110.0" y="894.0" type="move" name="top"/>
    </contour>
  </outline>
</glyph>
<glyph name="alefWavyhamzabelow-ar" format="1">
  <advance width="240"/>
  <unicode hex="0673"/>
  <outline>
    <component base="wavyhamzabelow-ar" xOffset="-43" yOffset="-630"/>
    <component base="alef-ar"/>
    <contour>
      <point x="120.0" y="-302.0" type="move" name="bottom"/>
    </contour>
    <contour>
      <point x="344.0" y="489.0" type="move" name="high"/>
    </contour>
    <contour>
      <point x="120.0" y="740.0" type="move" name="top"/>
    </contour>
  </outline>
</glyph>
<glyph name="tehRing-ar" format="1">
  <advance width="883"/>
  <unicode hex="067C"/>
  <outline>
    <contour>
      <point x="463" y="-184" type="curve" smooth="yes"/>
      <point x="529" y="-184"/>
      <point x="579" y="-132"/>
      <point x="579" y="-63" type="curve" smooth="yes"/>
      <point x="579" y="-43"/>
      <point x="575" y="-24"/>
      <point x="568" y="-8" type="curve"/>
      <point x="792" y="5"/>
      <point x="853" y="60"/>
      <point x="853" y="211" type="curve" smooth="yes"/>
      <point x="853" y="244"/>
      <point x="848" y="293"/>
      <point x="842" y="329" type="curve" smooth="yes"/>
      <point x="827" y="422" type="line"/>
      <point x="718" y="404" type="line"/>
      <point x="735" y="311" type="line" smooth="yes"/>
      <point x="744" y="261"/>
      <point x="747" y="231"/>
      <point x="747" y="211" type="curve" smooth="yes"/>
      <point x="747" y="166"/>
      <point x="686" y="150"/>
      <point x="511" y="150" type="curve" smooth="yes"/>
      <point x="371" y="150" type="line" smooth="yes"/>
      <point x="199" y="150"/>
      <point x="140" y="176"/>
      <point x="140" y="253" type="curve" smooth="yes"/>
      <point x="140" y="286"/>
      <point x="154" y="330"/>
      <point x="176" y="375" type="curve"/>
      <point x="80" y="403" type="line"/>
      <point x="55" y="341"/>
      <point x="40" y="273"/>
      <point x="40" y="220" type="curve" smooth="yes"/>
      <point x="40" y="63"/>
      <point x="124" y="0"/>
      <point x="357" y="-10" type="curve"/>
      <point x="351" y="-26"/>
      <point x="347" y="-44"/>
      <point x="347" y="-63" type="curve" smooth="yes"/>
      <point x="347" y="-132"/>
      <point x="397" y="-184"/>
    </contour>
    <contour>
      <point x="351" y="363" type="curve"/>
      <point x="371" y="363" type="line" smooth="yes"/>
      <point x="405" y="363"/>
      <point x="430" y="383"/>
      <point x="430" y="430" type="curve" smooth="yes" name="hr01"/>
      <point x="430" y="477"/>
      <point x="405" y="497"/>
      <point x="371" y="497" type="curve" smooth="yes"/>
      <point x="351" y="497" type="line" smooth="yes"/>
      <point x="317" y="497"/>
      <point x="292" y="477"/>
      <point x="292" y="430" type="curve" smooth="yes"/>
      <point x="292" y="383"/>
      <point x="317" y="363"/>
    </contour>
    <contour>
      <point x="509" y="363" type="curve"/>
      <point x="529" y="363" type="line" smooth="yes"/>
      <point x="563" y="363"/>
      <point x="588" y="383"/>
      <point x="588" y="430" type="curve" smooth="yes"/>
      <point x="588" y="477"/>
      <point x="563" y="497"/>
      <point x="529" y="497" type="curve" smooth="yes"/>
      <point x="509" y="497" type="line" smooth="yes"/>
      <point x="475" y="497"/>
      <point x="450" y="477"/>
      <point x="450" y="430" type="curve" smooth="yes"/>
      <point x="450" y="383"/>
      <point x="475" y="363"/>
    </contour>
    <contour>
      <point x="463" y="-114" type="curve" smooth="yes"/>
      <point x="431" y="-114"/>
      <point x="407" y="-93"/>
      <point x="407" y="-63" type="curve" smooth="yes" name="hr02"/>
      <point x="407" y="-33"/>
      <point x="431" y="-12"/>
      <point x="463" y="-12" type="curve" smooth="yes"/>
      <point x="495" y="-12"/>
      <point x="519" y="-33"/>
      <point x="519" y="-63" type="curve" smooth="yes"/>
      <point x="519" y="-93"/>
      <point x="495" y="-114"/>
    </contour>
  </outline>
</glyph>
<glyph name="tehThreedotsdown-ar" format="1">
  <advance width="883"/>
  <unicode hex="067D"/>
  <outline>
    <component base="behDotless-ar"/>
    <component base="threedotsdownabove-ar" xOffset="282"/>
    <contour>
      <point x="440.0" y="1.0" type="move" name="bottom"/>
    </contour>
    <contour>
      <point x="463.0" y="-12.0" type="move" name="ring"/>
    </contour>
    <contour>
      <point x="440.0" y="643.0" type="move" name="top"/>
    </contour>
  </outline>
</glyph>
<glyph name="peh-ar" format="1">
  <advance width="883"/>
  <unicode hex="067E"/>
  <outline>
    <component base="behDotless-ar"/>
    <component base="threedotsdownbelow-ar" xOffset="282" yOffset="-724"/>
    <contour>
      <point x="440.0" y="1.0" type="move" name="bottom"/>
    </contour>
    <contour>
      <point x="463.0" y="-12.0" type="move" name="ring"/>
    </contour>
    <contour>
      <point x="440.0" y="283.0" type="move" name="top"/>
    </contour>
  </outline>
</glyph>
<glyph name="hahTwodotsverticalabove-ar" format="1">
  <advance width="636"/>
  <unicode hex="0682"/>
  <outline>
    <component base="hah-ar"/>
    <component base="twodotsverticalabove-ar" xOffset="90" yOffset="217"/>
    <contour>
      <point x="339.0" y="-304.0" type="move" name="bottom"/>
    </contour>
    <contour>
      <point x="334.0" y="9.0" type="move" name="center"/>
    </contour>
    <contour>
      <point x="327.0" y="500.0" type="move" name="top"/>
    </contour>
  </outline>
</glyph>
<glyph name="tcheheh-ar" format="1">
  <advance width="636"/>
  <unicode hex="0687"/>
  <outline>
    <contour>
      <point x="337" y="-304" type="curve" smooth="yes"/>
      <point x="463" y="-304"/>
      <point x="585" y="-255"/>
      <point x="666" y="-174" type="curve"/>
      <point x="591" y="-56" type="line"/>
      <point x="527" y="-118"/>
      <point x="437" y="-154"/>
      <point x="346" y="-154" type="curve" smooth="yes"/>
      <point x="186" y="-154"/>
      <point x="134" y="-104"/>
      <point x="134" y="-11" type="curve" smooth="yes"/>
      <point x="134" y="1" type="line" smooth="yes"/>
      <point x="134" y="98"/>
      <point x="201" y="134"/>
      <point x="387" y="184" type="curve" smooth="yes"/>
      <point x="610" y="244" type="line"/>
      <point x="610" y="471" type="line"/>
      <point x="219" y="495" type="line" smooth="yes"/>
      <point x="103" y="502"/>
      <point x="54" y="454"/>
      <point x="54" y="353" type="curve" smooth="yes" name="hr01"/>
      <point x="54" y="278" type="line"/>
      <point x="169" y="278" type="line"/>
      <point x="169" y="349" type="line"/>
      <point x="524" y="341" type="line"/>
      <point x="524" y="335" type="line"/>
      <point x="325" y="273" type="line" smooth="yes"/>
      <point x="118" y="208"/>
      <point x="23" y="115"/>
      <point x="23" y="-25" type="curve" smooth="yes" name="hr02"/>
      <point x="23" y="-200"/>
      <point x="140" y="-304"/>
    </contour>
    <contour>
      <point x="389" y="-107" type="curve" smooth="yes"/>
      <point x="405" y="-107" type="line" smooth="yes"/>
      <point x="432" y="-107"/>
      <point x="452" y="-91"/>
      <point x="452" y="-53" type="curve" smooth="yes"/>
      <point x="452" y="-15"/>
      <point x="432" y="1"/>
      <point x="405" y="1" type="curve" smooth="yes"/>
      <point x="389" y="1" type="line" smooth="yes"/>
      <point x="362" y="1"/>
      <point x="342" y="-15"/>
      <point x="342" y="-53" type="curve" smooth="yes"/>
      <point x="342" y="-91"/>
      <point x="362" y="-107"/>
    </contour>
    <contour>
      <point x="389" y="17" type="curve" smooth="yes"/>
      <point x="405" y="17" type="line" smooth="yes"/>
      <point x="432" y="17"/>
      <point x="452" y="33"/>
      <point x="452" y="70" type="curve" smooth="yes"/>
      <point x="452" y="108"/>
      <point x="432" y="124"/>
      <point x="405" y="124" type="curve" smooth="yes"/>
      <point x="389" y="124" type="line" smooth="yes"/>
      <point x="362" y="124"/>
      <point x="342" y="108"/>
      <point x="342" y="70" type="curve" smooth="yes"/>
      <point x="342" y="33"/>
      <point x="362" y="17"/>
    </contour>
    <contour>
      <point x="263" y="-107" type="curve" smooth="yes"/>
      <point x="279" y="-107" type="line" smooth="yes"/>
      <point x="306" y="-107"/>
      <point x="326" y="-91"/>
      <point x="326" y="-53" type="curve" smooth="yes"/>
      <point x="326" y="-15"/>
      <point x="306" y="1"/>
      <point x="279" y="1" type="curve" smooth="yes"/>
      <point x="263" y="1" type="line" smooth="yes"/>
      <point x="236" y="1"/>
      <point x="216" y="-15"/>
      <point x="216" y="-53" type="curve" smooth="yes"/>
      <point x="216" y="-91"/>
      <point x="236" y="-107"/>
    </contour>
    <contour>
      <point x="263" y="17" type="curve" smooth="yes"/>
      <point x="279" y="17" type="line" smooth="yes"/>
      <point x="306" y="17"/>
      <point x="326" y="33"/>
      <point x="326" y="70" type="curve" smooth="yes"/>
      <point x="326" y="108"/>
      <point x="306" y="124"/>
      <point x="279" y="124" type="curve" smooth="yes"/>
      <point x="263" y="124" type="line" smooth="yes"/>
      <point x="236" y="124"/>
      <point x="216" y="108"/>
      <point x="216" y="70" type="curve" smooth="yes"/>
      <point x="216" y="33"/>
      <point x="236" y="17"/>
    </contour>
  </outline>
</glyph>
<glyph name="rehv-ar" format="1">
  <advance width="299"/>
  <unicode hex="0692"/>
  <outline>
    <component base="reh-ar"/>
    <component base="vabove-ar" xOffset="15" yOffset="40"/>
    <contour>
      <point x="40.0" y="-240.0" type="move" name="bottom"/>
    </contour>
    <contour>
      <point x="102.0" y="-224.0" type="move" name="ring"/>
    </contour>
    <contour>
      <point x="164.0" y="627.0" type="move" name="top"/>
    </contour>
  </outline>
</glyph>
<glyph name="rehRing-ar" format="1">
  <advance width="299"/>
  <unicode hex="0693"/>
  <outline>
    <contour>
      <point x="102" y="-396" type="curve" smooth="yes"/>
      <point x="168" y="-396"/>
      <point x="218" y="-344"/>
      <point x="218" y="-275" type="curve" smooth="yes"/>
      <point x="218" y="-233"/>
      <point x="200" y="-197"/>
      <point x="171" y="-175" type="curve"/>
      <point x="232" y="-121"/>
      <point x="264" y="-34"/>
      <point x="264" y="75" type="curve" smooth="yes" name="hr01"/>
      <point x="264" y="109"/>
      <point x="258" y="167"/>
      <point x="247" y="230" type="curve" smooth="yes"/>
      <point x="232" y="323" type="line"/>
      <point x="123" y="306" type="line"/>
      <point x="144" y="173" type="line" smooth="yes"/>
      <point x="150" y="134"/>
      <point x="155" y="100"/>
      <point x="155" y="70" type="curve" smooth="yes"/>
      <point x="155" y="-44"/>
      <point x="100" y="-90"/>
      <point x="-20" y="-90" type="curve" smooth="yes"/>
      <point x="-60" y="-90" type="line"/>
      <point x="-60" y="-240" type="line"/>
      <point x="-19" y="-240" type="line"/>
      <point x="-9" y="-240" type="line"/>
      <point x="-12" y="-251"/>
      <point x="-14" y="-263"/>
      <point x="-14" y="-275" type="curve" smooth="yes"/>
      <point x="-14" y="-344"/>
      <point x="36" y="-396"/>
    </contour>
    <contour>
      <point x="102" y="-326" type="curve" smooth="yes"/>
      <point x="70" y="-326"/>
      <point x="46" y="-305"/>
      <point x="46" y="-275" type="curve" smooth="yes"/>
      <point x="46" y="-245"/>
      <point x="70" y="-224"/>
      <point x="102" y="-224" type="curve" smooth="yes"/>
      <point x="134" y="-224"/>
      <point x="158" y="-245"/>
      <point x="158" y="-275" type="curve" smooth="yes" name="hr02"/>
      <point x="158" y="-305"/>
      <point x="134" y="-326"/>
    </contour>
  </outline>
</glyph>
<glyph name="rehDotbelow-ar" format="1">
  <advance width="299"/>
  <unicode hex="0694"/>
  <outline>
    <component base="dotbelow-ar" xOffset="-39" yOffset="-819"/>
    <component base="reh-ar"/>
    <contour>
      <point x="40.0" y="-456.0" type="move" name="bottom"/>
    </contour>
    <contour>
      <point x="102.0" y="-224.0" type="move" name="ring"/>
    </contour>
    <contour>
      <point x="164.0" y="323.0" type="move" name="top"/>
    </contour>
  </outline>
</glyph>
<glyph name="rehVbelow-ar" format="1">
  <advance width="299"/>
  <unicode hex="0695"/>
  <outline>
    <component base="vbelow-ar" xOffset="-109" yOffset="-910"/>
    <component base="reh-ar"/>
    <contour>
      <point x="40.0" y="-547.0" type="move" name="bottom"/>
    </contour>
    <contour>
      <point x="102.0" y="-224.0" type="move" name="ring"/>
    </contour>
    <contour>
      <point x="164.0" y="323.0" type="move" name="top"/>
    </contour>
  </outline>
</glyph>
<glyph name="sadTwodotsbelow-ar" format="1">
  <advance width="1305"/>
  <unicode hex="069D"/>
  <outline>
    <component base="sad-ar"/>
    <component base="twodotshorizontalbelow-ar" xOffset="188" yOffset="-819"/>
    <contour>
      <point x="346.0" y="-456.0" type="move" name="bottom"/>
    </contour>
    <contour>
      <point x="346.0" y="-240.0" type="move" name="ring"/>
    </contour>
    <contour>
      <point x="1004.0" y="463.0" type="move" name="top"/>
    </contour>
    <contour>
      <point x="681.0" y="150.0" type="move" name="verticalbar"/>
    </contour>
  </outline>
</glyph>
<glyph name="sadThreedots-ar" format="1">
  <advance width="1305"/>
  <unicode hex="069E"/>
  <outline>
    <component base="sad-ar"/>
    <component base="threedotsupabove-ar" xOffset="846" yOffset="180"/>
    <contour>
      <point x="346.0" y="-240.0" type="move" name="bottom"/>
    </contour>
    <contour>
      <point x="346.0" y="-240.0" type="move" name="ring"/>
    </contour>
    <contour>
      <point x="1004.0" y="823.0" type="move" name="top"/>
    </contour>
    <contour>
      <point x="681.0" y="150.0" type="move" name="verticalbar"/>
    </contour>
  </outline>
</glyph>
<glyph name="tahThreedots-ar" format="1">
  <advance width="764"/>
  <unicode hex="069F"/>
  <outline>
    <component base="tah-ar"/>
    <component base="threedotsupabove-ar" xOffset="305" yOffset="180"/>
    <contour>
      <point x="382.0" y="0.0" type="move" name="bottom"/>
    </contour>
    <contour>
      <point x="463.0" y="823.0" type="move" name="top"/>
    </contour>
    <contour>
      <point x="140.0" y="150.0" type="move" name="verticalbar"/>
    </contour>
  </outline>
</glyph>
<glyph name="fehThreedotsbelow-ar" format="1">
  <advance width="944"/>
  <unicode hex="06A5"/>
  <outline>
    <component base="fehDotless-ar"/>
    <component base="threedotsdownbelow-ar" xOffset="276" yOffset="-737"/>
    <contour>
      <point x="434.0" y="-12.0" type="move" name="bottom"/>
    </contour>
    <contour>
      <point x="702.0" y="611.0" type="move" name="top"/>
    </contour>
  </outline>
</glyph>
<glyph name="qafDotabove-ar" format="1">
  <advance width="752"/>
  <unicode hex="06A7"/>
  <outline>
    <component base="qafDotless-ar"/>
    <component base="dotabove-ar" xOffset="431" yOffset="140"/>
    <contour>
      <point x="376.0" y="-230.0" type="move" name="bottom"/>
    </contour>
    <contour>
      <point x="510.0" y="637.0" type="move" name="top"/>
    </contour>
  </outline>
</glyph>
<glyph name="qafThreedotsabove-ar" format="1">
  <advance width="752"/>
  <unicode hex="06A8"/>
  <outline>
    <component base="qafDotless-ar"/>
    <component base="threedotsupabove-ar" xOffset="352" yOffset="140"/>
    <contour>
      <point x="376.0" y="-230.0" type="move" name="bottom"/>
    </contour>
    <contour>
      <point x="510.0" y="423.0" type="move" name="top"/>
    </contour>
  </outline>
</glyph>
<glyph name="keheh-ar" format="1">
  <advance width="901"/>
  <unicode hex="06A9"/>
  <outline>
    <contour>
      <point x="431" y="-12" type="curve" smooth="yes" name="hr00"/>
      <point x="744" y="-12"/>
      <point x="853" y="44"/>
      <point x="853" y="206" type="curve" smooth="yes"/>
      <point x="853" y="296"/>
      <point x="812" y="350"/>
      <point x="692" y="417" type="curve" smooth="yes"/>
      <point x="581" y="479" type="line"/>
      <point x="581" y="485" type="line"/>
      <point x="1011" y="620" type="line"/>
      <point x="1011" y="752" type="line"/>
      <point x="531" y="600" type="line"/>
      <point x="531" y="336" type="line"/>
      <point x="692" y="249" type="line" smooth="yes"/>
      <point x="741" y="222"/>
      <point x="753" y="209"/>
      <point x="753" y="195" type="curve" smooth="yes"/>
      <point x="753" y="159"/>
      <point x="705" y="150"/>
      <point x="511" y="150" type="curve" smooth="yes"/>
      <point x="371" y="150" type="line" smooth="yes"/>
      <point x="199" y="150"/>
      <point x="140" y="176"/>
      <point x="140" y="253" type="curve" smooth="yes"/>
      <point x="140" y="286"/>
      <point x="154" y="330"/>
      <point x="176" y="375" type="curve"/>
      <point x="80" y="403" type="line"/>
      <point x="55" y="341"/>
      <point x="40" y="273"/>
      <point x="40" y="220" type="curve" smooth="yes"/>
      <point x="40" y="48"/>
      <point x="141" y="-12"/>
    </contour>
    <contour>
      <point x="431.0" y="0.0" type="move" name="bottom"/>
    </contour>
    <contour>
      <point x="531.0" y="600.0" type="move" name="kafbar"/>
    </contour>
    <contour>
      <point x="826.0" y="558.0" type="move" name="ring"/>
    </contour>
    <contour>
      <point x="680.0" y="698.0" type="move" name="top"/>
    </contour>
  </outline>
</glyph>
<glyph name="kafswash-ar" format="1">
  <advance width="953"/>
  <unicode hex="06AA"/>
  <outline>
    <contour>
      <point x="10" y="0" type="line" name="hr00"/>
      <point x="828" y="0" type="line"/>
      <point x="918" y="136" type="line"/>
      <point x="918" y="156" type="line" smooth="yes"/>
      <point x="918" y="346"/>
      <point x="838" y="433"/>
      <point x="663" y="433" type="curve" smooth="yes"/>
      <point x="156" y="433" type="line"/>
      <point x="156" y="439" type="line"/>
      <point x="593" y="617" type="line"/>
      <point x="593" y="752" type="line"/>
      <point x="106" y="554" type="line"/>
      <point x="106" y="283" type="line"/>
      <point x="663" y="283" type="line" smooth="yes"/>
      <point x="769" y="283"/>
      <point x="818" y="243"/>
      <point x="818" y="156" type="curve" smooth="yes"/>
      <point x="818" y="150" type="line"/>
      <point x="10" y="150" type="line"/>
    </contour>
  </outline>
</glyph>
<glyph name="ng-ar" format="1">
  <advance width="796"/>
  <unicode hex="06AD"/>
  <outline>
    <component base="kaf-ar"/>
    <component base="threedotsupabove-ar" xOffset="206" yOffset="283"/>
    <contour>
      <point x="358.0" y="0.0" type="move" name="bottom"/>
    </contour>
    <contour>
      <point x="364.0" y="926.0" type="move" name="top"/>
    </contour>
  </outline>
</glyph>
<glyph name="kafThreedotsbelow-ar" format="1">
  <advance width="796"/>
  <unicode hex="06AE"/>
  <outline>
    <component base="kaf-ar"/>
    <component base="threedotsdownbelow-ar" xOffset="200" yOffset="-725"/>
    <contour>
      <point x="358.0" y="0.0" type="move" name="bottom"/>
    </contour>
    <contour>
      <point x="364.0" y="566.0" type="move" name="top"/>
    </contour>
  </outline>
</glyph>
<glyph name="gaf-ar" format="1">
  <advance width="901"/>
  <unicode hex="06AF"/>
  <outline>
    <component base="keheh-ar"/>
    <component base="comp.kafbar-ar" xOffset="511" yOffset="70"/>
    <contour>
      <point x="431.0" y="0.0" type="move" name="bottom"/>
    </contour>
    <contour>
      <point x="826.0" y="558.0" type="move" name="ring"/>
    </contour>
    <contour>
      <point x="680.0" y="698.0" type="move" name="top"/>
    </contour>
  </outline>
</glyph>
<glyph name="gafThreedots-ar" format="1">
  <advance width="901"/>
  <unicode hex="06B4"/>
  <outline>
    <component base="keheh-ar"/>
    <component base="comp.kafbar-ar" xOffset="511" yOffset="70"/>
    <component base="threedotsupabove-ar" xOffset="373" yOffset="485"/>
    <contour>
      <point x="431.0" y="0.0" type="move" name="bottom"/>
    </contour>
    <contour>
      <point x="826.0" y="558.0" type="move" name="ring"/>
    </contour>
    <contour>
      <point x="680.0" y="698.0" type="move" name="top"/>
    </contour>
  </outline>
</glyph>
<glyph name="lamThreedotsabove-ar" format="1">
  <advance width="677"/>
  <unicode hex="06B7"/>
  <outline>
    <component base="lam-ar"/>
    <component base="threedotsupabove-ar" xOffset="118" yOffset="242"/>
    <contour>
      <point x="316.0" y="-240.0" type="move" name="bottom"/>
    </contour>
    <contour>
      <point x="276.0" y="885.0" type="move" name="top"/>
    </contour>
  </outline>
</glyph>
<glyph name="lamThreedotsbelow-ar" format="1">
  <advance width="677"/>
  <unicode hex="06B8"/>
  <outline>
    <component base="lam-ar"/>
    <component base="threedotsdownbelow-ar" xOffset="158" yOffset="-965"/>
    <contour>
      <point x="316.0" y="-602.0" type="move" name="bottom"/>
    </contour>
    <contour>
      <point x="276.0" y="525.0" type="move" name="top"/>
    </contour>
  </outline>
</glyph>
<glyph name="noonghunna-ar" format="1">
  <advance width="692"/>
  <unicode hex="06BA"/>
  <outline>
    <contour>
      <point x="346" y="-162" type="curve" smooth="yes" name="hr00"/>
      <point x="559" y="-162"/>
      <point x="657" y="-60"/>
      <point x="657" y="161" type="curve" smooth="yes"/>
      <point x="657" y="202"/>
      <point x="650" y="266"/>
      <point x="641" y="310" type="curve" smooth="yes"/>
      <point x="622" y="402" type="line"/>
      <point x="514" y="381" type="line"/>
      <point x="534" y="288" type="line" smooth="yes"/>
      <point x="543" y="246"/>
      <point x="551" y="191"/>
      <point x="551" y="161" type="curve" smooth="yes"/>
      <point x="551" y="51"/>
      <point x="499" y="0"/>
      <point x="386" y="0" type="curve" smooth="yes"/>
      <point x="306" y="0" type="line" smooth="yes"/>
      <point x="199" y="0"/>
      <point x="135" y="49"/>
      <point x="135" y="132" type="curve" smooth="yes"/>
      <point x="135" y="174"/>
      <point x="152" y="238"/>
      <point x="178" y="295" type="curve"/>
      <point x="82" y="323" type="line"/>
      <point x="53" y="253"/>
      <point x="35" y="171"/>
      <point x="35" y="112" type="curve" smooth="yes"/>
      <point x="35" y="-61"/>
      <point x="142" y="-162"/>
    </contour>
    <contour>
      <point x="346.0" y="-162.0" type="move" name="bottom"/>
    </contour>
    <contour>
      <point x="346.0" y="295.0" type="move" name="top"/>
    </contour>
  </outline>
</glyph>
<glyph name="rnoon-ar" format="1">
  <advance width="692"/>
  <unicode hex="06BB"/>
  <outline>
    <component base="noonghunna-ar"/>
    <component base="tahabove-ar" xOffset="181" yOffset="12"/>
    <contour>
      <point x="346.0" y="-162.0" type="move" name="bottom"/>
    </contour>
    <contour>
      <point x="346.0" y="295.0" type="move" name="top"/>
    </contour>
  </outline>
</glyph>
<glyph name="noonRing-ar" format="1">
  <advance width="692"/>
  <unicode hex="06BC"/>
  <outline>
    <contour>
      <point x="346" y="-334" type="curve" smooth="yes"/>
      <point x="412" y="-334"/>
      <point x="462" y="-282"/>
      <point x="462" y="-213" type="curve" smooth="yes"/>
      <point x="462" y="-190"/>
      <point x="457" y="-170"/>
      <point x="448" y="-152" type="curve"/>
      <point x="590" y="-122"/>
      <point x="657" y="-21"/>
      <point x="657" y="161" type="curve" smooth="yes"/>
      <point x="657" y="202"/>
      <point x="650" y="266"/>
      <point x="641" y="310" type="curve" smooth="yes"/>
      <point x="622" y="402" type="line"/>
      <point x="514" y="381" type="line"/>
      <point x="534" y="288" type="line" smooth="yes"/>
      <point x="543" y="246"/>
      <point x="551" y="191"/>
      <point x="551" y="161" type="curve" smooth="yes"/>
      <point x="551" y="51"/>
      <point x="499" y="0"/>
      <point x="386" y="0" type="curve" smooth="yes"/>
      <point x="306" y="0" type="line" smooth="yes"/>
      <point x="199" y="0"/>
      <point x="135" y="49"/>
      <point x="135" y="132" type="curve" smooth="yes"/>
      <point x="135" y="174"/>
      <point x="152" y="238"/>
      <point x="178" y="295" type="curve"/>
      <point x="82" y="323" type="line"/>
      <point x="53" y="253"/>
      <point x="35" y="171"/>
      <point x="35" y="112" type="curve" smooth="yes"/>
      <point x="35" y="-29"/>
      <point x="106" y="-122"/>
      <point x="244" y="-152" type="curve"/>
      <point x="235" y="-169"/>
      <point x="230" y="-190"/>
      <point x="230" y="-213" type="curve" smooth="yes"/>
      <point x="230" y="-282"/>
      <point x="280" y="-334"/>
    </contour>
    <contour>
      <point x="336" y="375" type="curve"/>
      <point x="356" y="375" type="line" smooth="yes"/>
      <point x="390" y="375"/>
      <point x="415" y="395"/>
      <point x="415" y="442" type="curve" smooth="yes" name="hr01"/>
      <point x="415" y="489"/>
      <point x="390" y="509"/>
      <point x="356" y="509" type="curve" smooth="yes"/>
      <point x="336" y="509" type="line" smooth="yes"/>
      <point x="302" y="509"/>
      <point x="277" y="489"/>
      <point x="277" y="442" type="curve" smooth="yes"/>
      <point x="277" y="395"/>
      <point x="302" y="375"/>
    </contour>
    <contour>
      <point x="346" y="-264" type="curve" smooth="yes"/>
      <point x="314" y="-264"/>
      <point x="290" y="-243"/>
      <point x="290" y="-213" type="curve" smooth="yes" name="hr02"/>
      <point x="290" y="-183"/>
      <point x="314" y="-162"/>
      <point x="346" y="-162" type="curve" smooth="yes"/>
      <point x="378" y="-162"/>
      <point x="402" y="-183"/>
      <point x="402" y="-213" type="curve" smooth="yes"/>
      <point x="402" y="-243"/>
      <point x="378" y="-264"/>
    </contour>
  </outline>
</glyph>
<glyph name="hehgoal-ar" format="1">
  <advance width="462"/>
  <unicode hex="06C1"/>
  <outline>
    <component base="heh-ar"/>
    <contour>
      <point x="219.0" y="0.0" type="move" name="bottom"/>
    </contour>
    <contour>
      <point x="234.0" y="454.0" type="move" name="top"/>
    </contour>
  </outline>
</glyph>
<glyph name="wawring-ar" format="1">
  <advance width="483"/>
  <unicode hex="06C4"/>
  <outline>
    <contour>
      <point x="30" y="-240" type="line" name="hr00"/>
      <point x="104" y="-240" type="line" smooth="yes"/>
      <point x="329" y="-240"/>
      <point x="448" y="-105"/>
      <point x="448" y="123" type="curve" smooth="yes"/>
      <point x="448" y="311"/>
      <point x="371" y="423"/>
      <point x="241" y="423" type="curve" smooth="yes"/>
      <point x="124" y="423"/>
      <point x="36" y="319"/>
      <point x="36" y="180" type="curve" smooth="yes"/>
      <point x="36" y="113"/>
      <point x="58" y="62"/>
      <point x="99" y="32" type="curve"/>
      <point x="77" y="14"/>
      <point x="64" y="-13"/>
      <point x="64" y="-46" type="curve" smooth="yes"/>
      <point x="64" y="-62"/>
      <point x="67" y="-77"/>
      <point x="73" y="-90" type="curve"/>
      <point x="30" y="-90" type="line"/>
    </contour>
    <contour>
      <point x="239" y="150" type="curve"/>
      <point x="218" y="150" type="line" smooth="yes"/>
      <point x="168" y="150"/>
      <point x="136" y="164"/>
      <point x="136" y="200" type="curve" smooth="yes"/>
      <point x="136" y="242"/>
      <point x="176" y="273"/>
      <point x="228" y="273" type="curve" smooth="yes"/>
      <point x="292" y="273"/>
      <point x="341" y="230"/>
      <point x="346" y="165" type="curve"/>
      <point x="325" y="154"/>
      <point x="291" y="150"/>
    </contour>
    <contour>
      <point x="341" y="99" type="curve"/>
      <point x="347" y="99" type="line"/>
      <point x="347" y="73" type="line" smooth="yes"/>
      <point x="347" y="12"/>
      <point x="315" y="-37"/>
      <point x="248" y="-65" type="curve"/>
      <point x="250" y="-59"/>
      <point x="250" y="-52"/>
      <point x="250" y="-46" type="curve" smooth="yes"/>
      <point x="250" y="-28"/>
      <point x="246" y="-11"/>
      <point x="239" y="2" type="curve"/>
      <point x="290" y="11"/>
      <point x="324" y="42"/>
    </contour>
    <contour>
      <point x="157" y="-86" type="curve" smooth="yes"/>
      <point x="131" y="-86"/>
      <point x="112" y="-70"/>
      <point x="112" y="-46" type="curve" smooth="yes"/>
      <point x="112" y="-22"/>
      <point x="131" y="-5"/>
      <point x="157" y="-5" type="curve" smooth="yes"/>
      <point x="182" y="-5"/>
      <point x="202" y="-22"/>
      <point x="202" y="-46" type="curve" smooth="yes"/>
      <point x="202" y="-70"/>
      <point x="182" y="-86"/>
    </contour>
  </outline>
</glyph>
<glyph name="yehTail-ar" format="1">
  <advance width="783"/>
  <unicode hex="06CD"/>
  <outline>
    <contour>
      <point x="-82" y="217" type="line" name="hr00"/>
      <point x="71" y="217" type="line"/>
      <point x="48" y="154"/>
      <point x="35" y="85"/>
      <point x="35" y="34" type="curve" smooth="yes"/>
      <point x="35" y="-138"/>
      <point x="162" y="-240"/>
      <point x="376" y="-240" type="curve" smooth="yes"/>
      <point x="610" y="-240"/>
      <point x="749" y="-135"/>
      <point x="749" y="50" type="curve" smooth="yes"/>
      <point x="749" y="132"/>
      <point x="720" y="174"/>
      <point x="644" y="187" type="curve" smooth="yes"/>
      <point x="519" y="208" type="line" smooth="yes"/>
      <point x="443" y="221"/>
      <point x="407" y="238"/>
      <point x="407" y="275" type="curve" smooth="yes"/>
      <point x="407" y="332"/>
      <point x="470" y="386"/>
      <point x="536" y="386" type="curve" smooth="yes"/>
      <point x="590" y="386"/>
      <point x="626" y="353"/>
      <point x="646" y="318" type="curve"/>
      <point x="753" y="413" type="line"/>
      <point x="714" y="489"/>
      <point x="649" y="536"/>
      <point x="566" y="536" type="curve" smooth="yes"/>
      <point x="415" y="536"/>
      <point x="307" y="374"/>
      <point x="307" y="239" type="curve" smooth="yes"/>
      <point x="307" y="137"/>
      <point x="373" y="81"/>
      <point x="495" y="61" type="curve" smooth="yes"/>
      <point x="648" y="35" type="line"/>
      <point x="638" y="-36"/>
      <point x="553" y="-78"/>
      <point x="416" y="-78" type="curve" smooth="yes"/>
      <point x="336" y="-78" type="line" smooth="yes"/>
      <point x="210" y="-78"/>
      <point x="135" y="-29"/>
      <point x="135" y="54" type="curve" smooth="yes"/>
      <point x="135" y="96"/>
      <point x="152" y="160"/>
      <point x="178" y="217" type="curve"/>
      <point x="178" y="305" type="line"/>
      <point x="-82" y="305" type="line"/>
    </contour>
    <contour>
      <point x="48.0" y="261.0" type="move" name="_bar"/>
    </contour>
    <contour>
      <point x="376.0" y="-240.0" type="move" name="bottom"/>
    </contour>
    <contour>
      <point x="566.0" y="536.0" type="move" name="high"/>
    </contour>
    <contour>
      <point x="376.0" y="-240.0" type="move" name="ring"/>
    </contour>
    <contour>
      <point x="130.0" y="217.0" type="move" name="top"/>
    </contour>
  </outline>
</glyph>
<glyph name="yehThreedotsbelow-ar" format="1">
  <advance width="783"/>
  <unicode hex="06D1"/>
  <outline>
    <component base="alefMaksura-ar"/>
    <component base="threedotsdownbelow-ar" xOffset="218" yOffset="-965"/>
    <contour>
      <point x="376.0" y="-240.0" type="move" name="bottom"/>
    </contour>
    <contour>
      <point x="566.0" y="536.0" type="move" name="high"/>
    </contour>
    <contour>
      <point x="376.0" y="-240.0" type="move" name="ring"/>
    </contour>
    <contour>
      <point x="178.0" y="217.0" type="move" name="tail"/>
    </contour>
    <contour>
      <point x="130.0" y="217.0" type="move" name="top"/>
    </contour>
  </outline>
</glyph>
<glyph name="fullstop-ar" format="1">
  <advance width="316"/>
  <unicode hex="06D4"/>
  <outline>
    <contour>
      <point x="296" y="150" type="line" name="hr00"/>
      <point x="194" y="150" type="line" smooth="yes"/>
      <point x="131" y="150"/>
      <point x="102" y="155"/>
      <point x="50" y="176" type="curve"/>
      <point x="0" y="60" type="line"/>
      <point x="57" y="15"/>
      <point x="107" y="0"/>
      <point x="194" y="0" type="curve" smooth="yes"/>
      <point x="296" y="0" type="line"/>
    </contour>
  </outline>
</glyph>
<glyph name="meemabove-ar" format="1">
  <advance width="0"/>
  <unicode hex="06D8"/>
  <outline>
    <contour>
      <point x="227" y="330" type="line" name="hr00"/>
      <point x="278" y="406" type="line"/>
      <point x="278" y="411" type="line" smooth="yes"/>
      <point x="278" y="483"/>
      <point x="248" y="530"/>
      <point x="196" y="530" type="curve" smooth="yes"/>
      <point x="156" y="530"/>
      <point x="132" y="500"/>
      <point x="120" y="471" type="curve" smooth="yes"/>
      <point x="112" y="453" type="line" smooth="yes"/>
      <point x="104" y="434"/>
      <point x="95" y="427"/>
      <point x="64" y="419" type="curve" smooth="yes"/>
      <point x="-22" y="397" type="line"/>
      <point x="-4" y="319" type="line"/>
      <point x="72" y="338" type="line" smooth="yes"/>
      <point x="97" y="344"/>
      <point x="110" y="351"/>
      <point x="120" y="365" type="curve"/>
    </contour>
    <contour>
      <point x="181" y="458" type="curve" smooth="yes"/>
      <point x="204" y="458"/>
      <point x="221" y="440"/>
      <point x="221" y="418" type="curve" smooth="yes"/>
      <point x="221" y="413" type="line"/>
      <point x="152" y="437" type="line"/>
      <point x="158" y="449"/>
      <point x="170" y="458"/>
    </contour>
    <contour>
      <point x="128.0" y="283.0" type="move" name="_top"/>
    </contour>
    <contour>
      <point x="128.0" y="530.0" type="move" name="top"/>
    </contour>
  </outline>
</glyph>
<glyph name="jeemabove-ar" format="1">
  <advance width="0"/>
  <unicode hex="06DA"/>
  <outline>
    <contour>
      <point x="134" y="249" type="curve" smooth="yes"/>
      <point x="187" y="249"/>
      <point x="239" y="270"/>
      <point x="274" y="300" type="curve"/>
      <point x="234" y="365" type="line"/>
      <point x="211" y="346"/>
      <point x="174" y="330"/>
      <point x="139" y="330" type="curve" smooth="yes"/>
      <point x="67" y="330"/>
      <point x="65" y="357"/>
      <point x="65" y="370" type="curve" smooth="yes"/>
      <point x="65" y="374" type="line" smooth="yes"/>
      <point x="65" y="407"/>
      <point x="87" y="416"/>
      <point x="167" y="436" type="curve" smooth="yes"/>
      <point x="251" y="457" type="line"/>
      <point x="251" y="565" type="line"/>
      <point x="105" y="577" type="line" smooth="yes"/>
      <point x="43" y="582"/>
      <point x="15" y="555"/>
      <point x="15" y="502" type="curve" smooth="yes" name="hr01"/>
      <point x="15" y="474" type="line"/>
      <point x="78" y="474" type="line"/>
      <point x="78" y="498" type="line"/>
      <point x="206" y="495" type="line"/>
      <point x="206" y="492" type="line"/>
      <point x="133" y="476" type="line" smooth="yes"/>
      <point x="51" y="458"/>
      <point x="6" y="412"/>
      <point x="6" y="361" type="curve" smooth="yes" name="hr02"/>
      <point x="6" y="291"/>
      <point x="52" y="249"/>
    </contour>
    <contour>
      <point x="131" y="343" type="curve"/>
      <point x="141" y="343" type="line" smooth="yes"/>
      <point x="157" y="343"/>
      <point x="171" y="354"/>
      <point x="171" y="377" type="curve" smooth="yes"/>
      <point x="171" y="401"/>
      <point x="157" y="412"/>
      <point x="141" y="412" type="curve" smooth="yes"/>
      <point x="131" y="412" type="line" smooth="yes"/>
      <point x="115" y="412"/>
      <point x="101" y="401"/>
      <point x="101" y="377" type="curve" smooth="yes"/>
      <point x="101" y="355"/>
      <point x="114" y="343"/>
    </contour>
    <contour>
      <point x="140.0" y="157.0" type="move" name="_top"/>
    </contour>
    <contour>
      <point x="140.0" y="578.0" type="move" name="top"/>
    </contour>
  </outline>
</glyph>
<glyph name="seenabove-ar" format="1">
  <advance width="0"/>
  <unicode hex="06DC"/>
  <outline>
    <component base="comp.seenSmall-ar"/>
    <contour>
      <point x="240.0" y="249.0" type="move" name="_top"/>
    </contour>
    <contour>
      <point x="240.0" y="517.0" type="move" name="top"/>
    </contour>
  </outline>
</glyph>
<glyph name="endofayah-ar" format="1">
  <advance width="1120"/>
  <unicode hex="06DD"/>
  <outline>
    <contour>
      <point x="560" y="-240" type="curve" smooth="yes" name="hr00"/>
      <point x="851" y="-240"/>
      <point x="1070" y="-21"/>
      <point x="1070" y="270" type="curve" smooth="yes"/>
      <point x="1070" y="561"/>
      <point x="851" y="780"/>
      <point x="560" y="780" type="curve" smooth="yes"/>
      <point x="269" y="780"/>
      <point x="50" y="561"/>
      <point x="50" y="270" type="curve" smooth="yes"/>
      <point x="50" y="-21"/>
      <point x="269" y="-240"/>
    </contour>
    <contour>
      <point x="550" y="-90" type="curve" smooth="yes"/>
      <point x="570" y="-90" type="line" smooth="yes"/>
      <point x="604" y="-90"/>
      <point x="629" y="-70"/>
      <point x="629" y="-23" type="curve" smooth="yes"/>
      <point x="629" y="24"/>
      <point x="604" y="44"/>
      <point x="570" y="44" type="curve" smooth="yes"/>
      <point x="550" y="44" type="line" smooth="yes"/>
      <point x="516" y="44"/>
      <point x="491" y="24"/>
      <point x="491" y="-23" type="curve" smooth="yes"/>
      <point x="491" y="-70"/>
      <point x="516" y="-90"/>
    </contour>
    <contour>
      <point x="540" y="-130" type="line" smooth="yes"/>
      <point x="289" y="-130"/>
      <point x="140" y="19"/>
      <point x="140" y="270" type="curve" smooth="yes"/>
      <point x="140" y="521"/>
      <point x="289" y="670"/>
      <point x="540" y="670" type="curve" smooth="yes"/>
      <point x="580" y="670" type="line" smooth="yes"/>
      <point x="831" y="670"/>
      <point x="980" y="521"/>
      <point x="980" y="270" type="curve" smooth="yes"/>
      <point x="980" y="19"/>
      <point x="831" y="-130"/>
      <point x="580" y="-130" type="curve" smooth="yes"/>
    </contour>
    <contour>
      <point x="550" y="496" type="curve" smooth="yes"/>
      <point x="570" y="496" type="line" smooth="yes"/>
      <point x="604" y="496"/>
      <point x="629" y="516"/>
      <point x="629" y="563" type="curve" smooth="yes"/>
      <point x="629" y="610"/>
      <point x="604" y="630"/>
      <point x="570" y="630" type="curve" smooth="yes"/>
      <point x="550" y="630" type="line" smooth="yes"/>
      <point x="516" y="630"/>
      <point x="491" y="610"/>
      <point x="491" y="563" type="curve" smooth="yes"/>
      <point x="491" y="516"/>
      <point x="516" y="496"/>
    </contour>
  </outline>
</glyph>
<glyph name="sukunoval-ar" format="1">
  <advance width="0"/>
  <unicode hex="06E0"/>
  <outline>
    <contour>
      <point x="131" y="361" type="curve" smooth="yes" name="hr00"/>
      <point x="203" y="361"/>
      <point x="246" y="412"/>
      <point x="246" y="498" type="curve" smooth="yes"/>
      <point x="246" y="584"/>
      <point x="203" y="635"/>
      <point x="131" y="635" type="curve" smooth="yes"/>
      <point x="58" y="635"/>
      <point x="15" y="584"/>
      <point x="15" y="498" type="curve" smooth="yes"/>
      <point x="15" y="412"/>
      <point x="58" y="361"/>
    </contour>
    <contour>
      <point x="131" y="435" type="curve" smooth="yes"/>
      <point x="97" y="435"/>
      <point x="85" y="451"/>
      <point x="85" y="498" type="curve" smooth="yes"/>
      <point x="85" y="545"/>
      <point x="97" y="561"/>
      <point x="131" y="561" type="curve" smooth="yes"/>
      <point x="165" y="561"/>
      <point x="177" y="545"/>
      <point x="177" y="498" type="curve" smooth="yes"/>
      <point x="177" y="451"/>
      <point x="165" y="435"/>
    </contour>
    <contour>
      <point x="131.0" y="283.0" type="move" name="_top"/>
    </contour>
    <contour>
      <point x="131.0" y="635.0" type="move" name="top"/>
    </contour>
  </outline>
</glyph>
<glyph name="hahabove-ar" format="1">
  <advance width="0"/>
  <unicode hex="06E1"/>
  <outline>
    <contour>
      <point x="20" y="363" type="line" name="hr00"/>
      <point x="61" y="363" type="line" smooth="yes"/>
      <point x="108" y="363"/>
      <point x="142" y="373"/>
      <point x="232" y="415" type="curve" smooth="yes"/>
      <point x="287" y="441" type="line"/>
      <point x="286" y="509" type="line"/>
      <point x="149" y="544" type="line" smooth="yes"/>
      <point x="125" y="550"/>
      <point x="110" y="554"/>
      <point x="94" y="554" type="curve" smooth="yes"/>
      <point x="48" y="554"/>
      <point x="30" y="524"/>
      <point x="30" y="482" type="curve" smooth="yes"/>
      <point x="30" y="467" type="line"/>
      <point x="91" y="467" type="line"/>
      <point x="91" y="480" type="line"/>
      <point x="204" y="458" type="line"/>
      <point x="204" y="455" type="line"/>
      <point x="167" y="450" type="line" smooth="yes"/>
      <point x="146" y="447"/>
      <point x="118" y="444"/>
      <point x="61" y="444" type="curve" smooth="yes"/>
      <point x="20" y="444" type="line"/>
    </contour>
    <contour>
      <point x="148.0" y="283.0" type="move" name="_top"/>
    </contour>
    <contour>
      <point x="148.0" y="554.0" type="move" name="top"/>
    </contour>
  </outline>
</glyph>
<glyph name="seenbelow-ar" format="1">
  <advance width="0"/>
  <unicode hex="06E3"/>
  <outline>
    <component base="comp.seenSmall-ar"/>
    <contour>
      <point x="240.0" y="610.0" type="move" name="_bottom"/>
    </contour>
    <contour>
      <point x="240.0" y="275.0" type="move" name="bottom"/>
    </contour>
  </outline>
</glyph>
<glyph name="yehbelow-ar" format="1">
  <advance width="354"/>
  <unicode hex="06E6"/>
  <outline>
    <component base="comp.yehSmall-ar"/>
    <contour>
      <point x="175.0" y="698.0" type="move" name="_bottom"/>
    </contour>
    <contour>
      <point x="175.0" y="363.0" type="move" name="bottom"/>
    </contour>
  </outline>
</glyph>
<glyph name="noonabove-ar" format="1">
  <advance width="0"/>
  <unicode hex="06E8"/>
  <outline>
    <contour>
      <point x="126" y="566" type="curve" smooth="yes" name="hr00"/>
      <point x="136" y="566" type="line" smooth="yes"/>
      <point x="151" y="566"/>
      <point x="165" y="575"/>
      <point x="165" y="600" type="curve" smooth="yes"/>
      <point x="165" y="623"/>
      <point x="152" y="633"/>
      <point x="136" y="633" type="curve" smooth="yes"/>
      <point x="126" y="633" type="line" smooth="yes"/>
      <point x="109" y="633"/>
      <point x="95" y="622"/>
      <point x="95" y="600" type="curve" smooth="yes"/>
      <point x="95" y="578"/>
      <point x="108" y="566"/>
    </contour>
    <contour>
      <point x="133" y="353" type="curve" smooth="yes"/>
      <point x="221" y="353"/>
      <point x="261" y="393"/>
      <point x="261" y="480" type="curve" smooth="yes"/>
      <point x="261" y="507"/>
      <point x="257" y="525"/>
      <point x="252" y="550" type="curve" smooth="yes"/>
      <point x="247" y="574" type="line"/>
      <point x="186" y="560" type="line"/>
      <point x="192" y="536" type="line" smooth="yes"/>
      <point x="199" y="508"/>
      <point x="201" y="496"/>
      <point x="201" y="480" type="curve" smooth="yes"/>
      <point x="201" y="451"/>
      <point x="189" y="441"/>
      <point x="156" y="441" type="curve" smooth="yes"/>
      <point x="110" y="441" type="line" smooth="yes"/>
      <point x="85" y="441"/>
      <point x="70" y="453"/>
      <point x="70" y="474" type="curve" smooth="yes"/>
      <point x="70" y="487"/>
      <point x="77" y="510"/>
      <point x="85" y="527" type="curve"/>
      <point x="27" y="542" type="line"/>
      <point x="17" y="516"/>
      <point x="10" y="484"/>
      <point x="10" y="460" type="curve" smooth="yes"/>
      <point x="10" y="393"/>
      <point x="52" y="353"/>
    </contour>
    <contour>
      <point x="140.0" y="144.0" type="move" name="_top"/>
    </contour>
    <contour>
      <point x="139.0" y="529.0" type="move" name="top"/>
    </contour>
  </outline>
</glyph>
<glyph name="rhombusStopbelow-ar" format="1">
  <advance width="0"/>
  <unicode hex="06EA"/>
  <outline>
    <contour>
      <point x="157" y="616" type="line" name="hr00"/>
      <point x="30" y="489" type="line"/>
      <point x="157" y="362" type="line"/>
      <point x="285" y="489" type="line"/>
    </contour>
    <contour>
      <point x="157" y="531" type="line"/>
      <point x="200" y="489" type="line"/>
      <point x="157" y="447" type="line"/>
      <point x="115" y="489" type="line"/>
    </contour>
    <contour>
      <point x="157.0" y="698.0" type="move" name="_bottom"/>
    </contour>
    <contour>
      <point x="158.0" y="363.0" type="move" name="bottom"/>
    </contour>
  </outline>
</glyph>
<glyph name="four-persian" format="1">
  <advance width="591"/>
  <unicode hex="06F4"/>
  <outline>
    <contour>
      <point x="182" y="610" type="line"/>
      <point x="60" y="610" type="line"/>
      <point x="99" y="0" type="line"/>
      <point x="221" y="0" type="line"/>
      <point x="205" y="249" type="line"/>
      <point x="566" y="249" type="line"/>
      <point x="566" y="389" type="line"/>
      <point x="431" y="389" type="line" smooth="yes"/>
      <point x="381" y="389"/>
      <point x="351" y="407"/>
      <point x="351" y="437" type="curve" smooth="yes"/>
      <point x="351" y="465"/>
      <point x="372" y="482"/>
      <point x="400" y="482" type="curve" smooth="yes" name="hr01"/>
      <point x="432" y="482"/>
      <point x="455" y="466"/>
      <point x="470" y="438" type="curve"/>
      <point x="567" y="523" type="line"/>
      <point x="532" y="585"/>
      <point x="474" y="622"/>
      <point x="408" y="622" type="curve" smooth="yes"/>
      <point x="311" y="622"/>
      <point x="241" y="557"/>
      <point x="241" y="470" type="curve" smooth="yes"/>
      <point x="241" y="448"/>
      <point x="244" y="424"/>
      <point x="262" y="393" type="curve"/>
      <point x="260" y="389" type="line" name="hr02"/>
      <point x="196" y="389" type="line"/>
    </contour>
  </outline>
</glyph>
<glyph name="five-persian" format="1">
  <advance width="599"/>
  <unicode hex="06F5"/>
  <outline>
    <contour>
      <point x="152" y="-12" type="curve" smooth="yes" name="hr00"/>
      <point x="212" y="-12"/>
      <point x="244" y="34"/>
      <point x="255" y="135" type="curve"/>
      <point x="261" y="135" type="line"/>
      <point x="276" y="34"/>
      <point x="322" y="-12"/>
      <point x="412" y="-12" type="curve" smooth="yes"/>
      <point x="512" y="-12"/>
      <point x="569" y="76"/>
      <point x="569" y="204" type="curve" smooth="yes"/>
      <point x="569" y="318"/>
      <point x="501" y="453"/>
      <point x="386" y="592" type="curve" smooth="yes"/>
      <point x="371" y="610" type="line"/>
      <point x="225" y="610" type="line"/>
      <point x="210" y="591" type="line" smooth="yes"/>
      <point x="97" y="447"/>
      <point x="30" y="308"/>
      <point x="30" y="174" type="curve" smooth="yes"/>
      <point x="30" y="57"/>
      <point x="77" y="-12"/>
    </contour>
    <contour>
      <point x="198" y="136" type="curve" smooth="yes"/>
      <point x="159" y="136"/>
      <point x="138" y="159"/>
      <point x="138" y="214" type="curve" smooth="yes"/>
      <point x="138" y="288"/>
      <point x="182" y="375"/>
      <point x="254" y="462" type="curve" smooth="yes"/>
      <point x="277" y="490" type="line"/>
      <point x="285" y="490" type="line"/>
      <point x="312" y="463" type="line" smooth="yes"/>
      <point x="405" y="370"/>
      <point x="461" y="284"/>
      <point x="461" y="204" type="curve" smooth="yes"/>
      <point x="461" y="161"/>
      <point x="442" y="140"/>
      <point x="407" y="140" type="curve" smooth="yes"/>
      <point x="373" y="140"/>
      <point x="358" y="165"/>
      <point x="358" y="220" type="curve" smooth="yes"/>
      <point x="358" y="283" type="line"/>
      <point x="248" y="283" type="line"/>
      <point x="248" y="220" type="line" smooth="yes"/>
      <point x="248" y="162"/>
      <point x="232" y="136"/>
    </contour>
  </outline>
</glyph>
<glyph name="dadDotbelow-ar" format="1">
  <advance width="1305"/>
  <unicode hex="06FB"/>
  <outline>
    <component base="sad-ar"/>
    <component base="dotabove-ar" xOffset="925" yOffset="180"/>
    <component base="dotbelow-ar" xOffset="267" yOffset="-819"/>
    <contour>
      <point x="346.0" y="-240.0" type="move" name="bottom"/>
    </contour>
    <contour>
      <point x="1004.0" y="463.0" type="move" name="top"/>
    </contour>
  </outline>
</glyph>
<glyph name="ghainDotbelow-ar" format="1">
  <advance width="651"/>
  <unicode hex="06FC"/>
  <outline>
    <component base="ain-ar"/>
    <component base="dotabove-ar" xOffset="256" yOffset="361"/>
    <component base="dotcenter-ar" xOffset="272" yOffset="-430"/>
    <contour>
      <point x="341.0" y="-304.0" type="move" name="bottom"/>
    </contour>
    <contour>
      <point x="351.0" y="0.0" type="move" name="center"/>
    </contour>
    <contour>
      <point x="335.0" y="644.0" type="move" name="top"/>
    </contour>
  </outline>
</glyph>
<glyph name="sindhipostpositionmen-ar" format="1">
  <advance width="615"/>
  <unicode hex="06FE"/>
  <outline>
    <component base="meem-ar"/>
    <component base="uniFBBC" xOffset="239" yOffset="-603"/>
    <contour>
      <point x="359.0" y="-240.0" type="move" name="bottom"/>
    </contour>
    <contour>
      <point x="359.0" y="459.0" type="move" name="top"/>
    </contour>
  </outline>
</glyph>
<glyph name="hahTwodotshorizontalabove-ar" format="1">
  <advance width="636"/>
  <unicode hex="0757"/>
  <outline>
    <component base="hah-ar"/>
    <component base="twodotshorizontalabove-ar" xOffset="169" yOffset="217"/>
    <contour>
      <point x="339.0" y="-304.0" type="move" name="bottom"/>
    </contour>
    <contour>
      <point x="334.0" y="9.0" type="move" name="center"/>
    </contour>
    <contour>
      <point x="327.0" y="714.0" type="move" name="top"/>
    </contour>
  </outline>
</glyph>
<glyph name="hahThreedotsupbelow-ar" format="1">
  <advance width="636"/>
  <unicode hex="0758"/>
  <outline>
    <contour>
      <point x="337" y="-304" type="curve" smooth="yes"/>
      <point x="463" y="-304"/>
      <point x="585" y="-255"/>
      <point x="666" y="-174" type="curve"/>
      <point x="591" y="-56" type="line"/>
      <point x="527" y="-118"/>
      <point x="437" y="-154"/>
      <point x="346" y="-154" type="curve" smooth="yes"/>
      <point x="186" y="-154"/>
      <point x="134" y="-104"/>
      <point x="134" y="-11" type="curve" smooth="yes"/>
      <point x="134" y="1" type="line" smooth="yes"/>
      <point x="134" y="98"/>
      <point x="201" y="134"/>
      <point x="387" y="184" type="curve" smooth="yes"/>
      <point x="610" y="244" type="line"/>
      <point x="610" y="471" type="line"/>
      <point x="219" y="495" type="line" smooth="yes"/>
      <point x="103" y="502"/>
      <point x="54" y="454"/>
      <point x="54" y="353" type="curve" smooth="yes" name="hr01"/>
      <point x="54" y="278" type="line"/>
      <point x="169" y="278" type="line"/>
      <point x="169" y="349" type="line"/>
      <point x="524" y="341" type="line"/>
      <point x="524" y="335" type="line"/>
      <point x="325" y="273" type="line" smooth="yes"/>
      <point x="118" y="208"/>
      <point x="23" y="115"/>
      <point x="23" y="-25" type="curve" smooth="yes" name="hr02"/>
      <point x="23" y="-200"/>
      <point x="140" y="-304"/>
    </contour>
    <contour>
      <point x="390" y="-87" type="curve" smooth="yes"/>
      <point x="406" y="-87" type="line" smooth="yes"/>
      <point x="433" y="-87"/>
      <point x="453" y="-71"/>
      <point x="453" y="-33" type="curve" smooth="yes" name="hr03"/>
      <point x="453" y="5"/>
      <point x="433" y="21"/>
      <point x="406" y="21" type="curve" smooth="yes"/>
      <point x="390" y="21" type="line" smooth="yes" name="hr04"/>
      <point x="362" y="21"/>
      <point x="342" y="5"/>
      <point x="342" y="-33" type="curve" smooth="yes" name="hr05"/>
      <point x="342" y="-71"/>
      <point x="362" y="-87"/>
    </contour>
    <contour>
      <point x="263" y="-87" type="curve" smooth="yes"/>
      <point x="279" y="-87" type="line" smooth="yes"/>
      <point x="306" y="-87"/>
      <point x="326" y="-71"/>
      <point x="326" y="-33" type="curve" smooth="yes" name="hr07"/>
      <point x="326" y="5"/>
      <point x="306" y="21"/>
      <point x="279" y="21" type="curve" smooth="yes" name="hr08"/>
      <point x="263" y="21" type="line" smooth="yes"/>
      <point x="236" y="21"/>
      <point x="216" y="5"/>
      <point x="216" y="-33" type="curve" smooth="yes" name="hr09"/>
      <point x="216" y="-71"/>
      <point x="236" y="-87"/>
    </contour>
    <contour>
      <point x="326" y="30" type="curve" smooth="yes"/>
      <point x="342" y="30" type="line" smooth="yes"/>
      <point x="370" y="30"/>
      <point x="390" y="46"/>
      <point x="390" y="84" type="curve" smooth="yes" name="hr10"/>
      <point x="390" y="121"/>
      <point x="370" y="137"/>
      <point x="342" y="137" type="curve" smooth="yes" name="hr11"/>
      <point x="326" y="137" type="line" smooth="yes"/>
      <point x="299" y="137"/>
      <point x="279" y="121"/>
      <point x="279" y="84" type="curve" smooth="yes" name="hr12"/>
      <point x="279" y="46"/>
      <point x="299" y="30"/>
    </contour>
  </outline>
</glyph>
<glyph name="ainTwodotsverticalabove-ar" format="1">
  <advance width="651"/>
  <unicode hex="075F"/>
  <outline>
    <component base="ain-ar"/>
    <component base="twodotsverticalabove-ar" xOffset="98" yOffset="361"/>
    <contour>
      <point x="341.0" y="-304.0" type="move" name="bottom"/>
    </contour>
    <contour>
      <point x="351.0" y="0.0" type="move" name="center"/>
    </contour>
    <contour>
      <point x="335.0" y="1012.0" type="move" name="top"/>
    </contour>
  </outline>
</glyph>
<glyph name="fehThreedotsupbelow-ar" format="1">
  <advance width="944"/>
  <unicode hex="0761"/>
  <outline>
    <component base="fehDotless-ar"/>
    <component base="threedotsupbelow-ar" xOffset="276" yOffset="-737"/>
    <contour>
      <point x="434.0" y="-12.0" type="move" name="bottom"/>
    </contour>
    <contour>
      <point x="702.0" y="611.0" type="move" name="top"/>
    </contour>
  </outline>
</glyph>
<glyph name="meemDotbelow-ar" format="1">
  <advance width="615"/>
  <unicode hex="0766"/>
  <outline>
    <component base="meem-ar"/>
    <component base="dotbelow-ar" xOffset="280" yOffset="-579"/>
    <contour>
      <point x="359.0" y="-216.0" type="move" name="bottom"/>
    </contour>
    <contour>
      <point x="359.0" y="459.0" type="move" name="top"/>
    </contour>
  </outline>
</glyph>
<glyph name="noonTwodotsbelow-ar" format="1">
  <advance width="692"/>
  <unicode hex="0767"/>
  <outline>
    <component base="noonghunna-ar"/>
    <component base="twodotshorizontalbelow-ar" xOffset="188" yOffset="-741"/>
    <component base="dotabove-ar" xOffset="267" yOffset="12"/>
    <contour>
      <point x="346.0" y="-378.0" type="move" name="bottom"/>
    </contour>
    <contour>
      <point x="346.0" y="-162.0" type="move" name="ring"/>
    </contour>
    <contour>
      <point x="346.0" y="509.0" type="move" name="top"/>
    </contour>
  </outline>
</glyph>
<glyph name="noonTahabove-ar" format="1">
  <advance width="692"/>
  <unicode hex="0768"/>
  <outline>
    <component base="noonghunna-ar"/>
    <component base="tahabove-ar" xOffset="181" yOffset="226"/>
    <component base="dotabove-ar" xOffset="267" yOffset="12"/>
    <contour>
      <point x="346.0" y="-162.0" type="move" name="bottom"/>
    </contour>
    <contour>
      <point x="346.0" y="-162.0" type="move" name="ring"/>
    </contour>
    <contour>
      <point x="341.0" y="875.0" type="move" name="top"/>
    </contour>
  </outline>
</glyph>
<glyph name="noonVabove-ar" format="1">
  <advance width="692"/>
  <unicode hex="0769"/>
  <outline>
    <component base="noonghunna-ar"/>
    <component base="vabove-ar" xOffset="197" yOffset="226"/>
    <component base="dotabove-ar" xOffset="267" yOffset="12"/>
    <contour>
      <point x="346.0" y="-162.0" type="move" name="bottom"/>
    </contour>
    <contour>
      <point x="346.0" y="-162.0" type="move" name="ring"/>
    </contour>
    <contour>
      <point x="346.0" y="813.0" type="move" name="top"/>
    </contour>
  </outline>
</glyph>
<glyph name="rehTwodotsverticalabove-ar" format="1">
  <advance width="299"/>
  <unicode hex="076B"/>
  <outline>
    <component base="twodotsverticalabove-ar" xOffset="-73" yOffset="40"/>
    <component base="reh-ar"/>
    <contour>
      <point x="40.0" y="-240.0" type="move" name="bottom"/>
    </contour>
    <contour>
      <point x="102.0" y="-224.0" type="move" name="ring"/>
    </contour>
    <contour>
      <point x="164.0" y="691.0" type="move" name="top"/>
    </contour>
  </outline>
</glyph>
<glyph name="seenTahTwodotshorizontalabove-ar" format="1">
  <advance width="1144"/>
  <unicode hex="0770"/>
  <outline>
    <component base="seen-ar"/>
    <component base="tahabove-ar" xOffset="677" yOffset="214"/>
    <component base="twodotshorizontalabove-ar" xOffset="684"/>
    <contour>
      <point x="343.0" y="-240.0" type="move" name="bottom"/>
    </contour>
    <contour>
      <point x="842.0" y="-135.0" type="move" name="center"/>
    </contour>
    <contour>
      <point x="837.0" y="863.0" type="move" name="top"/>
    </contour>
  </outline>
</glyph>
<glyph name="rehTwodotshorizontalaboveTahabove-ar" format="1">
  <advance width="299"/>
  <unicode hex="0771"/>
  <outline>
    <component base="tahabove-ar" xOffset="-1" yOffset="254"/>
    <component base="reh-ar"/>
    <component base="twodotshorizontalabove-ar" xOffset="6" yOffset="40"/>
    <contour>
      <point x="40.0" y="-240.0" type="move" name="bottom"/>
    </contour>
    <contour>
      <point x="102.0" y="-224.0" type="move" name="ring"/>
    </contour>
    <contour>
      <point x="159.0" y="903.0" type="move" name="top"/>
    </contour>
  </outline>
</glyph>
<glyph name="alefTwoabove-ar" format="1">
  <advance width="260"/>
  <unicode hex="0773"/>
  <outline>
    <component base="alef-ar.short"/>
    <component base="twoabove-ar" xOffset="14" yOffset="335"/>
    <contour>
      <point x="130.0" y="0.0" type="move" name="bottom"/>
    </contour>
    <contour>
      <point x="140.0" y="978.0" type="move" name="top"/>
    </contour>
  </outline>
</glyph>
<glyph name="alefThreeabove-ar" format="1">
  <advance width="260"/>
  <unicode hex="0774"/>
  <outline>
    <component base="alef-ar.short"/>
    <component base="threeabove-ar" xOffset="1" yOffset="335"/>
    <contour>
      <point x="130.0" y="0.0" type="move" name="bottom"/>
    </contour>
    <contour>
      <point x="160.0" y="978.0" type="move" name="top"/>
    </contour>
  </outline>
</glyph>
<glyph name="yehbarreeTwoabove-ar" format="1">
  <advance width="850"/>
  <unicode hex="077A"/>
  <outline>
    <component base="yehbarree-ar"/>
    <component base="twoabove-ar" xOffset="282" yOffset="222"/>
    <contour>
      <point x="497.0" y="0.0" type="move" name="bottom"/>
    </contour>
    <contour>
      <point x="408.0" y="865.0" type="move" name="top"/>
    </contour>
  </outline>
</glyph>
<glyph name="hahFourbelow-ar" format="1">
  <advance width="636"/>
  <unicode hex="077C"/>
  <outline>
    <contour>
      <point x="337" y="-304" type="curve" smooth="yes"/>
      <point x="463" y="-304"/>
      <point x="585" y="-255"/>
      <point x="666" y="-174" type="curve"/>
      <point x="591" y="-56" type="line"/>
      <point x="527" y="-118"/>
      <point x="437" y="-154"/>
      <point x="346" y="-154" type="curve" smooth="yes"/>
      <point x="186" y="-154"/>
      <point x="134" y="-104"/>
      <point x="134" y="-11" type="curve" smooth="yes"/>
      <point x="134" y="1" type="line" smooth="yes"/>
      <point x="134" y="98"/>
      <point x="201" y="134"/>
      <point x="387" y="184" type="curve" smooth="yes"/>
      <point x="610" y="244" type="line"/>
      <point x="610" y="471" type="line"/>
      <point x="219" y="495" type="line" smooth="yes"/>
      <point x="103" y="502"/>
      <point x="54" y="454"/>
      <point x="54" y="353" type="curve" smooth="yes" name="hr01"/>
      <point x="54" y="278" type="line"/>
      <point x="169" y="278" type="line"/>
      <point x="169" y="349" type="line"/>
      <point x="524" y="341" type="line"/>
      <point x="524" y="335" type="line"/>
      <point x="325" y="273" type="line" smooth="yes"/>
      <point x="118" y="208"/>
      <point x="23" y="115"/>
      <point x="23" y="-25" type="curve" smooth="yes" name="hr02"/>
      <point x="23" y="-200"/>
      <point x="140" y="-304"/>
    </contour>
    <contour>
      <point x="285" y="-121" type="line"/>
      <point x="353" y="-121" type="line"/>
      <point x="314" y="-33" type="line" smooth="yes"/>
      <point x="293" y="15"/>
      <point x="287" y="31"/>
      <point x="287" y="42" type="curve" smooth="yes"/>
      <point x="287" y="53"/>
      <point x="293" y="60"/>
      <point x="303" y="60" type="curve" smooth="yes"/>
      <point x="317" y="60"/>
      <point x="321" y="51"/>
      <point x="321" y="30" type="curve" smooth="yes"/>
      <point x="321" y="-1" type="line"/>
      <point x="376" y="-1" type="line"/>
      <point x="376" y="30" type="line" smooth="yes"/>
      <point x="376" y="47"/>
      <point x="385" y="55"/>
      <point x="404" y="55" type="curve" smooth="yes" name="hr03"/>
      <point x="435" y="55" type="line"/>
      <point x="435" y="128" type="line"/>
      <point x="419" y="128" type="line" smooth="yes"/>
      <point x="390" y="128"/>
      <point x="377" y="105"/>
      <point x="374" y="74" type="curve"/>
      <point x="371" y="74" type="line"/>
      <point x="364" y="114"/>
      <point x="344" y="133"/>
      <point x="303" y="133" type="curve" smooth="yes" name="hr04"/>
      <point x="258" y="133"/>
      <point x="232" y="105"/>
      <point x="232" y="44" type="curve" smooth="yes"/>
      <point x="232" y="12"/>
      <point x="240" y="-10"/>
      <point x="259" y="-57" type="curve" smooth="yes"/>
    </contour>
  </outline>
</glyph>
<glyph name="seenFourabove-ar" format="1">
  <advance width="1144"/>
  <unicode hex="077D"/>
  <outline>
    <component base="seen-ar"/>
    <component base="foururduabove-ar" xOffset="709"/>
    <contour>
      <point x="343.0" y="-240.0" type="move" name="bottom"/>
    </contour>
    <contour>
      <point x="842.0" y="-135.0" type="move" name="center"/>
    </contour>
    <contour>
      <point x="842.0" y="643.0" type="move" name="top"/>
    </contour>
  </outline>
</glyph>
<glyph name="kafTwodotshorizontalabove-ar" format="1">
  <advance width="796"/>
  <unicode hex="077F"/>
  <outline>
    <component base="kaf-ar"/>
    <component base="twodotshorizontalabove-ar" xOffset="206" yOffset="283"/>
    <contour>
      <point x="358.0" y="0.0" type="move" name="bottom"/>
    </contour>
    <contour>
      <point x="364.0" y="566.0" type="move" name="top"/>
    </contour>
  </outline>
</glyph>
<glyph name="behVbelow-ar" format="1">
  <advance width="883"/>
  <unicode hex="08A0"/>
  <outline>
    <component base="behDotless-ar"/>
    <component base="vbelow-ar" xOffset="291" yOffset="-669"/>
    <contour>
      <point x="440.0" y="1.0" type="move" name="bottom"/>
    </contour>
    <contour>
      <point x="463.0" y="-12.0" type="move" name="ring"/>
    </contour>
    <contour>
      <point x="440.0" y="283.0" type="move" name="top"/>
    </contour>
  </outline>
</glyph>
<glyph name="fehDotbelowThreedotsabove-ar" format="1">
  <advance width="764"/>
  <unicode hex="08A4"/>
  <outline>
    <component base="tah-ar"/>
    <component base="dotbelow-ar" xOffset="303" yOffset="-579"/>
    <component base="twodotshorizontalabove-ar" xOffset="305" yOffset="180"/>
    <contour>
      <point x="382.0" y="0.0" type="move" name="bottom"/>
    </contour>
    <contour>
      <point x="463.0" y="463.0" type="move" name="top"/>
    </contour>
  </outline>
</glyph>
<glyph name="qafDotbelow-ar" format="1">
  <advance width="752"/>
  <unicode hex="08A5"/>
  <outline>
    <component base="qafDotless-ar"/>
    <component base="twodotshorizontalabove-ar" xOffset="352" yOffset="140"/>
    <component base="dotbelow-ar" xOffset="297" yOffset="-809"/>
    <contour>
      <point x="376.0" y="-230.0" type="move" name="bottom"/>
    </contour>
    <contour>
      <point x="510.0" y="423.0" type="move" name="top"/>
    </contour>
  </outline>
</glyph>
<glyph name="rehLoop-ar" format="1">
  <advance width="576"/>
  <unicode hex="08AA"/>
  <outline>
    <contour>
      <point x="206" y="-304" type="curve" smooth="yes" name="hr00"/>
      <point x="278" y="-304"/>
      <point x="343" y="-281"/>
      <point x="397" y="-241" type="curve"/>
      <point x="447" y="-304" type="line"/>
      <point x="541" y="-228" type="line"/>
      <point x="480" y="-151" type="line"/>
      <point x="519" y="-89"/>
      <point x="541" y="-12"/>
      <point x="541" y="75" type="curve" smooth="yes"/>
      <point x="541" y="113"/>
      <point x="537" y="162"/>
      <point x="526" y="230" type="curve" smooth="yes"/>
      <point x="511" y="323" type="line"/>
      <point x="402" y="306" type="line"/>
      <point x="421" y="183" type="line" smooth="yes"/>
      <point x="430" y="123"/>
      <point x="432" y="95"/>
      <point x="432" y="59" type="curve" smooth="yes"/>
      <point x="432" y="17"/>
      <point x="421" y="-22"/>
      <point x="402" y="-55" type="curve"/>
      <point x="338" y="16"/>
      <point x="285" y="48"/>
      <point x="196" y="48" type="curve" smooth="yes"/>
      <point x="84" y="48"/>
      <point x="20" y="-11"/>
      <point x="20" y="-128" type="curve" smooth="yes"/>
      <point x="20" y="-243"/>
      <point x="87" y="-304"/>
    </contour>
    <contour>
      <point x="216" y="-164" type="curve"/>
      <point x="186" y="-164" type="line" smooth="yes"/>
      <point x="148" y="-164"/>
      <point x="130" y="-153"/>
      <point x="130" y="-128" type="curve" smooth="yes"/>
      <point x="130" y="-103"/>
      <point x="144" y="-92"/>
      <point x="176" y="-92" type="curve" smooth="yes"/>
      <point x="206" y="-92" type="line" smooth="yes"/>
      <point x="252" y="-92"/>
      <point x="284" y="-109"/>
      <point x="314" y="-140" type="curve"/>
      <point x="285" y="-155"/>
      <point x="252" y="-164"/>
    </contour>
  </outline>
</glyph>
<glyph name="kasraCurly-ar" format="1">
  <advance width="0"/>
  <unicode hex="08E6"/>
  <outline>
    <component base="comp.fathacurly-ar"/>
    <contour>
      <point x="129" y="605" type="move" name="_bottom"/>
    </contour>
    <contour>
      <point x="129" y="452" type="move" name="bottom"/>
    </contour>
  </outline>
</glyph>
<glyph name="fathatanCurly-ar" format="1">
  <advance width="0"/>
  <unicode hex="08E7"/>
  <outline>
    <component base="comp.fathacurly-ar"/>
    <component base="comp.fathacurly-ar" yOffset="152"/>
    <contour>
      <point x="139.0" y="283.0" type="move" name="_top"/>
    </contour>
    <contour>
      <point x="139.0" y="586.0" type="move" name="top"/>
    </contour>
  </outline>
</glyph>
<glyph name="fathaRing-ar" format="1">
  <advance width="0"/>
  <unicode hex="08F4"/>
  <outline>
    <contour>
      <point x="131" y="357" type="curve" smooth="yes" name="hr00"/>
      <point x="197" y="357"/>
      <point x="247" y="409"/>
      <point x="247" y="478" type="curve" smooth="yes"/>
      <point x="247" y="492"/>
      <point x="245" y="506"/>
      <point x="241" y="518" type="curve"/>
      <point x="268" y="531" type="line"/>
      <point x="260" y="549" type="line"/>
      <point x="233" y="537" type="line"/>
      <point x="214" y="575"/>
      <point x="176" y="600"/>
      <point x="131" y="600" type="curve" smooth="yes"/>
      <point x="65" y="600"/>
      <point x="15" y="548"/>
      <point x="15" y="478" type="curve" smooth="yes"/>
      <point x="15" y="464"/>
      <point x="17" y="451"/>
      <point x="20" y="439" type="curve"/>
      <point x="-7" y="427" type="line"/>
      <point x="1" y="409" type="line"/>
      <point x="27" y="421" type="line"/>
      <point x="46" y="382"/>
      <point x="85" y="357"/>
    </contour>
    <contour>
      <point x="131" y="427" type="curve" smooth="yes"/>
      <point x="111" y="427"/>
      <point x="95" y="434"/>
      <point x="85" y="447" type="curve"/>
      <point x="185" y="493" type="line"/>
      <point x="186" y="488"/>
      <point x="187" y="483"/>
      <point x="187" y="478" type="curve" smooth="yes"/>
      <point x="187" y="448"/>
      <point x="163" y="427"/>
    </contour>
    <contour>
      <point x="75" y="478" type="curve" smooth="yes"/>
      <point x="75" y="508"/>
      <point x="99" y="529"/>
      <point x="131" y="529" type="curve" smooth="yes"/>
      <point x="149" y="529"/>
      <point x="165" y="522"/>
      <point x="175" y="510" type="curve"/>
      <point x="76" y="465" type="line"/>
      <point x="75" y="469"/>
      <point x="75" y="473"/>
    </contour>
  </outline>
</glyph>
<glyph name="rightarrowheadabove-ar" format="1">
  <advance width="0"/>
  <unicode hex="08F8"/>
  <outline>
    <contour>
      <point x="20" y="631" type="line" name="hr00"/>
      <point x="20" y="536" type="line"/>
      <point x="159" y="488" type="line"/>
      <point x="159" y="486" type="line"/>
      <point x="20" y="437" type="line"/>
      <point x="20" y="353" type="line"/>
      <point x="244" y="440" type="line"/>
      <point x="244" y="546" type="line"/>
    </contour>
    <contour>
      <point x="132.0" y="631.0" type="move" name="_top"/>
    </contour>
    <contour>
      <point x="132.0" y="283.0" type="move" name="top"/>
    </contour>
  </outline>
</glyph>
<glyph name="rightarrowheadbelow-ar" format="1">
  <advance width="0"/>
  <unicode hex="08FA"/>
  <outline>
    <component base="rightarrowheadabove-ar"/>
    <contour>
      <point x="132.0" y="651.0" type="move" name="_bottom"/>
    </contour>
    <contour>
      <point x="132.0" y="353.0" type="move" name="bottom"/>
    </contour>
  </outline>
</glyph>
<glyph name="doublerightarrowheadabove-ar" format="1">
  <advance width="0"/>
  <unicode hex="08FB"/>
  <outline>
    <contour>
      <point x="236" y="631" type="line" name="hr00"/>
      <point x="236" y="549" type="line"/>
      <point x="20" y="631" type="line"/>
      <point x="20" y="536" type="line"/>
      <point x="159" y="488" type="line"/>
      <point x="159" y="486" type="line"/>
      <point x="20" y="437" type="line"/>
      <point x="20" y="353" type="line"/>
      <point x="236" y="437" type="line"/>
      <point x="236" y="353" type="line"/>
      <point x="460" y="440" type="line"/>
      <point x="460" y="546" type="line"/>
    </contour>
    <contour>
      <point x="244" y="440" type="line"/>
      <point x="244" y="533" type="line"/>
      <point x="375" y="488" type="line"/>
      <point x="375" y="486" type="line"/>
    </contour>
    <contour>
      <point x="240.0" y="631.0" type="move" name="_top"/>
    </contour>
    <contour>
      <point x="240.0" y="283.0" type="move" name="top"/>
    </contour>
  </outline>
</glyph>
<glyph name="doublerightarrowheadDotabove-ar" format="1">
  <advance width="0"/>
  <unicode hex="08FC"/>
  <outline>
    <contour>
      <point x="382" y="631" type="line" name="hr00"/>
      <point x="382" y="549" type="line"/>
      <point x="166" y="631" type="line"/>
      <point x="166" y="536" type="line"/>
      <point x="305" y="488" type="line"/>
      <point x="305" y="486" type="line"/>
      <point x="166" y="437" type="line"/>
      <point x="166" y="353" type="line"/>
      <point x="382" y="437" type="line"/>
      <point x="382" y="353" type="line"/>
      <point x="606" y="440" type="line"/>
      <point x="606" y="546" type="line"/>
    </contour>
    <contour>
      <point x="99" y="425" type="line"/>
      <point x="133" y="425"/>
      <point x="158" y="445"/>
      <point x="158" y="492" type="curve" smooth="yes"/>
      <point x="158" y="539"/>
      <point x="133" y="559"/>
      <point x="99" y="559" type="curve" smooth="yes"/>
      <point x="79" y="559" type="line" smooth="yes"/>
      <point x="45" y="559"/>
      <point x="20" y="539"/>
      <point x="20" y="492" type="curve" smooth="yes"/>
      <point x="20" y="445"/>
      <point x="45" y="425"/>
      <point x="79" y="425" type="curve"/>
    </contour>
    <contour>
      <point x="390" y="440" type="line"/>
      <point x="390" y="533" type="line"/>
      <point x="521" y="488" type="line"/>
      <point x="521" y="486" type="line"/>
    </contour>
    <contour>
      <point x="386.0" y="631.0" type="move" name="_top"/>
    </contour>
    <contour>
      <point x="386.0" y="283.0" type="move" name="top"/>
    </contour>
  </outline>
</glyph>
<glyph name="Germandbls" format="1">
  <advance width="731"/>
  <unicode hex="1E9E"/>
  <outline>
    <contour>
      <point x="701" y="216" type="curve" smooth="yes"/>
      <point x="701" y="350"/>
      <point x="595" y="405"/>
      <point x="513" y="411" type="curve"/>
      <point x="513" y="415" type="line"/>
      <point x="637" y="559" type="line"/>
      <point x="637" y="698" type="line"/>
      <point x="77" y="698" type="line"/>
      <point x="77" y="0" type="line"/>
      <point x="229" y="0" type="line"/>
      <point x="229" y="570" type="line"/>
      <point x="486" y="570" type="line"/>
      <point x="356" y="419" type="line"/>
      <point x="356" y="302" type="line"/>
      <point x="452" y="302" type="line" smooth="yes"/>
      <point x="521" y="302"/>
      <point x="548" y="271"/>
      <point x="548" y="228" type="curve" smooth="yes"/>
      <point x="548" y="192" type="line" smooth="yes"/>
      <point x="548" y="149"/>
      <point x="519" y="114"/>
      <point x="472" y="114" type="curve" smooth="yes" name="hr01"/>
      <point x="425" y="114"/>
      <point x="397" y="134"/>
      <point x="369" y="164" type="curve"/>
      <point x="274" y="67" type="line"/>
      <point x="318" y="18"/>
      <point x="385" y="-12"/>
      <point x="472" y="-12" type="curve" smooth="yes"/>
      <point x="614" y="-12"/>
      <point x="701" y="86"/>
    </contour>
  </outline>
</glyph>
<glyph name="twoinferior" format="1">
  <advance width="347"/>
  <unicode hex="2082"/>
  <outline>
    <contour>
      <point x="322" y="83" type="line" name="hr00"/>
      <point x="145" y="83" type="line"/>
      <point x="204" y="116" type="line" smooth="yes"/>
      <point x="263" y="149"/>
      <point x="318" y="193"/>
      <point x="318" y="261" type="curve" smooth="yes"/>
      <point x="318" y="327"/>
      <point x="266" y="375"/>
      <point x="176" y="375" type="curve" smooth="yes"/>
      <point x="92" y="375"/>
      <point x="41" y="333"/>
      <point x="22" y="277" type="curve"/>
      <point x="111" y="244" type="line"/>
      <point x="118" y="268"/>
      <point x="133" y="289"/>
      <point x="166" y="289" type="curve" smooth="yes"/>
      <point x="185" y="289"/>
      <point x="209" y="282"/>
      <point x="209" y="255" type="curve" smooth="yes"/>
      <point x="209" y="254" type="line" smooth="yes"/>
      <point x="209" y="224"/>
      <point x="192" y="209"/>
      <point x="142" y="171" type="curve" smooth="yes"/>
      <point x="33" y="88" type="line"/>
      <point x="33" y="0" type="line"/>
      <point x="322" y="0" type="line"/>
    </contour>
  </outline>
</glyph>
<glyph name="lira" format="1">
  <advance width="582"/>
  <unicode hex="20A4"/>
  <outline>
    <contour>
      <point x="554" y="123" type="line"/>
      <point x="220" y="123" type="line"/>
      <point x="220" y="132" type="line"/>
      <point x="248" y="147"/>
      <point x="282" y="179"/>
      <point x="293" y="227" type="curve"/>
      <point x="425" y="227" type="line"/>
      <point x="425" y="317" type="line"/>
      <point x="288" y="317" type="line"/>
      <point x="281" y="341"/>
      <point x="270" y="363"/>
      <point x="260" y="385" type="curve"/>
      <point x="425" y="385" type="line"/>
      <point x="425" y="475" type="line"/>
      <point x="235" y="475" type="line" name="hr01"/>
      <point x="235" y="481" type="line" smooth="yes"/>
      <point x="235" y="543"/>
      <point x="271" y="583"/>
      <point x="336" y="583" type="curve" smooth="yes"/>
      <point x="384" y="583"/>
      <point x="421" y="564"/>
      <point x="458" y="516" type="curve"/>
      <point x="568" y="589" type="line"/>
      <point x="515" y="669"/>
      <point x="440" y="710"/>
      <point x="332" y="710" type="curve" smooth="yes"/>
      <point x="180" y="710"/>
      <point x="82" y="628"/>
      <point x="82" y="505" type="curve" smooth="yes"/>
      <point x="82" y="495"/>
      <point x="83" y="485"/>
      <point x="84" y="475" type="curve"/>
      <point x="34" y="475" type="line"/>
      <point x="34" y="385" type="line"/>
      <point x="111" y="385" type="line"/>
      <point x="120" y="362"/>
      <point x="131" y="339"/>
      <point x="138" y="317" type="curve"/>
      <point x="34" y="317" type="line"/>
      <point x="34" y="227" type="line"/>
      <point x="146" y="227" type="line" name="hr02"/>
      <point x="136" y="186"/>
      <point x="107" y="150"/>
      <point x="66" y="131" type="curve"/>
      <point x="66" y="0" type="line"/>
      <point x="554" y="0" type="line"/>
    </contour>
  </outline>
</glyph>
<glyph name="rupee" format="1">
  <advance width="893"/>
  <unicode hex="20A8"/>
  <outline>
    <contour>
      <point x="229" y="0" type="line"/>
      <point x="229" y="273" type="line"/>
      <point x="315" y="273" type="line"/>
      <point x="391" y="120" type="line" smooth="yes"/>
      <point x="437" y="24"/>
      <point x="512" y="-12"/>
      <point x="621" y="-12" type="curve" smooth="yes" name="hr01"/>
      <point x="784" y="-12"/>
      <point x="844" y="61"/>
      <point x="844" y="150" type="curve" smooth="yes"/>
      <point x="844" y="212"/>
      <point x="819" y="250"/>
      <point x="766" y="299" type="curve" smooth="yes"/>
      <point x="747" y="316" type="line" smooth="yes"/>
      <point x="718" y="342"/>
      <point x="696" y="359"/>
      <point x="696" y="386" type="curve" smooth="yes"/>
      <point x="696" y="415"/>
      <point x="721" y="427"/>
      <point x="752" y="427" type="curve" smooth="yes"/>
      <point x="775" y="427"/>
      <point x="793" y="422"/>
      <point x="813" y="409" type="curve"/>
      <point x="861" y="506" type="line"/>
      <point x="824" y="528"/>
      <point x="777" y="536"/>
      <point x="735" y="536" type="curve" smooth="yes"/>
      <point x="630" y="536"/>
      <point x="556" y="478"/>
      <point x="556" y="381" type="curve" smooth="yes"/>
      <point x="556" y="320"/>
      <point x="585" y="278"/>
      <point x="638" y="230" type="curve" smooth="yes"/>
      <point x="657" y="213" type="line" smooth="yes"/>
      <point x="687" y="187"/>
      <point x="697" y="168"/>
      <point x="697" y="144" type="curve" smooth="yes"/>
      <point x="697" y="122"/>
      <point x="674" y="103"/>
      <point x="634" y="103" type="curve" smooth="yes"/>
      <point x="590" y="103"/>
      <point x="550" y="131"/>
      <point x="516" y="195" type="curve" smooth="yes"/>
      <point x="450" y="320" type="line"/>
      <point x="497" y="360"/>
      <point x="524" y="421"/>
      <point x="524" y="493" type="curve" smooth="yes"/>
      <point x="524" y="621"/>
      <point x="442" y="698"/>
      <point x="313" y="698" type="curve" smooth="yes"/>
      <point x="77" y="698" type="line"/>
      <point x="77" y="0" type="line" name="hr02"/>
    </contour>
    <contour>
      <point x="229" y="396" type="line"/>
      <point x="229" y="575" type="line"/>
      <point x="293" y="575" type="line" smooth="yes"/>
      <point x="339" y="575"/>
      <point x="367" y="553"/>
      <point x="367" y="507" type="curve" smooth="yes"/>
      <point x="367" y="464" type="line" smooth="yes"/>
      <point x="367" y="418"/>
      <point x="339" y="396"/>
      <point x="293" y="396" type="curve" smooth="yes"/>
    </contour>
  </outline>
</glyph>
<glyph name="won" format="1">
  <advance width="1023"/>
  <unicode hex="20A9"/>
  <outline>
    <contour>
      <point x="636" y="0" type="line" name="hr00"/>
      <point x="809" y="0" type="line"/>
      <point x="863" y="228" type="line"/>
      <point x="985" y="228" type="line"/>
      <point x="985" y="318" type="line"/>
      <point x="884" y="318" type="line"/>
      <point x="900" y="386" type="line"/>
      <point x="985" y="386" type="line"/>
      <point x="985" y="476" type="line"/>
      <point x="921" y="476" type="line"/>
      <point x="973" y="698" type="line"/>
      <point x="829" y="698" type="line"/>
      <point x="784" y="476" type="line"/>
      <point x="649" y="476" type="line"/>
      <point x="597" y="698" type="line"/>
      <point x="431" y="698" type="line"/>
      <point x="379" y="476" type="line"/>
      <point x="244" y="476" type="line"/>
      <point x="200" y="698" type="line"/>
      <point x="50" y="698" type="line"/>
      <point x="101" y="476" type="line"/>
      <point x="38" y="476" type="line"/>
      <point x="38" y="386" type="line"/>
      <point x="122" y="386" type="line"/>
      <point x="137" y="318" type="line"/>
      <point x="38" y="318" type="line"/>
      <point x="38" y="228" type="line"/>
      <point x="158" y="228" type="line"/>
      <point x="210" y="0" type="line"/>
      <point x="384" y="0" type="line"/>
      <point x="438" y="228" type="line"/>
      <point x="583" y="228" type="line"/>
    </contour>
    <contour>
      <point x="308" y="165" type="line"/>
      <point x="305" y="165" type="line"/>
      <point x="267" y="357" type="line"/>
      <point x="261" y="390" type="line"/>
      <point x="359" y="390" type="line"/>
      <point x="352" y="358" type="line"/>
    </contour>
    <contour>
      <point x="720" y="165" type="line"/>
      <point x="676" y="361" type="line"/>
      <point x="669" y="390" type="line"/>
      <point x="767" y="390" type="line"/>
      <point x="760" y="355" type="line"/>
      <point x="723" y="165" type="line"/>
    </contour>
    <contour>
      <point x="467" y="354" type="line"/>
      <point x="509" y="533" type="line"/>
      <point x="512" y="533" type="line"/>
      <point x="554" y="353" type="line"/>
      <point x="563" y="314" type="line"/>
      <point x="458" y="314" type="line"/>
    </contour>
  </outline>
</glyph>
<glyph name="kip" format="1">
  <advance width="684"/>
  <unicode hex="20AD"/>
  <outline>
    <contour>
      <point x="247" y="291" type="line" name="hr00"/>
      <point x="287" y="291" type="line"/>
      <point x="492" y="0" type="line"/>
      <point x="672" y="0" type="line"/>
      <point x="456" y="291" type="line"/>
      <point x="624" y="291" type="line"/>
      <point x="624" y="411" type="line"/>
      <point x="443" y="411" type="line"/>
      <point x="645" y="698" type="line"/>
      <point x="473" y="698" type="line"/>
      <point x="285" y="411" type="line"/>
      <point x="247" y="411" type="line"/>
      <point x="247" y="698" type="line"/>
      <point x="95" y="698" type="line"/>
      <point x="95" y="411" type="line"/>
      <point x="6" y="411" type="line"/>
      <point x="6" y="291" type="line"/>
      <point x="95" y="291" type="line"/>
      <point x="95" y="0" type="line"/>
      <point x="247" y="0" type="line"/>
    </contour>
  </outline>
</glyph>
<glyph name="trademark" format="1">
  <advance width="614"/>
  <unicode hex="2122"/>
  <outline>
    <contour>
      <point x="177" y="409" type="line" name="hr00"/>
      <point x="177" y="637" type="line"/>
      <point x="243" y="637" type="line"/>
      <point x="243" y="698" type="line"/>
      <point x="24" y="698" type="line"/>
      <point x="24" y="637" type="line"/>
      <point x="91" y="637" type="line"/>
      <point x="91" y="409" type="line"/>
    </contour>
    <contour>
      <point x="345" y="409" type="line"/>
      <point x="345" y="504" type="line"/>
      <point x="336" y="598" type="line"/>
      <point x="340" y="598" type="line"/>
      <point x="418" y="453" type="line"/>
      <point x="495" y="598" type="line"/>
      <point x="499" y="598" type="line"/>
      <point x="491" y="504" type="line"/>
      <point x="491" y="409" type="line"/>
      <point x="562" y="409" type="line"/>
      <point x="562" y="698" type="line"/>
      <point x="478" y="698" type="line"/>
      <point x="424" y="591" type="line"/>
      <point x="418" y="591" type="line"/>
      <point x="363" y="698" type="line"/>
      <point x="273" y="698" type="line"/>
      <point x="273" y="409" type="line"/>
    </contour>
  </outline>
</glyph>
<glyph name="arrowleft" format="1">
  <advance width="900"/>
  <unicode hex="2190"/>
  <outline>
    <contour>
      <point x="95" y="349" type="line" name="hr00"/>
      <point x="334" y="110" type="line"/>
      <point x="414" y="190" type="line"/>
      <point x="354" y="250" type="line"/>
      <point x="310" y="288" type="line"/>
      <point x="311" y="292" type="line"/>
      <point x="391" y="288" type="line"/>
      <point x="805" y="288" type="line"/>
      <point x="805" y="410" type="line"/>
      <point x="391" y="410" type="line"/>
      <point x="311" y="406" type="line"/>
      <point x="310" y="410" type="line"/>
      <point x="354" y="448" type="line"/>
      <point x="414" y="508" type="line"/>
      <point x="334" y="588" type="line"/>
    </contour>
  </outline>
</glyph>
<glyph name="arrowupdown" format="1">
  <advance width="900"/>
  <unicode hex="2195"/>
  <outline>
    <contour>
      <point x="450" y="-12" type="line" name="hr00"/>
      <point x="689" y="227" type="line"/>
      <point x="609" y="307" type="line"/>
      <point x="549" y="247" type="line"/>
      <point x="511" y="203" type="line"/>
      <point x="507" y="204" type="line"/>
      <point x="511" y="284" type="line"/>
      <point x="511" y="414" type="line"/>
      <point x="507" y="494" type="line"/>
      <point x="511" y="495" type="line"/>
      <point x="549" y="451" type="line"/>
      <point x="609" y="391" type="line"/>
      <point x="689" y="471" type="line"/>
      <point x="450" y="710" type="line"/>
      <point x="211" y="471" type="line"/>
      <point x="291" y="391" type="line"/>
      <point x="351" y="451" type="line"/>
      <point x="389" y="495" type="line"/>
      <point x="393" y="494" type="line"/>
      <point x="389" y="414" type="line"/>
      <point x="389" y="284" type="line"/>
      <point x="393" y="204" type="line"/>
      <point x="389" y="203" type="line"/>
      <point x="351" y="247" type="line"/>
      <point x="291" y="307" type="line"/>
      <point x="211" y="227" type="line"/>
    </contour>
  </outline>
</glyph>
<glyph name="arrowupleft" format="1">
  <advance width="900"/>
  <unicode hex="2196"/>
  <outline>
    <contour>
      <point x="192" y="622" type="line" name="hr00"/>
      <point x="192" y="284" type="line"/>
      <point x="305" y="284" type="line"/>
      <point x="305" y="369" type="line"/>
      <point x="301" y="427" type="line"/>
      <point x="304" y="429" type="line"/>
      <point x="358" y="370" type="line"/>
      <point x="651" y="77" type="line"/>
      <point x="737" y="163" type="line"/>
      <point x="444" y="456" type="line"/>
      <point x="385" y="510" type="line"/>
      <point x="387" y="513" type="line"/>
      <point x="445" y="509" type="line"/>
      <point x="530" y="509" type="line"/>
      <point x="530" y="622" type="line"/>
    </contour>
  </outline>
</glyph>
<glyph name="arrowupright" format="1">
  <advance width="900"/>
  <unicode hex="2197"/>
  <outline>
    <contour>
      <point x="708" y="622" type="line" name="hr00"/>
      <point x="370" y="622" type="line"/>
      <point x="370" y="509" type="line"/>
      <point x="455" y="509" type="line"/>
      <point x="513" y="513" type="line"/>
      <point x="515" y="510" type="line"/>
      <point x="456" y="456" type="line"/>
      <point x="163" y="163" type="line"/>
      <point x="249" y="77" type="line"/>
      <point x="542" y="370" type="line"/>
      <point x="596" y="429" type="line"/>
      <point x="599" y="427" type="line"/>
      <point x="595" y="369" type="line"/>
      <point x="595" y="284" type="line"/>
      <point x="708" y="284" type="line"/>
    </contour>
  </outline>
</glyph>
<glyph name="arrowdownleft" format="1">
  <advance width="900"/>
  <unicode hex="2199"/>
  <outline>
    <contour>
      <point x="192" y="81" type="line" name="hr00"/>
      <point x="530" y="81" type="line"/>
      <point x="530" y="194" type="line"/>
      <point x="445" y="194" type="line"/>
      <point x="387" y="190" type="line"/>
      <point x="385" y="193" type="line"/>
      <point x="444" y="247" type="line"/>
      <point x="737" y="540" type="line"/>
      <point x="651" y="626" type="line"/>
      <point x="358" y="333" type="line"/>
      <point x="304" y="274" type="line"/>
      <point x="301" y="276" type="line"/>
      <point x="305" y="334" type="line"/>
      <point x="305" y="419" type="line"/>
      <point x="192" y="419" type="line"/>
    </contour>
  </outline>
</glyph>
<glyph name="arrowhookleft" format="1">
  <advance width="900"/>
  <unicode hex="21A9"/>
  <outline>
    <contour>
      <point x="95" y="298" type="line" name="hr00"/>
      <point x="334" y="59" type="line"/>
      <point x="414" y="139" type="line"/>
      <point x="354" y="199" type="line"/>
      <point x="310" y="237" type="line"/>
      <point x="311" y="241" type="line"/>
      <point x="391" y="237" type="line"/>
      <point x="573" y="237" type="line" smooth="yes"/>
      <point x="697" y="237"/>
      <point x="805" y="305"/>
      <point x="805" y="438" type="curve" smooth="yes"/>
      <point x="805" y="571"/>
      <point x="697" y="639"/>
      <point x="573" y="639" type="curve"/>
      <point x="573" y="525" type="line"/>
      <point x="622" y="525"/>
      <point x="666" y="501"/>
      <point x="666" y="442" type="curve" smooth="yes"/>
      <point x="666" y="383"/>
      <point x="622" y="359"/>
      <point x="573" y="359" type="curve" smooth="yes"/>
      <point x="391" y="359" type="line"/>
      <point x="311" y="355" type="line"/>
      <point x="310" y="359" type="line"/>
      <point x="354" y="397" type="line"/>
      <point x="414" y="457" type="line"/>
      <point x="334" y="537" type="line"/>
    </contour>
  </outline>
</glyph>
<glyph name="arrowupleftcounterclock" format="1">
  <advance width="900"/>
  <unicode hex="21BA"/>
  <outline>
    <contour>
      <point x="438" y="698" type="line" name="hr00"/>
      <point x="438" y="360" type="line"/>
      <point x="551" y="360" type="line"/>
      <point x="551" y="445" type="line"/>
      <point x="547" y="503" type="line"/>
      <point x="550" y="505" type="line"/>
      <point x="578" y="477" type="line" smooth="yes"/>
      <point x="633" y="422"/>
      <point x="667" y="377"/>
      <point x="667" y="304" type="curve" smooth="yes"/>
      <point x="667" y="184"/>
      <point x="578" y="103"/>
      <point x="451" y="103" type="curve" smooth="yes"/>
      <point x="330" y="103"/>
      <point x="233" y="197"/>
      <point x="233" y="314" type="curve" smooth="yes"/>
      <point x="233" y="400"/>
      <point x="261" y="463"/>
      <point x="333" y="521" type="curve"/>
      <point x="255" y="606" type="line"/>
      <point x="151" y="520"/>
      <point x="109" y="432"/>
      <point x="109" y="314" type="curve" smooth="yes"/>
      <point x="109" y="135"/>
      <point x="263" y="-11"/>
      <point x="451" y="-11" type="curve" smooth="yes"/>
      <point x="638" y="-11"/>
      <point x="791" y="116"/>
      <point x="791" y="304" type="curve" smooth="yes"/>
      <point x="791" y="436"/>
      <point x="722" y="506"/>
      <point x="655" y="564" type="curve" smooth="yes"/>
      <point x="631" y="586" type="line"/>
      <point x="633" y="589" type="line"/>
      <point x="691" y="585" type="line"/>
      <point x="776" y="585" type="line"/>
      <point x="776" y="698" type="line"/>
    </contour>
  </outline>
</glyph>
<glyph name="arrowleftdowncorner" format="1">
  <advance width="900"/>
  <unicode hex="2B10"/>
  <outline>
    <contour>
      <point x="334" y="73" type="line" name="hr00"/>
      <point x="573" y="312" type="line"/>
      <point x="493" y="392" type="line"/>
      <point x="433" y="332" type="line"/>
      <point x="395" y="288" type="line"/>
      <point x="391" y="289" type="line"/>
      <point x="395" y="369" type="line"/>
      <point x="395" y="484" type="line"/>
      <point x="805" y="484" type="line"/>
      <point x="805" y="606" type="line"/>
      <point x="273" y="606" type="line"/>
      <point x="273" y="369" type="line"/>
      <point x="277" y="289" type="line"/>
      <point x="273" y="288" type="line"/>
      <point x="235" y="332" type="line"/>
      <point x="175" y="392" type="line"/>
      <point x="95" y="312" type="line"/>
    </contour>
  </outline>
</glyph>
<glyph name="arrowleftupcorner" format="1">
  <advance width="900"/>
  <unicode hex="2B11"/>
  <outline>
    <contour>
      <point x="334" y="637" type="line" name="hr00"/>
      <point x="95" y="398" type="line"/>
      <point x="175" y="318" type="line"/>
      <point x="235" y="378" type="line"/>
      <point x="273" y="422" type="line"/>
      <point x="277" y="421" type="line"/>
      <point x="273" y="341" type="line"/>
      <point x="273" y="104" type="line"/>
      <point x="805" y="104" type="line"/>
      <point x="805" y="226" type="line"/>
      <point x="395" y="226" type="line"/>
      <point x="395" y="341" type="line"/>
      <point x="391" y="421" type="line"/>
      <point x="395" y="422" type="line"/>
      <point x="433" y="378" type="line"/>
      <point x="493" y="318" type="line"/>
      <point x="573" y="398" type="line"/>
    </contour>
  </outline>
</glyph>
<glyph name="tteh-ar.init" format="1">
  <advance width="288"/>
  <unicode hex="FB68"/>
  <outline>
    <component base="tahabove-ar" xOffset="-3" yOffset="139"/>
    <component base="behDotless-ar.init"/>
    <contour>
      <point x="155.0" y="0.0" type="move" name="bottom"/>
    </contour>
    <contour>
      <point x="366.0" y="363.0" type="move" name="high"/>
    </contour>
    <contour>
      <point x="155.0" y="15.0" type="move" name="ring"/>
    </contour>
    <contour>
      <point x="157.0" y="788.0" type="move" name="top"/>
    </contour>
  </outline>
</glyph>
<glyph name="veh-ar.fina" format="1">
  <advance width="1044"/>
  <unicode hex="FB6B"/>
  <outline>
    <component base="fehDotless-ar.fina"/>
    <component base="threedotsupabove-ar" xOffset="644" yOffset="254"/>
    <contour>
      <point x="431.0" y="-12.0" type="move" name="bottom"/>
    </contour>
    <contour>
      <point x="802.0" y="537.0" type="move" name="top"/>
    </contour>
  </outline>
</glyph>
<glyph name="veh-ar.medi" format="1">
  <advance width="482"/>
  <unicode hex="FB6D"/>
  <outline>
    <component base="fehDotless-ar.medi"/>
    <component base="threedotsupabove-ar" xOffset="81" yOffset="252"/>
    <contour>
      <point x="241.0" y="0.0" type="move" name="bottom"/>
    </contour>
    <contour>
      <point x="239.0" y="895.0" type="move" name="top"/>
    </contour>
  </outline>
</glyph>
<glyph name="peheh-ar.medi" format="1">
  <advance width="482"/>
  <unicode hex="FB71"/>
  <outline>
    <component base="fehDotless-ar.medi"/>
    <component base="fourdotsabove-ar" xOffset="81" yOffset="252"/>
    <contour>
      <point x="241.0" y="0.0" type="move" name="bottom"/>
    </contour>
    <contour>
      <point x="239.0" y="535.0" type="move" name="top"/>
    </contour>
  </outline>
</glyph>
<glyph name="tcheheh-ar.fina" format="1">
  <advance width="659"/>
  <unicode hex="FB7F"/>
  <outline>
    <contour>
      <point x="337" y="-304" type="curve" smooth="yes"/>
      <point x="463" y="-304"/>
      <point x="585" y="-255"/>
      <point x="666" y="-174" type="curve"/>
      <point x="591" y="-56" type="line"/>
      <point x="527" y="-118"/>
      <point x="437" y="-154"/>
      <point x="346" y="-154" type="curve" smooth="yes"/>
      <point x="186" y="-154"/>
      <point x="134" y="-104"/>
      <point x="134" y="-11" type="curve" smooth="yes"/>
      <point x="134" y="1" type="line" smooth="yes"/>
      <point x="134" y="98"/>
      <point x="201" y="134"/>
      <point x="387" y="184" type="curve" smooth="yes"/>
      <point x="459" y="203" type="line"/>
      <point x="459" y="184" type="line" smooth="yes"/>
      <point x="459" y="60"/>
      <point x="515" y="1"/>
      <point x="629" y="0" type="curve" name="hr01"/>
      <point x="659" y="30" type="line"/>
      <point x="659" y="150" type="line"/>
      <point x="629" y="150" type="line" smooth="yes"/>
      <point x="578" y="150"/>
      <point x="559" y="164"/>
      <point x="559" y="204" type="curve" smooth="yes"/>
      <point x="559" y="230" type="line"/>
      <point x="610" y="244" type="line"/>
      <point x="610" y="471" type="line"/>
      <point x="219" y="495" type="line" smooth="yes"/>
      <point x="103" y="502"/>
      <point x="54" y="454"/>
      <point x="54" y="353" type="curve" smooth="yes"/>
      <point x="54" y="278" type="line"/>
      <point x="169" y="278" type="line"/>
      <point x="169" y="349" type="line"/>
      <point x="524" y="341" type="line"/>
      <point x="524" y="335" type="line"/>
      <point x="325" y="273" type="line" smooth="yes"/>
      <point x="118" y="208"/>
      <point x="23" y="115"/>
      <point x="23" y="-25" type="curve" smooth="yes" name="hr02"/>
      <point x="23" y="-200"/>
      <point x="140" y="-304"/>
    </contour>
    <contour>
      <point x="389" y="-107" type="curve" smooth="yes"/>
      <point x="405" y="-107" type="line" smooth="yes"/>
      <point x="432" y="-107"/>
      <point x="452" y="-91"/>
      <point x="452" y="-53" type="curve" smooth="yes"/>
      <point x="452" y="-15"/>
      <point x="432" y="1"/>
      <point x="405" y="1" type="curve" smooth="yes"/>
      <point x="389" y="1" type="line" smooth="yes"/>
      <point x="362" y="1"/>
      <point x="342" y="-15"/>
      <point x="342" y="-53" type="curve" smooth="yes"/>
      <point x="342" y="-91"/>
      <point x="362" y="-107"/>
    </contour>
    <contour>
      <point x="389" y="17" type="curve" smooth="yes"/>
      <point x="405" y="17" type="line" smooth="yes"/>
      <point x="432" y="17"/>
      <point x="452" y="33"/>
      <point x="452" y="70" type="curve" smooth="yes"/>
      <point x="452" y="108"/>
      <point x="432" y="124"/>
      <point x="405" y="124" type="curve" smooth="yes"/>
      <point x="389" y="124" type="line" smooth="yes"/>
      <point x="362" y="124"/>
      <point x="342" y="108"/>
      <point x="342" y="70" type="curve" smooth="yes"/>
      <point x="342" y="33"/>
      <point x="362" y="17"/>
    </contour>
    <contour>
      <point x="263" y="-107" type="curve" smooth="yes"/>
      <point x="279" y="-107" type="line" smooth="yes"/>
      <point x="306" y="-107"/>
      <point x="326" y="-91"/>
      <point x="326" y="-53" type="curve" smooth="yes"/>
      <point x="326" y="-15"/>
      <point x="306" y="1"/>
      <point x="279" y="1" type="curve" smooth="yes"/>
      <point x="263" y="1" type="line" smooth="yes"/>
      <point x="236" y="1"/>
      <point x="216" y="-15"/>
      <point x="216" y="-53" type="curve" smooth="yes"/>
      <point x="216" y="-91"/>
      <point x="236" y="-107"/>
    </contour>
    <contour>
      <point x="263" y="17" type="curve" smooth="yes"/>
      <point x="279" y="17" type="line" smooth="yes"/>
      <point x="306" y="17"/>
      <point x="326" y="33"/>
      <point x="326" y="70" type="curve" smooth="yes"/>
      <point x="326" y="108"/>
      <point x="306" y="124"/>
      <point x="279" y="124" type="curve" smooth="yes"/>
      <point x="263" y="124" type="line" smooth="yes"/>
      <point x="236" y="124"/>
      <point x="216" y="108"/>
      <point x="216" y="70" type="curve" smooth="yes"/>
      <point x="216" y="33"/>
      <point x="236" y="17"/>
    </contour>
  </outline>
</glyph>
<glyph name="tcheheh-ar.init" format="1">
  <advance width="662"/>
  <unicode hex="FB80"/>
  <outline>
    <component base="hah-ar.init"/>
    <component base="fourdotsbelow-ar" xOffset="167" yOffset="-703"/>
    <contour>
      <point x="325.0" y="0.0" type="move" name="bottom"/>
    </contour>
    <contour>
      <point x="274.0" y="443.0" type="move" name="top"/>
    </contour>
  </outline>
</glyph>
<glyph name="rreh-ar.fina" format="1">
  <advance width="350"/>
  <unicode hex="FB8D"/>
  <outline>
    <component base="tahabove-ar" xOffset="-1" yOffset="40"/>
    <component base="reh-ar.fina"/>
    <contour>
      <point x="40.0" y="-240.0" type="move" name="bottom"/>
    </contour>
    <contour>
      <point x="102.0" y="-224.0" type="move" name="ring"/>
    </contour>
    <contour>
      <point x="159.0" y="689.0" type="move" name="top"/>
    </contour>
  </outline>
</glyph>
<glyph name="keheh-ar.init" format="1">
  <advance width="380"/>
  <unicode hex="FB90"/>
  <outline>
    <component base="kaf-ar.init"/>
    <contour>
      <point x="225.0" y="0.0" type="move" name="bottom"/>
    </contour>
    <contour>
      <point x="10.0" y="600.0" type="move" name="kafbar"/>
    </contour>
    <contour>
      <point x="305.0" y="558.0" type="move" name="ring"/>
    </contour>
    <contour>
      <point x="159.0" y="698.0" type="move" name="top"/>
    </contour>
  </outline>
</glyph>
<glyph name="gueh-ar.medi" format="1">
  <advance width="500"/>
  <unicode hex="FB99"/>
  <outline>
    <component base="twodotsverticalbelow-ar" xOffset="-23" yOffset="-703"/>
    <component base="comp.kafbar-ar" xOffset="-10" yOffset="70"/>
    <component base="kaf-ar.medi"/>
    <contour>
      <point x="214.0" y="-340.0" type="move" name="bottom"/>
    </contour>
    <contour>
      <point x="10.0" y="600.0" type="move" name="kafbar"/>
    </contour>
    <contour>
      <point x="305.0" y="558.0" type="move" name="ring"/>
    </contour>
    <contour>
      <point x="159.0" y="698.0" type="move" name="top"/>
    </contour>
  </outline>
</glyph>
<glyph name="hehHamzaabove-ar.fina" format="1">
  <advance width="530"/>
  <unicode hex="FBA5"/>
  <outline>
    <component base="heh-ar.fina"/>
    <component base="hamzaabove-ar" xOffset="173" yOffset="242"/>
    <contour>
      <point x="230.0" y="0.0" type="move" name="bottom"/>
    </contour>
    <contour>
      <point x="302.0" y="525.0" type="move" name="top"/>
    </contour>
  </outline>
</glyph>
<glyph name="hehDoachashmee-ar.fina" format="1">
  <advance width="572"/>
  <unicode hex="FBAB"/>
  <outline>
    <contour>
      <point x="336" y="-243" type="curve" smooth="yes"/>
      <point x="453" y="-243"/>
      <point x="522" y="-163"/>
      <point x="522" y="-19" type="curve" smooth="yes"/>
      <point x="522" y="0" type="line"/>
      <point x="542" y="0" type="line"/>
      <point x="572" y="30" type="line"/>
      <point x="572" y="150" type="line"/>
      <point x="508" y="150" type="line"/>
      <point x="518" y="183"/>
      <point x="523" y="222"/>
      <point x="523" y="267" type="curve" smooth="yes" name="hr01"/>
      <point x="523" y="383"/>
      <point x="462" y="452"/>
      <point x="359" y="452" type="curve" smooth="yes"/>
      <point x="259" y="452"/>
      <point x="197" y="380"/>
      <point x="117" y="173" type="curve" smooth="yes"/>
      <point x="108" y="150" type="line"/>
      <point x="20" y="150" type="line"/>
      <point x="20" y="0" type="line"/>
      <point x="108" y="0" type="line"/>
      <point x="118" y="-24" type="line" smooth="yes"/>
      <point x="183" y="-187"/>
      <point x="239" y="-243"/>
    </contour>
    <contour>
      <point x="221" y="167" type="line" smooth="yes"/>
      <point x="253" y="257"/>
      <point x="291" y="302"/>
      <point x="355" y="302" type="curve" smooth="yes"/>
      <point x="398" y="302"/>
      <point x="423" y="278"/>
      <point x="423" y="237" type="curve" smooth="yes"/>
      <point x="423" y="177"/>
      <point x="377" y="150"/>
      <point x="256" y="150" type="curve" smooth="yes"/>
      <point x="215" y="150" type="line"/>
    </contour>
    <contour>
      <point x="336" y="-93" type="curve" smooth="yes"/>
      <point x="280" y="-93"/>
      <point x="246" y="-67"/>
      <point x="223" y="-14" type="curve" smooth="yes"/>
      <point x="217" y="0" type="line"/>
      <point x="256" y="0" type="line" smooth="yes"/>
      <point x="326" y="0"/>
      <point x="381" y="11"/>
      <point x="422" y="35" type="curve" name="hr02"/>
      <point x="422" y="-19" type="line" smooth="yes"/>
      <point x="422" y="-69"/>
      <point x="390" y="-93"/>
    </contour>
    <contour>
      <point x="336.0" y="-243.0" type="move" name="bottom"/>
    </contour>
    <contour>
      <point x="359.0" y="452.0" type="move" name="top"/>
    </contour>
  </outline>
</glyph>
<glyph name="hehDoachashmee-ar.medi" format="1">
  <advance width="502"/>
  <unicode hex="FBAD"/>
  <outline>
    <contour>
      <point x="266" y="-243" type="curve" smooth="yes" name="hr00"/>
      <point x="383" y="-243"/>
      <point x="452" y="-163"/>
      <point x="452" y="-19" type="curve" smooth="yes"/>
      <point x="452" y="0" type="line"/>
      <point x="472" y="0" type="line"/>
      <point x="502" y="30" type="line"/>
      <point x="502" y="150" type="line"/>
      <point x="438" y="150" type="line"/>
      <point x="448" y="183"/>
      <point x="453" y="222"/>
      <point x="453" y="267" type="curve" smooth="yes"/>
      <point x="453" y="383"/>
      <point x="392" y="452"/>
      <point x="289" y="452" type="curve" smooth="yes"/>
      <point x="189" y="452"/>
      <point x="127" y="380"/>
      <point x="47" y="173" type="curve" smooth="yes"/>
      <point x="38" y="150" type="line"/>
      <point x="0" y="150" type="line"/>
      <point x="-30" y="120" type="line"/>
      <point x="-30" y="0" type="line"/>
      <point x="38" y="0" type="line"/>
      <point x="48" y="-24" type="line" smooth="yes"/>
      <point x="113" y="-187"/>
      <point x="169" y="-243"/>
    </contour>
    <contour>
      <point x="151" y="167" type="line" smooth="yes"/>
      <point x="183" y="257"/>
      <point x="221" y="302"/>
      <point x="285" y="302" type="curve" smooth="yes"/>
      <point x="328" y="302"/>
      <point x="353" y="278"/>
      <point x="353" y="237" type="curve" smooth="yes"/>
      <point x="353" y="177"/>
      <point x="307" y="150"/>
      <point x="186" y="150" type="curve" smooth="yes"/>
      <point x="145" y="150" type="line"/>
    </contour>
    <contour>
      <point x="266" y="-93" type="curve" smooth="yes"/>
      <point x="210" y="-93"/>
      <point x="176" y="-67"/>
      <point x="153" y="-14" type="curve" smooth="yes"/>
      <point x="147" y="0" type="line"/>
      <point x="186" y="0" type="line" smooth="yes"/>
      <point x="256" y="0"/>
      <point x="311" y="11"/>
      <point x="352" y="35" type="curve"/>
      <point x="352" y="-19" type="line" smooth="yes"/>
      <point x="352" y="-69"/>
      <point x="320" y="-93"/>
    </contour>
    <contour>
      <point x="266.0" y="-243.0" type="move" name="bottom"/>
    </contour>
    <contour>
      <point x="289.0" y="452.0" type="move" name="top"/>
    </contour>
  </outline>
</glyph>
<glyph name="dotabove-ar" format="1">
  <advance width="0"/>
  <unicode hex="FBB2"/>
  <outline>
    <contour>
      <point x="69" y="363" type="curve" smooth="yes" name="hr00"/>
      <point x="89" y="363" type="line" smooth="yes"/>
      <point x="123" y="363"/>
      <point x="148" y="383"/>
      <point x="148" y="430" type="curve" smooth="yes"/>
      <point x="148" y="477"/>
      <point x="123" y="497"/>
      <point x="89" y="497" type="curve" smooth="yes"/>
      <point x="69" y="497" type="line" smooth="yes"/>
      <point x="35" y="497"/>
      <point x="10" y="477"/>
      <point x="10" y="430" type="curve" smooth="yes"/>
      <point x="10" y="383"/>
      <point x="35" y="363"/>
    </contour>
    <contour>
      <point x="79.0" y="283.0" type="move" name="_top"/>
    </contour>
    <contour>
      <point x="79.0" y="497.0" type="move" name="top"/>
    </contour>
  </outline>
</glyph>
<glyph name="twodotsverticalbelow-ar" format="1">
  <advance width="0"/>
  <unicode hex="FBBE"/>
  <outline>
    <contour>
      <point x="227" y="363" type="curve" smooth="yes" name="hr00"/>
      <point x="247" y="363" type="line" smooth="yes"/>
      <point x="281" y="363"/>
      <point x="306" y="383"/>
      <point x="306" y="430" type="curve" smooth="yes"/>
      <point x="306" y="477"/>
      <point x="281" y="497"/>
      <point x="247" y="497" type="curve" smooth="yes"/>
      <point x="227" y="497" type="line" smooth="yes"/>
      <point x="193" y="497"/>
      <point x="168" y="477"/>
      <point x="168" y="430" type="curve" smooth="yes"/>
      <point x="168" y="383"/>
      <point x="193" y="363"/>
    </contour>
    <contour>
      <point x="227" y="517" type="curve" smooth="yes"/>
      <point x="247" y="517" type="line" smooth="yes"/>
      <point x="281" y="517"/>
      <point x="306" y="537"/>
      <point x="306" y="584" type="curve" smooth="yes"/>
      <point x="306" y="631"/>
      <point x="281" y="651"/>
      <point x="247" y="651" type="curve" smooth="yes"/>
      <point x="227" y="651" type="line" smooth="yes"/>
      <point x="193" y="651"/>
      <point x="168" y="631"/>
      <point x="168" y="584" type="curve" smooth="yes"/>
      <point x="168" y="537"/>
      <point x="193" y="517"/>
    </contour>
    <contour>
      <point x="237.0" y="703.0" type="move" name="_bottom"/>
    </contour>
    <contour>
      <point x="237.0" y="363.0" type="move" name="bottom"/>
    </contour>
  </outline>
</glyph>
<glyph name="ring-ar" format="1">
  <advance width="0"/>
  <unicode hex="FBBF"/>
  <outline>
    <contour>
      <point x="131" y="357" type="curve" smooth="yes" name="hr00"/>
      <point x="197" y="357"/>
      <point x="247" y="409"/>
      <point x="247" y="478" type="curve" smooth="yes"/>
      <point x="247" y="548"/>
      <point x="197" y="600"/>
      <point x="131" y="600" type="curve" smooth="yes"/>
      <point x="65" y="600"/>
      <point x="15" y="548"/>
      <point x="15" y="478" type="curve" smooth="yes"/>
      <point x="15" y="409"/>
      <point x="65" y="357"/>
    </contour>
    <contour>
      <point x="131" y="427" type="curve" smooth="yes"/>
      <point x="99" y="427"/>
      <point x="75" y="448"/>
      <point x="75" y="478" type="curve" smooth="yes"/>
      <point x="75" y="508"/>
      <point x="99" y="529"/>
      <point x="131" y="529" type="curve" smooth="yes"/>
      <point x="163" y="529"/>
      <point x="187" y="508"/>
      <point x="187" y="478" type="curve" smooth="yes"/>
      <point x="187" y="448"/>
      <point x="163" y="427"/>
    </contour>
    <contour>
      <point x="131.0" y="529.0" type="move" name="_ring"/>
    </contour>
  </outline>
</glyph>
<glyph name="uniFBC0" format="1">
  <advance width="327"/>
  <unicode hex="FBC0"/>
  <outline>
    <component base="comp.tahmini-ar"/>
    <contour>
      <point x="165" y="283" type="move" name="_top"/>
    </contour>
    <contour>
      <point x="160" y="649" type="move" name="top"/>
    </contour>
  </outline>
</glyph>
<glyph name="ve-ar.fina" format="1">
  <advance width="498"/>
  <unicode hex="FBDF"/>
  <outline>
    <component base="waw-ar.fina"/>
    <component base="threedotsupabove-ar" xOffset="87" yOffset="140"/>
    <contour>
      <point x="359.0" y="-44.0" type="move" name="bar"/>
    </contour>
    <contour>
      <point x="194.0" y="-240.0" type="move" name="bottom"/>
    </contour>
    <contour>
      <point x="-3.0" y="0.0" type="move" name="center"/>
    </contour>
    <contour>
      <point x="356.0" y="423.0" type="move" name="high"/>
    </contour>
    <contour>
      <point x="157.0" y="-5.0" type="move" name="ring"/>
    </contour>
    <contour>
      <point x="245.0" y="423.0" type="move" name="top"/>
    </contour>
  </outline>
</glyph>
<glyph name="kirghizoe-ar.fina" format="1">
  <advance width="498"/>
  <unicode hex="FBE1"/>
  <outline>
    <contour>
      <point x="30" y="-67" type="line" name="hr00"/>
      <point x="243" y="-67" type="line"/>
      <point x="204" y="-82"/>
      <point x="155" y="-90"/>
      <point x="94" y="-90" type="curve" smooth="yes"/>
      <point x="30" y="-90" type="line"/>
      <point x="30" y="-240" type="line"/>
      <point x="104" y="-240" type="line" smooth="yes"/>
      <point x="285" y="-240"/>
      <point x="397" y="-153"/>
      <point x="434" y="0" type="curve"/>
      <point x="468" y="0" type="line"/>
      <point x="498" y="30" type="line"/>
      <point x="498" y="150" type="line"/>
      <point x="447" y="150" type="line"/>
      <point x="440" y="321"/>
      <point x="366" y="423"/>
      <point x="245" y="423" type="curve" smooth="yes"/>
      <point x="128" y="423"/>
      <point x="40" y="319"/>
      <point x="40" y="180" type="curve" smooth="yes"/>
      <point x="40" y="67"/>
      <point x="104" y="0"/>
      <point x="212" y="0" type="curve" smooth="yes"/>
      <point x="328" y="0" type="line"/>
      <point x="324" y="-7"/>
      <point x="319" y="-14"/>
      <point x="313" y="-21" type="curve"/>
      <point x="30" y="-21" type="line"/>
    </contour>
    <contour>
      <point x="140" y="200" type="curve" smooth="yes"/>
      <point x="140" y="242"/>
      <point x="180" y="273"/>
      <point x="232" y="273" type="curve" smooth="yes"/>
      <point x="298" y="273"/>
      <point x="347" y="225"/>
      <point x="347" y="153" type="curve" smooth="yes"/>
      <point x="347" y="150" type="line"/>
      <point x="222" y="150" type="line" smooth="yes"/>
      <point x="172" y="150"/>
      <point x="140" y="164"/>
    </contour>
    <contour>
      <point x="359.0" y="-44.0" type="move" name="bar"/>
    </contour>
    <contour>
      <point x="194.0" y="-240.0" type="move" name="bottom"/>
    </contour>
    <contour>
      <point x="-3.0" y="0.0" type="move" name="center"/>
    </contour>
    <contour>
      <point x="356.0" y="423.0" type="move" name="high"/>
    </contour>
    <contour>
      <point x="157.0" y="-5.0" type="move" name="ring"/>
    </contour>
    <contour>
      <point x="245.0" y="423.0" type="move" name="top"/>
    </contour>
  </outline>
</glyph>
<glyph name="teh_alefMaksura-ar.rlig" format="1">
  <advance width="779"/>
  <unicode hex="FC0F"/>
  <outline>
    <component base="behDotless_alefMaksura-ar.rlig"/>
    <component base="twodotshorizontalabove-ar" xOffset="434" yOffset="188"/>
    <contour>
      <point x="722.0" y="-170.0" type="move" name="bottom_1"/>
    </contour>
    <contour>
      <point x="376.0" y="-240.0" type="move" name="bottom_2"/>
    </contour>
    <contour>
      <point x="592.0" y="685.0" type="move" name="top_1"/>
    </contour>
    <contour>
      <point x="130.0" y="217.0" type="move" name="top_2"/>
    </contour>
  </outline>
</glyph>
<glyph name="theh_yeh-ar.rlig" format="1">
  <advance width="779"/>
  <unicode hex="FC14"/>
  <outline>
    <component base="behDotless_alefMaksura-ar.rlig"/>
    <component base="twodotshorizontalbelow-ar" xOffset="218" yOffset="-819"/>
    <component base="threedotsupabove-ar" xOffset="434" yOffset="188"/>
    <contour>
      <point x="722.0" y="-170.0" type="move" name="bottom_1"/>
    </contour>
    <contour>
      <point x="376.0" y="-456.0" type="move" name="bottom_2"/>
    </contour>
    <contour>
      <point x="592.0" y="831.0" type="move" name="top_1"/>
    </contour>
    <contour>
      <point x="130.0" y="217.0" type="move" name="top_2"/>
    </contour>
  </outline>
</glyph>
<glyph name="lam_alefMaksura-ar" format="1">
  <advance width="779"/>
  <unicode hex="FC43"/>
  <outline>
    <contour>
      <point x="376" y="-240" type="curve" smooth="yes"/>
      <point x="610" y="-240"/>
      <point x="749" y="-146"/>
      <point x="749" y="20" type="curve" smooth="yes"/>
      <point x="749" y="83"/>
      <point x="709" y="124"/>
      <point x="645" y="141" type="curve" smooth="yes"/>
      <point x="626" y="146" type="line"/>
      <point x="626" y="152" type="line"/>
      <point x="672" y="176"/>
      <point x="692" y="213"/>
      <point x="692" y="260" type="curve" smooth="yes" name="hr01"/>
      <point x="692" y="740" type="line"/>
      <point x="572" y="740" type="line"/>
      <point x="572" y="260" type="line" smooth="yes"/>
      <point x="572" y="208"/>
      <point x="547" y="190"/>
      <point x="459" y="190" type="curve" smooth="yes"/>
      <point x="400" y="190" type="line"/>
      <point x="400" y="48" type="line"/>
      <point x="647" y="6" type="line" name="hr02"/>
      <point x="635" y="-46"/>
      <point x="550" y="-78"/>
      <point x="416" y="-78" type="curve" smooth="yes"/>
      <point x="336" y="-78" type="line" smooth="yes"/>
      <point x="210" y="-78"/>
      <point x="135" y="-29"/>
      <point x="135" y="54" type="curve" smooth="yes"/>
      <point x="135" y="96"/>
      <point x="152" y="160"/>
      <point x="178" y="217" type="curve"/>
      <point x="82" y="245" type="line"/>
      <point x="53" y="175"/>
      <point x="35" y="93"/>
      <point x="35" y="34" type="curve" smooth="yes"/>
      <point x="35" y="-138"/>
      <point x="162" y="-240"/>
    </contour>
    <contour>
      <point x="662.0" y="-240.0" type="move" name="bottom_1"/>
    </contour>
    <contour>
      <point x="376.0" y="-240.0" type="move" name="bottom_2"/>
    </contour>
    <contour>
      <point x="632.0" y="740.0" type="move" name="top_1"/>
    </contour>
    <contour>
      <point x="130.0" y="217.0" type="move" name="top_2"/>
    </contour>
  </outline>
</glyph>
<glyph name="yehHamzaabove_zain-ar.fina" format="1">
  <advance width="628"/>
  <unicode hex="FC65"/>
  <outline>
    <component base="alefMaksura_reh-ar.fina"/>
    <component base="hamzaabove-ar" xOffset="333" yOffset="80"/>
    <component base="dotabove-ar" xOffset="85" yOffset="40"/>
    <contour>
      <point x="462.0" y="0.0" type="move" name="bottom_1"/>
    </contour>
    <contour>
      <point x="40.0" y="-240.0" type="move" name="bottom_2"/>
    </contour>
    <contour>
      <point x="462.0" y="363.0" type="move" name="top_1"/>
    </contour>
    <contour>
      <point x="164.0" y="323.0" type="move" name="top_2"/>
    </contour>
  </outline>
</glyph>
<glyph name="yehHamzaabove_zain-ar.fina.rlig" format="1">
  <advance width="628"/>
  <unicode hex="FC65"/>
  <outline>
    <component base="alefMaksura_reh-ar.fina.rlig"/>
    <component base="dotabove-ar" xOffset="85" yOffset="40"/>
    <component base="hamzaabove-ar" xOffset="333" yOffset="80"/>
    <contour>
      <point x="462.0" y="0.0" type="move" name="bottom_1"/>
    </contour>
    <contour>
      <point x="40.0" y="-240.0" type="move" name="bottom_2"/>
    </contour>
    <contour>
      <point x="102.0" y="-224.0" type="move" name="ring"/>
    </contour>
    <contour>
      <point x="462.0" y="639.0" type="move" name="top_1"/>
    </contour>
    <contour>
      <point x="164.0" y="537.0" type="move" name="top_2"/>
    </contour>
  </outline>
</glyph>
<glyph name="yehHamzaabove_yeh-ar.fina" format="1">
  <advance width="996"/>
  <unicode hex="FC69"/>
  <outline>
    <component base="comp.behDotless_alefMaksura-ar.fina"/>
    <component base="hamzaabove-ar" xOffset="479" yOffset="223"/>
    <component base="twodotshorizontalbelow-ar" xOffset="218" yOffset="-819"/>
    <contour>
      <point x="722.0" y="-170.0" type="move" name="bottom_1"/>
    </contour>
    <contour>
      <point x="376.0" y="-240.0" type="move" name="bottom_2"/>
    </contour>
    <contour>
      <point x="608.0" y="506.0" type="move" name="top_1"/>
    </contour>
    <contour>
      <point x="130.0" y="217.0" type="move" name="top_2"/>
    </contour>
  </outline>
</glyph>
<glyph name="beh_zain-ar.fina.rlig" format="1">
  <advance width="628"/>
  <unicode hex="FC6B"/>
  <outline>
    <component base="alefMaksura_reh-ar.fina.rlig"/>
    <component base="dotabove-ar" xOffset="85" yOffset="40"/>
    <component base="dotbelow-ar" xOffset="383" yOffset="-579"/>
    <contour>
      <point x="462.0" y="-216.0" type="move" name="bottom_1"/>
    </contour>
    <contour>
      <point x="40.0" y="-240.0" type="move" name="bottom_2"/>
    </contour>
    <contour>
      <point x="102.0" y="-224.0" type="move" name="ring"/>
    </contour>
    <contour>
      <point x="462.0" y="363.0" type="move" name="top_1"/>
    </contour>
    <contour>
      <point x="164.0" y="537.0" type="move" name="top_2"/>
    </contour>
  </outline>
</glyph>
<glyph name="beh_noon-ar.fina" format="1">
  <advance width="1021"/>
  <unicode hex="FC6D"/>
  <outline>
    <component base="alefMaksura_noonghunna-ar"/>
    <component base="dotabove-ar" xOffset="267" yOffset="-67"/>
    <component base="dotbelow-ar" xOffset="776" yOffset="-579"/>
    <contour>
      <point x="855.0" y="0.0" type="move" name="bottom_1"/>
    </contour>
    <contour>
      <point x="346.0" y="-240.0" type="move" name="bottom_2"/>
    </contour>
    <contour>
      <point x="346.0" y="-240.0" type="move" name="ring"/>
    </contour>
    <contour>
      <point x="855.0" y="363.0" type="move" name="top_1"/>
    </contour>
    <contour>
      <point x="346.0" y="216.0" type="move" name="top_2"/>
    </contour>
  </outline>
</glyph>
<glyph name="teh_noon-ar.fina" format="1">
  <advance width="1021"/>
  <unicode hex="FC73"/>
  <outline>
    <component base="alefMaksura_noonghunna-ar"/>
    <component base="dotabove-ar" xOffset="267" yOffset="-67"/>
    <component base="twodotshorizontalabove-ar" xOffset="697" yOffset="80"/>
    <contour>
      <point x="855.0" y="0.0" type="move" name="bottom_1"/>
    </contour>
    <contour>
      <point x="346.0" y="-240.0" type="move" name="bottom_2"/>
    </contour>
    <contour>
      <point x="346.0" y="-240.0" type="move" name="ring"/>
    </contour>
    <contour>
      <point x="855.0" y="363.0" type="move" name="top_1"/>
    </contour>
    <contour>
      <point x="346.0" y="216.0" type="move" name="top_2"/>
    </contour>
  </outline>
</glyph>
